# 3ds Max Wavefront OBJ Exporter v0.97b - (c)2007 guruware
# File Created: 28.08.2017 20:33:25

mtllib Asteroid5LP.mtl

#
# object rockLP001
#

v  -0.7270 0.2801 0.7253
v  -0.7041 0.2663 0.4500
v  -0.5727 0.0731 0.5702
v  -0.5209 0.1854 0.7958
v  -0.2778 -0.1685 0.6936
v  -0.2269 0.1054 0.9302
v  0.2352 -0.2579 0.7697
v  0.1508 0.0815 0.9774
v  0.5686 0.0485 0.5890
v  0.4450 0.2555 0.7858
v  0.7313 0.2948 0.4309
v  0.6128 0.4010 0.6456
v  -0.7999 0.1891 0.1781
v  -0.5812 0.0175 0.2130
v  -0.2715 -0.3392 0.2694
v  0.3107 -0.4878 0.2790
v  0.6145 -0.0311 0.2096
v  0.7180 0.2544 0.1502
v  -0.8469 0.1476 -0.1338
v  -0.6141 -0.0214 -0.1907
v  -0.2518 -0.3472 -0.2745
v  0.3090 -0.4521 -0.3101
v  0.6625 -0.1026 -0.2044
v  0.7724 0.2022 -0.1556
v  -0.7982 0.1735 -0.4447
v  -0.5618 0.0261 -0.5490
v  -0.2482 -0.2580 -0.7316
v  0.2377 -0.2710 -0.7338
v  0.5671 0.0217 -0.5671
v  0.7558 0.2437 -0.4523
v  -0.6971 0.2694 -0.6656
v  -0.4692 0.1549 -0.7898
v  -0.1691 0.1030 -0.8349
v  0.1924 -0.0022 -0.9249
v  0.5006 0.1222 -0.8343
v  0.6699 0.2834 -0.6701
v  -0.7031 1.6212 0.6998
v  -0.5053 1.7251 0.7909
v  -0.5754 1.8680 0.5759
v  -0.8344 1.7634 0.5171
v  -0.2125 1.7501 0.8035
v  -0.2296 1.8967 0.6091
v  0.0901 1.7900 0.8260
v  0.1294 1.9234 0.6148
v  0.3988 1.8044 0.8237
v  0.5416 2.0095 0.6432
v  0.7119 1.8086 0.8340
v  0.8053 1.9010 0.5867
v  -0.6911 1.9970 0.2506
v  -0.8627 1.7510 0.2097
v  -0.2972 2.1351 0.2945
v  0.1628 2.1623 0.3260
v  0.6019 2.1011 0.2916
v  0.7603 1.8450 0.2421
v  -0.6756 1.9834 -0.1537
v  -0.8687 1.7609 -0.1023
v  -0.2932 2.0450 -0.1305
v  0.1221 2.0054 -0.1231
v  0.5007 1.9533 -0.1372
v  0.6633 1.7366 -0.0846
v  -0.5560 1.8093 -0.4393
v  -0.7728 1.6682 -0.3492
v  -0.2473 1.9314 -0.4916
v  0.1268 1.8538 -0.4585
v  0.4050 1.7816 -0.4056
v  0.6209 1.6780 -0.3604
v  -0.4777 1.6343 -0.6292
v  -0.6731 1.5702 -0.5310
v  -0.2382 1.7655 -0.7515
v  0.0865 1.7247 -0.7011
v  0.3527 1.6627 -0.6079
v  0.5698 1.6014 -0.5698
v  -0.6116 0.3851 0.9992
v  -0.8683 0.4891 0.8673
v  -0.2582 0.3517 1.1280
v  0.1789 0.4274 1.0748
v  0.4571 0.5387 0.8529
v  0.6244 0.6402 0.6993
v  -0.7566 0.7428 1.2372
v  -1.0151 0.8113 1.0130
v  -0.2940 0.7563 1.4768
v  0.2329 0.8195 1.3597
v  0.5287 0.8598 0.9676
v  0.6863 0.8924 0.7306
v  -0.6310 1.1657 1.0357
v  -0.8545 1.1680 0.8485
v  -0.2516 1.2486 1.1605
v  0.1834 1.2809 1.1753
v  0.6064 1.2680 1.1165
v  0.7807 1.2038 0.8662
v  -0.5655 1.4772 0.9102
v  -0.7826 1.4136 0.7742
v  -0.2280 1.5568 0.9590
v  0.1184 1.5727 0.9415
v  0.4849 1.5771 0.9630
v  0.8473 1.5808 0.9746
v  0.7664 0.5554 0.4967
v  0.8755 0.4722 0.1637
v  0.9755 0.4249 -0.2102
v  0.8534 0.4801 -0.5369
v  0.7545 0.5246 -0.7546
v  0.8450 0.8685 0.5341
v  1.0857 0.7949 0.2435
v  1.0932 0.7830 -0.2133
v  0.9769 0.8003 -0.5996
v  0.8493 0.8267 -0.8495
v  0.9890 1.2289 0.6755
v  1.1469 1.2605 0.2952
v  1.2416 1.2798 -0.2060
v  1.1110 1.2268 -0.6454
v  0.8445 1.1761 -0.8446
v  0.9141 1.6163 0.6674
v  1.0256 1.6830 0.2833
v  0.8582 1.5706 -0.1110
v  0.8069 1.5273 -0.4458
v  0.7278 1.4552 -0.7278
v  0.5940 0.3797 -0.9507
v  0.2087 0.2936 -1.0084
v  -0.1714 0.3932 -0.9039
v  -0.5175 0.4208 -0.8610
v  -0.7382 0.5293 -0.6738
v  0.5774 0.7688 -0.9359
v  0.2154 0.6720 -1.0995
v  -0.2338 0.7169 -1.0256
v  -0.5707 0.7743 -0.8836
v  -0.7526 0.8103 -0.7017
v  0.5219 1.1456 -0.8765
v  0.1497 1.1122 -0.9005
v  -0.2706 1.1575 -1.0389
v  -0.6708 1.1793 -0.9995
v  -0.8233 1.1034 -0.7521
v  0.4195 1.4545 -0.7518
v  0.0956 1.4548 -0.8053
v  -0.2840 1.5300 -0.9021
v  -0.5667 1.4249 -0.7482
v  -0.7366 1.3636 -0.6156
v  -0.9065 0.4350 -0.5014
v  -0.9873 0.3638 -0.1724
v  -0.9673 0.4054 0.2077
v  -0.8896 0.4637 0.5514
v  -0.9642 0.7824 -0.5272
v  -1.2790 0.7146 -0.2096
v  -1.2139 0.7410 0.2682
v  -1.1473 0.7915 0.6953
v  -1.0882 1.1716 -0.5938
v  -1.2467 1.1806 -0.1958
v  -1.1124 1.1796 0.2396
v  -1.0262 1.2014 0.6263
v  -0.9098 1.4745 -0.4454
v  -1.0084 1.5102 -0.1378
v  -0.9483 1.4827 0.2294
v  -0.8985 1.4802 0.5579
# 152 vertices

vn -0.7071 -0.6671 0.2344
vn -0.7272 -0.6563 0.2014
vn -0.7382 -0.6307 0.2393
vn -0.4942 -0.6672 0.5574
vn -0.4380 -0.7331 0.5204
vn -0.2586 -0.5591 0.7877
vn 0.2915 -0.7076 0.6437
vn 0.2336 -0.3761 0.8967
vn 0.7982 -0.4043 0.4466
vn 0.6786 -0.2291 0.6979
vn 0.8693 -0.3829 0.3126
vn 0.7546 -0.2390 0.6111
vn -0.6656 -0.6982 0.2639
vn -0.7117 -0.6877 0.1435
vn -0.4958 -0.8570 0.1406
vn 0.3315 -0.9189 0.2139
vn 0.8750 -0.4340 0.2145
vn 0.8648 -0.4729 0.1688
vn -0.7127 -0.7013 0.0141
vn -0.6423 -0.7661 -0.0218
vn -0.4344 -0.8953 -0.0992
vn 0.2998 -0.9237 -0.2386
vn 0.8453 -0.5252 -0.0981
vn 0.8775 -0.4778 0.0408
vn -0.7121 -0.6157 -0.3374
vn -0.6320 -0.6461 -0.4278
vn -0.4113 -0.6804 -0.6065
vn 0.2900 -0.7653 -0.5746
vn 0.7549 -0.5312 -0.3845
vn 0.8593 -0.4348 -0.2693
vn -0.6292 -0.3479 -0.6950
vn -0.3853 -0.5390 -0.7490
vn -0.3148 -0.2685 -0.9104
vn 0.0772 -0.3877 -0.9185
vn 0.6028 -0.4905 -0.6293
vn 0.8086 -0.4446 -0.3854
vn -0.5893 0.4675 0.6589
vn -0.2975 0.6146 0.7306
vn -0.3254 0.7515 0.5739
vn -0.7389 0.5158 0.4336
vn -0.1294 0.7063 0.6960
vn -0.0937 0.7880 0.6085
vn -0.0905 0.6829 0.7249
vn -0.1053 0.8338 0.5420
vn 0.0061 0.6091 0.7930
vn 0.2031 0.8449 0.4948
vn 0.2098 0.7595 0.6157
vn 0.6677 0.7363 0.1099
vn -0.5500 0.8255 0.1266
vn -0.8803 0.4709 0.0574
vn -0.1632 0.9698 0.1810
vn 0.0485 0.9808 0.1887
vn 0.5124 0.8587 0.0071
vn 0.6935 0.6941 -0.1933
vn -0.5159 0.8042 -0.2951
vn -0.7875 0.5844 -0.1959
vn -0.0350 0.9689 -0.2451
vn 0.1058 0.9212 -0.3744
vn 0.4413 0.7804 -0.4431
vn 0.6892 0.6438 -0.3326
vn -0.5237 0.5979 -0.6068
vn -0.5724 0.6076 -0.5507
vn -0.0503 0.8921 -0.4491
vn 0.2558 0.8624 -0.4368
vn 0.3300 0.7883 -0.5193
vn 0.5499 0.7520 -0.3634
vn -0.5611 0.5248 -0.6401
vn -0.5820 0.5312 -0.6157
vn -0.1376 0.6701 -0.7294
vn 0.2538 0.6433 -0.7223
vn 0.3145 0.7259 -0.6116
vn 0.3850 0.8161 -0.4310
vn -0.4215 -0.6788 0.6013
vn -0.7353 -0.5931 0.3281
vn -0.0761 -0.6547 0.7520
vn 0.4361 -0.4518 0.7782
vn 0.7030 -0.2780 0.6546
vn 0.7391 -0.2297 0.6332
vn -0.5515 -0.0926 0.8290
vn -0.8209 0.0111 0.5710
vn -0.1384 -0.0928 0.9860
vn 0.4408 -0.1687 0.8816
vn 0.7571 -0.3837 0.5288
vn 0.7344 -0.3803 0.5621
vn -0.4479 0.4777 0.7558
vn -0.6558 0.4372 0.6154
vn -0.2165 0.5472 0.8085
vn 0.0376 0.5087 0.8601
vn 0.4939 0.0564 0.8677
vn 0.7536 -0.3011 0.5843
vn -0.3928 0.4548 0.7993
vn -0.6438 0.4311 0.6322
vn -0.1511 0.5610 0.8139
vn -0.0240 0.5389 0.8420
vn -0.0132 0.5079 0.8613
vn 0.6670 0.2414 0.7049
vn 0.7913 -0.2867 0.5401
vn 0.8290 -0.5039 0.2428
vn 0.8565 -0.5132 -0.0546
vn 0.8007 -0.4558 -0.3887
vn 0.7667 -0.3317 -0.5496
vn 0.7351 -0.3273 0.5938
vn 0.8711 -0.3559 0.3384
vn 0.9373 -0.3354 -0.0946
vn 0.8531 -0.3013 -0.4259
vn 0.6225 -0.1427 -0.7695
vn 0.8261 -0.1417 0.5454
vn 0.9631 0.1035 0.2483
vn 0.9427 0.3241 -0.0792
vn 0.8082 0.2283 -0.5428
vn 0.3968 0.1830 -0.8995
vn 0.9189 0.2848 0.2731
vn 0.8080 0.5876 -0.0437
vn 0.6402 0.7258 -0.2515
vn 0.5292 0.7994 -0.2843
vn 0.3214 0.6626 -0.6765
vn 0.5922 -0.2756 -0.7572
vn -0.0080 -0.2975 -0.9547
vn -0.2678 -0.2829 -0.9210
vn -0.4394 -0.2076 -0.8740
vn -0.6556 -0.1412 -0.7418
vn 0.3623 0.0898 -0.9277
vn 0.1245 0.0538 -0.9908
vn -0.2831 -0.2370 -0.9293
vn -0.5572 -0.2703 -0.7851
vn -0.6532 -0.2116 -0.7270
vn 0.0899 0.2494 -0.9642
vn 0.2093 0.3357 -0.9184
vn 0.0100 0.2687 -0.9632
vn -0.5280 0.2553 -0.8100
vn -0.6979 0.0657 -0.7132
vn 0.1350 0.4783 -0.8677
vn 0.1994 0.3508 -0.9150
vn -0.1638 0.4585 -0.8735
vn -0.5074 0.5851 -0.6326
vn -0.5591 0.5441 -0.6256
vn -0.7534 -0.3317 -0.5678
vn -0.8123 -0.5772 -0.0840
vn -0.7702 -0.6087 0.1905
vn -0.7113 -0.6665 0.2233
vn -0.6904 -0.1879 -0.6986
vn -0.9407 -0.2366 -0.2431
vn -0.9641 -0.2077 0.1655
vn -0.9336 -0.1488 0.3259
vn -0.7449 0.1697 -0.6452
vn -0.9556 0.2733 -0.1099
vn -0.9204 0.3301 0.2094
vn -0.8435 0.3729 0.3867
vn -0.5641 0.6050 -0.5620
vn -0.8427 0.5311 -0.0878
vn -0.9035 0.3970 0.1615
vn -0.8395 0.3916 0.3766
# 152 vertex normals

vt 0.3324 0.3467 0.0000
vt 0.2869 0.3533 0.0000
vt 0.2984 0.3143 0.0000
vt 0.3404 0.3101 0.0000
vt 0.3093 0.2556 0.0000
vt 0.3660 0.2567 0.0000
vt 0.3138 0.1788 0.0000
vt 0.3730 0.1828 0.0000
vt 0.3064 0.1070 0.0000
vt 0.3570 0.1110 0.0000
vt 0.2984 0.0550 0.0000
vt 0.3438 0.0678 0.0000
vt 0.2340 0.3642 0.0000
vt 0.2379 0.3216 0.0000
vt 0.2421 0.2532 0.0000
vt 0.2409 0.1694 0.0000
vt 0.2444 0.0912 0.0000
vt 0.2445 0.0440 0.0000
vt 0.1742 0.3651 0.0000
vt 0.1694 0.3201 0.0000
vt 0.1638 0.2474 0.0000
vt 0.1630 0.1650 0.0000
vt 0.1768 0.0938 0.0000
vt 0.1814 0.0450 0.0000
vt 0.1186 0.3515 0.0000
vt 0.1085 0.3051 0.0000
vt 0.0988 0.2392 0.0000
vt 0.0993 0.1705 0.0000
vt 0.1134 0.1001 0.0000
vt 0.1250 0.0513 0.0000
vt 0.0757 0.3386 0.0000
vt 0.0617 0.2938 0.0000
vt 0.0440 0.2418 0.0000
vt 0.0507 0.1681 0.0000
vt 0.0660 0.1080 0.0000
vt 0.0857 0.0642 0.0000
vt 0.0693 0.7011 0.0000
vt 0.1070 0.6949 0.0000
vt 0.1001 0.7359 0.0000
vt 0.0567 0.7416 0.0000
vt 0.1549 0.6907 0.0000
vt 0.1539 0.7279 0.0000
vt 0.2055 0.6907 0.0000
vt 0.2098 0.7289 0.0000
vt 0.2563 0.6963 0.0000
vt 0.2732 0.7392 0.0000
vt 0.3051 0.7036 0.0000
vt 0.3156 0.7458 0.0000
vt 0.0884 0.7905 0.0000
vt 0.0440 0.7916 0.0000
vt 0.1486 0.7876 0.0000
vt 0.2138 0.7848 0.0000
vt 0.2762 0.7910 0.0000
vt 0.3179 0.8033 0.0000
vt 0.0888 0.8507 0.0000
vt 0.0442 0.8474 0.0000
vt 0.1461 0.8526 0.0000
vt 0.2086 0.8568 0.0000
vt 0.2666 0.8588 0.0000
vt 0.3084 0.8633 0.0000
vt 0.0962 0.9032 0.0000
vt 0.0537 0.8950 0.0000
vt 0.1488 0.9095 0.0000
vt 0.2100 0.9125 0.0000
vt 0.2572 0.9080 0.0000
vt 0.2955 0.9072 0.0000
vt 0.0973 0.9448 0.0000
vt 0.0631 0.9307 0.0000
vt 0.1467 0.9560 0.0000
vt 0.2035 0.9546 0.0000
vt 0.2511 0.9448 0.0000
vt 0.2877 0.9420 0.0000
vt 0.4289 0.0630 0.0000
vt 0.4662 0.0499 0.0000
vt 0.4625 0.0959 0.0000
vt 0.4151 0.1082 0.0000
vt 0.5230 0.0449 0.0000
vt 0.5224 0.0918 0.0000
vt 0.5866 0.0440 0.0000
vt 0.5934 0.0998 0.0000
vt 0.6472 0.0631 0.0000
vt 0.6520 0.1098 0.0000
vt 0.6861 0.0791 0.0000
vt 0.6903 0.1194 0.0000
vt 0.4518 0.1643 0.0000
vt 0.4014 0.1728 0.0000
vt 0.5207 0.1657 0.0000
vt 0.5904 0.1722 0.0000
vt 0.6577 0.1670 0.0000
vt 0.7023 0.1630 0.0000
vt 0.4602 0.2377 0.0000
vt 0.4146 0.2448 0.0000
vt 0.5242 0.2467 0.0000
vt 0.5926 0.2430 0.0000
vt 0.6547 0.2353 0.0000
vt 0.6972 0.2235 0.0000
vt 0.4700 0.2889 0.0000
vt 0.4272 0.2865 0.0000
vt 0.5268 0.2995 0.0000
vt 0.5841 0.2996 0.0000
vt 0.6437 0.2889 0.0000
vt 0.6997 0.2833 0.0000
vt 0.4779 0.3326 0.0000
vt 0.4391 0.3221 0.0000
vt 0.5287 0.3373 0.0000
vt 0.5819 0.3377 0.0000
vt 0.6328 0.3330 0.0000
vt 0.6827 0.3277 0.0000
vt 0.0718 0.4195 0.0000
vt 0.1131 0.4069 0.0000
vt 0.1020 0.4483 0.0000
vt 0.0608 0.4573 0.0000
vt 0.1592 0.3969 0.0000
vt 0.1592 0.4385 0.0000
vt 0.2148 0.3934 0.0000
vt 0.2215 0.4388 0.0000
vt 0.2659 0.4025 0.0000
vt 0.2772 0.4430 0.0000
vt 0.3047 0.4061 0.0000
vt 0.3158 0.4472 0.0000
vt 0.0970 0.4998 0.0000
vt 0.0574 0.5005 0.0000
vt 0.1540 0.4967 0.0000
vt 0.2227 0.4926 0.0000
vt 0.2857 0.4954 0.0000
vt 0.3296 0.4994 0.0000
vt 0.0907 0.5640 0.0000
vt 0.0493 0.5589 0.0000
vt 0.1510 0.5672 0.0000
vt 0.2216 0.5670 0.0000
vt 0.2839 0.5602 0.0000
vt 0.3309 0.5604 0.0000
vt 0.0925 0.6254 0.0000
vt 0.0440 0.6215 0.0000
vt 0.1530 0.6311 0.0000
vt 0.2190 0.6369 0.0000
vt 0.2732 0.6287 0.0000
vt 0.3194 0.6157 0.0000
vt 0.1050 0.6731 0.0000
vt 0.0621 0.6650 0.0000
vt 0.1599 0.6763 0.0000
vt 0.2204 0.6765 0.0000
vt 0.2683 0.6675 0.0000
vt 0.3046 0.6566 0.0000
vt 0.8958 0.4113 0.0000
vt 0.9103 0.4537 0.0000
vt 0.8666 0.4444 0.0000
vt 0.8532 0.4040 0.0000
vt 0.9250 0.5049 0.0000
vt 0.8785 0.5021 0.0000
vt 0.9122 0.5625 0.0000
vt 0.8665 0.5622 0.0000
vt 0.9054 0.6094 0.0000
vt 0.8626 0.6148 0.0000
vt 0.8920 0.6512 0.0000
vt 0.8512 0.6608 0.0000
vt 0.8087 0.4401 0.0000
vt 0.8028 0.3966 0.0000
vt 0.8217 0.4992 0.0000
vt 0.8140 0.5656 0.0000
vt 0.8082 0.6221 0.0000
vt 0.8043 0.6631 0.0000
vt 0.7492 0.4434 0.0000
vt 0.7493 0.3934 0.0000
vt 0.7499 0.5006 0.0000
vt 0.7480 0.5667 0.0000
vt 0.7459 0.6225 0.0000
vt 0.7497 0.6640 0.0000
vt 0.6959 0.4536 0.0000
vt 0.7011 0.4057 0.0000
vt 0.6947 0.5053 0.0000
vt 0.6889 0.5675 0.0000
vt 0.6949 0.6201 0.0000
vt 0.6969 0.6559 0.0000
vt 0.6557 0.4586 0.0000
vt 0.6644 0.4237 0.0000
vt 0.6500 0.5055 0.0000
vt 0.6466 0.5612 0.0000
vt 0.6566 0.6105 0.0000
vt 0.6614 0.6468 0.0000
vt 0.3626 0.4108 0.0000
vt 0.4023 0.4004 0.0000
vt 0.3966 0.4447 0.0000
vt 0.3569 0.4521 0.0000
vt 0.4537 0.3943 0.0000
vt 0.4501 0.4337 0.0000
vt 0.5070 0.3934 0.0000
vt 0.5110 0.4351 0.0000
vt 0.5562 0.3957 0.0000
vt 0.5667 0.4393 0.0000
vt 0.5990 0.4062 0.0000
vt 0.6155 0.4481 0.0000
vt 0.3876 0.4988 0.0000
vt 0.3451 0.4992 0.0000
vt 0.4516 0.4980 0.0000
vt 0.5190 0.4987 0.0000
vt 0.5813 0.5050 0.0000
vt 0.6325 0.5059 0.0000
vt 0.3908 0.5610 0.0000
vt 0.3460 0.5559 0.0000
vt 0.4503 0.5619 0.0000
vt 0.5157 0.5678 0.0000
vt 0.5747 0.5704 0.0000
vt 0.6176 0.5714 0.0000
vt 0.4015 0.6170 0.0000
vt 0.3595 0.6095 0.0000
vt 0.4544 0.6213 0.0000
vt 0.5147 0.6202 0.0000
vt 0.5678 0.6183 0.0000
vt 0.6074 0.6115 0.0000
vt 0.4087 0.6556 0.0000
vt 0.3720 0.6453 0.0000
vt 0.4571 0.6651 0.0000
vt 0.5111 0.6633 0.0000
vt 0.5620 0.6637 0.0000
vt 0.6007 0.6468 0.0000
# 216 texture coords

o rockLP001
g rockLP001
usemtl wire_115115115
s 1
f 1/1/1 2/2/2 3/3/3 
f 3/3/3 4/4/4 1/1/1 
f 4/4/4 3/3/3 5/5/5 
f 5/5/5 6/6/6 4/4/4 
f 6/6/6 5/5/5 7/7/7 
f 7/7/7 8/8/8 6/6/6 
f 8/8/8 7/7/7 9/9/9 
f 9/9/9 10/10/10 8/8/8 
f 10/10/10 9/9/9 11/11/11 
f 11/11/11 12/12/12 10/10/10 
f 2/2/2 13/13/13 14/14/14 
f 14/14/14 3/3/3 2/2/2 
f 3/3/3 14/14/14 15/15/15 
f 15/15/15 5/5/5 3/3/3 
f 5/5/5 15/15/15 16/16/16 
f 16/16/16 7/7/7 5/5/5 
f 7/7/7 16/16/16 17/17/17 
f 17/17/17 9/9/9 7/7/7 
f 9/9/9 17/17/17 18/18/18 
f 18/18/18 11/11/11 9/9/9 
f 13/13/13 19/19/19 20/20/20 
f 20/20/20 14/14/14 13/13/13 
f 14/14/14 20/20/20 21/21/21 
f 21/21/21 15/15/15 14/14/14 
f 15/15/15 21/21/21 22/22/22 
f 22/22/22 16/16/16 15/15/15 
f 16/16/16 22/22/22 23/23/23 
f 23/23/23 17/17/17 16/16/16 
f 17/17/17 23/23/23 24/24/24 
f 24/24/24 18/18/18 17/17/17 
f 19/19/19 25/25/25 26/26/26 
f 26/26/26 20/20/20 19/19/19 
f 20/20/20 26/26/26 27/27/27 
f 27/27/27 21/21/21 20/20/20 
f 21/21/21 27/27/27 28/28/28 
f 28/28/28 22/22/22 21/21/21 
f 22/22/22 28/28/28 29/29/29 
f 29/29/29 23/23/23 22/22/22 
f 23/23/23 29/29/29 30/30/30 
f 30/30/30 24/24/24 23/23/23 
f 25/25/25 31/31/31 32/32/32 
f 32/32/32 26/26/26 25/25/25 
f 26/26/26 32/32/32 33/33/33 
f 33/33/33 27/27/27 26/26/26 
f 27/27/27 33/33/33 34/34/34 
f 34/34/34 28/28/28 27/27/27 
f 28/28/28 34/34/34 35/35/35 
f 35/35/35 29/29/29 28/28/28 
f 29/29/29 35/35/35 36/36/36 
f 36/36/36 30/30/30 29/29/29 
f 37/37/37 38/38/38 39/39/39 
f 39/39/39 40/40/40 37/37/37 
f 38/38/38 41/41/41 42/42/42 
f 42/42/42 39/39/39 38/38/38 
f 41/41/41 43/43/43 44/44/44 
f 44/44/44 42/42/42 41/41/41 
f 43/43/43 45/45/45 46/46/46 
f 46/46/46 44/44/44 43/43/43 
f 45/45/45 47/47/47 48/48/48 
f 48/48/48 46/46/46 45/45/45 
f 40/40/40 39/39/39 49/49/49 
f 49/49/49 50/50/50 40/40/40 
f 39/39/39 42/42/42 51/51/51 
f 51/51/51 49/49/49 39/39/39 
f 42/42/42 44/44/44 52/52/52 
f 52/52/52 51/51/51 42/42/42 
f 44/44/44 46/46/46 53/53/53 
f 53/53/53 52/52/52 44/44/44 
f 46/46/46 48/48/48 54/54/54 
f 54/54/54 53/53/53 46/46/46 
f 50/50/50 49/49/49 55/55/55 
f 55/55/55 56/56/56 50/50/50 
f 49/49/49 51/51/51 57/57/57 
f 57/57/57 55/55/55 49/49/49 
f 51/51/51 52/52/52 58/58/58 
f 58/58/58 57/57/57 51/51/51 
f 52/52/52 53/53/53 59/59/59 
f 59/59/59 58/58/58 52/52/52 
f 53/53/53 54/54/54 60/60/60 
f 60/60/60 59/59/59 53/53/53 
f 56/56/56 55/55/55 61/61/61 
f 61/61/61 62/62/62 56/56/56 
f 55/55/55 57/57/57 63/63/63 
f 63/63/63 61/61/61 55/55/55 
f 57/57/57 58/58/58 64/64/64 
f 64/64/64 63/63/63 57/57/57 
f 58/58/58 59/59/59 65/65/65 
f 65/65/65 64/64/64 58/58/58 
f 59/59/59 60/60/60 66/66/66 
f 66/66/66 65/65/65 59/59/59 
f 62/62/62 61/61/61 67/67/67 
f 67/67/67 68/68/68 62/62/62 
f 61/61/61 63/63/63 69/69/69 
f 69/69/69 67/67/67 61/61/61 
f 63/63/63 64/64/64 70/70/70 
f 70/70/70 69/69/69 63/63/63 
f 64/64/64 65/65/65 71/71/71 
f 71/71/71 70/70/70 64/64/64 
f 65/65/65 66/66/66 72/72/72 
f 72/72/72 71/71/71 65/65/65 
f 1/73/1 4/74/4 73/75/73 
f 73/75/73 74/76/74 1/73/1 
f 4/74/4 6/77/6 75/78/75 
f 75/78/75 73/75/73 4/74/4 
f 6/77/6 8/79/8 76/80/76 
f 76/80/76 75/78/75 6/77/6 
f 8/79/8 10/81/10 77/82/77 
f 77/82/77 76/80/76 8/79/8 
f 10/81/10 12/83/12 78/84/78 
f 78/84/78 77/82/77 10/81/10 
f 74/76/74 73/75/73 79/85/79 
f 79/85/79 80/86/80 74/76/74 
f 73/75/73 75/78/75 81/87/81 
f 81/87/81 79/85/79 73/75/73 
f 75/78/75 76/80/76 82/88/82 
f 82/88/82 81/87/81 75/78/75 
f 76/80/76 77/82/77 83/89/83 
f 83/89/83 82/88/82 76/80/76 
f 77/82/77 78/84/78 84/90/84 
f 84/90/84 83/89/83 77/82/77 
f 80/86/80 79/85/79 85/91/85 
f 85/91/85 86/92/86 80/86/80 
f 79/85/79 81/87/81 87/93/87 
f 87/93/87 85/91/85 79/85/79 
f 81/87/81 82/88/82 88/94/88 
f 88/94/88 87/93/87 81/87/81 
f 82/88/82 83/89/83 89/95/89 
f 89/95/89 88/94/88 82/88/82 
f 83/89/83 84/90/84 90/96/90 
f 90/96/90 89/95/89 83/89/83 
f 86/92/86 85/91/85 91/97/91 
f 91/97/91 92/98/92 86/92/86 
f 85/91/85 87/93/87 93/99/93 
f 93/99/93 91/97/91 85/91/85 
f 87/93/87 88/94/88 94/100/94 
f 94/100/94 93/99/93 87/93/87 
f 88/94/88 89/95/89 95/101/95 
f 95/101/95 94/100/94 88/94/88 
f 89/95/89 90/96/90 96/102/96 
f 96/102/96 95/101/95 89/95/89 
f 92/98/92 91/97/91 38/103/38 
f 38/103/38 37/104/37 92/98/92 
f 91/97/91 93/99/93 41/105/41 
f 41/105/41 38/103/38 91/97/91 
f 93/99/93 94/100/94 43/106/43 
f 43/106/43 41/105/41 93/99/93 
f 94/100/94 95/101/95 45/107/45 
f 45/107/45 43/106/43 94/100/94 
f 95/101/95 96/102/96 47/108/47 
f 47/108/47 45/107/45 95/101/95 
f 12/109/12 11/110/11 97/111/97 
f 97/111/97 78/112/78 12/109/12 
f 11/110/11 18/113/18 98/114/98 
f 98/114/98 97/111/97 11/110/11 
f 18/113/18 24/115/24 99/116/99 
f 99/116/99 98/114/98 18/113/18 
f 24/115/24 30/117/30 100/118/100 
f 100/118/100 99/116/99 24/115/24 
f 30/117/30 36/119/36 101/120/101 
f 101/120/101 100/118/100 30/117/30 
f 78/112/78 97/111/97 102/121/102 
f 102/121/102 84/122/84 78/112/78 
f 97/111/97 98/114/98 103/123/103 
f 103/123/103 102/121/102 97/111/97 
f 98/114/98 99/116/99 104/124/104 
f 104/124/104 103/123/103 98/114/98 
f 99/116/99 100/118/100 105/125/105 
f 105/125/105 104/124/104 99/116/99 
f 100/118/100 101/120/101 106/126/106 
f 106/126/106 105/125/105 100/118/100 
f 84/122/84 102/121/102 107/127/107 
f 107/127/107 90/128/90 84/122/84 
f 102/121/102 103/123/103 108/129/108 
f 108/129/108 107/127/107 102/121/102 
f 103/123/103 104/124/104 109/130/109 
f 109/130/109 108/129/108 103/123/103 
f 104/124/104 105/125/105 110/131/110 
f 110/131/110 109/130/109 104/124/104 
f 105/125/105 106/126/106 111/132/111 
f 111/132/111 110/131/110 105/125/105 
f 90/128/90 107/127/107 112/133/112 
f 112/133/112 96/134/96 90/128/90 
f 107/127/107 108/129/108 113/135/113 
f 113/135/113 112/133/112 107/127/107 
f 108/129/108 109/130/109 114/136/114 
f 114/136/114 113/135/113 108/129/108 
f 109/130/109 110/131/110 115/137/115 
f 115/137/115 114/136/114 109/130/109 
f 110/131/110 111/132/111 116/138/116 
f 116/138/116 115/137/115 110/131/110 
f 96/134/96 112/133/112 48/139/48 
f 48/139/48 47/140/47 96/134/96 
f 112/133/112 113/135/113 54/141/54 
f 54/141/54 48/139/48 112/133/112 
f 113/135/113 114/136/114 60/142/60 
f 60/142/60 54/141/54 113/135/113 
f 114/136/114 115/137/115 66/143/66 
f 66/143/66 60/142/60 114/136/114 
f 115/137/115 116/138/116 72/144/72 
f 72/144/72 66/143/66 115/137/115 
f 36/145/36 35/146/35 117/147/117 
f 117/147/117 101/148/101 36/145/36 
f 35/146/35 34/149/34 118/150/118 
f 118/150/118 117/147/117 35/146/35 
f 34/149/34 33/151/33 119/152/119 
f 119/152/119 118/150/118 34/149/34 
f 33/151/33 32/153/32 120/154/120 
f 120/154/120 119/152/119 33/151/33 
f 32/153/32 31/155/31 121/156/121 
f 121/156/121 120/154/120 32/153/32 
f 101/148/101 117/147/117 122/157/122 
f 122/157/122 106/158/106 101/148/101 
f 117/147/117 118/150/118 123/159/123 
f 123/159/123 122/157/122 117/147/117 
f 118/150/118 119/152/119 124/160/124 
f 124/160/124 123/159/123 118/150/118 
f 119/152/119 120/154/120 125/161/125 
f 125/161/125 124/160/124 119/152/119 
f 120/154/120 121/156/121 126/162/126 
f 126/162/126 125/161/125 120/154/120 
f 106/158/106 122/157/122 127/163/127 
f 127/163/127 111/164/111 106/158/106 
f 122/157/122 123/159/123 128/165/128 
f 128/165/128 127/163/127 122/157/122 
f 123/159/123 124/160/124 129/166/129 
f 129/166/129 128/165/128 123/159/123 
f 124/160/124 125/161/125 130/167/130 
f 130/167/130 129/166/129 124/160/124 
f 125/161/125 126/162/126 131/168/131 
f 131/168/131 130/167/130 125/161/125 
f 111/164/111 127/163/127 132/169/132 
f 132/169/132 116/170/116 111/164/111 
f 127/163/127 128/165/128 133/171/133 
f 133/171/133 132/169/132 127/163/127 
f 128/165/128 129/166/129 134/172/134 
f 134/172/134 133/171/133 128/165/128 
f 129/166/129 130/167/130 135/173/135 
f 135/173/135 134/172/134 129/166/129 
f 130/167/130 131/168/131 136/174/136 
f 136/174/136 135/173/135 130/167/130 
f 116/170/116 132/169/132 71/175/71 
f 71/175/71 72/176/72 116/170/116 
f 132/169/132 133/171/133 70/177/70 
f 70/177/70 71/175/71 132/169/132 
f 133/171/133 134/172/134 69/178/69 
f 69/178/69 70/177/70 133/171/133 
f 134/172/134 135/173/135 67/179/67 
f 67/179/67 69/178/69 134/172/134 
f 135/173/135 136/174/136 68/180/68 
f 68/180/68 67/179/67 135/173/135 
f 31/181/31 25/182/25 137/183/137 
f 137/183/137 121/184/121 31/181/31 
f 25/182/25 19/185/19 138/186/138 
f 138/186/138 137/183/137 25/182/25 
f 19/185/19 13/187/13 139/188/139 
f 139/188/139 138/186/138 19/185/19 
f 13/187/13 2/189/2 140/190/140 
f 140/190/140 139/188/139 13/187/13 
f 2/189/2 1/191/1 74/192/74 
f 74/192/74 140/190/140 2/189/2 
f 121/184/121 137/183/137 141/193/141 
f 141/193/141 126/194/126 121/184/121 
f 137/183/137 138/186/138 142/195/142 
f 142/195/142 141/193/141 137/183/137 
f 138/186/138 139/188/139 143/196/143 
f 143/196/143 142/195/142 138/186/138 
f 139/188/139 140/190/140 144/197/144 
f 144/197/144 143/196/143 139/188/139 
f 140/190/140 74/192/74 80/198/80 
f 80/198/80 144/197/144 140/190/140 
f 126/194/126 141/193/141 145/199/145 
f 145/199/145 131/200/131 126/194/126 
f 141/193/141 142/195/142 146/201/146 
f 146/201/146 145/199/145 141/193/141 
f 142/195/142 143/196/143 147/202/147 
f 147/202/147 146/201/146 142/195/142 
f 143/196/143 144/197/144 148/203/148 
f 148/203/148 147/202/147 143/196/143 
f 144/197/144 80/198/80 86/204/86 
f 86/204/86 148/203/148 144/197/144 
f 131/200/131 145/199/145 149/205/149 
f 149/205/149 136/206/136 131/200/131 
f 145/199/145 146/201/146 150/207/150 
f 150/207/150 149/205/149 145/199/145 
f 146/201/146 147/202/147 151/208/151 
f 151/208/151 150/207/150 146/201/146 
f 147/202/147 148/203/148 152/209/152 
f 152/209/152 151/208/151 147/202/147 
f 148/203/148 86/204/86 92/210/92 
f 92/210/92 152/209/152 148/203/148 
f 136/206/136 149/205/149 62/211/62 
f 62/211/62 68/212/68 136/206/136 
f 149/205/149 150/207/150 56/213/56 
f 56/213/56 62/211/62 149/205/149 
f 150/207/150 151/208/151 50/214/50 
f 50/214/50 56/213/56 150/207/150 
f 151/208/151 152/209/152 40/215/40 
f 40/215/40 50/214/50 151/208/151 
f 152/209/152 92/210/92 37/216/37 
f 37/216/37 40/215/40 152/209/152 
# 300 faces

