# 3ds Max Wavefront OBJ Exporter v0.97b - (c)2007 guruware
# File Created: 28.08.2017 20:29:02

mtllib Asteroid4LP.mtl

#
# object rockLP001
#

v  -0.6823 0.3275 0.6821
v  -0.8341 0.1302 0.5480
v  -0.6356 -0.0306 0.6352
v  -0.4861 0.2263 0.7516
v  -0.2563 -0.0835 0.6552
v  -0.2242 0.1195 0.9141
v  0.1902 -0.0362 0.6308
v  0.1361 0.1562 0.9178
v  0.5536 0.0981 0.5555
v  0.4358 0.2790 0.7618
v  0.7713 0.2678 0.4544
v  0.6223 0.3896 0.6553
v  -1.1206 -0.1765 0.2648
v  -0.7164 -0.2526 0.2790
v  -0.2128 -0.1266 0.2123
v  0.2079 -0.0170 0.2010
v  0.5687 0.0434 0.1927
v  0.7968 0.1868 0.1617
v  -1.0162 -0.0771 -0.1718
v  -0.6520 -0.1094 -0.1865
v  -0.2046 -0.0678 -0.2209
v  0.1996 0.0089 -0.1997
v  0.5200 0.0997 -0.1767
v  0.7529 0.2226 -0.1491
v  -0.8422 0.1246 -0.4636
v  -0.5348 0.0781 -0.5350
v  -0.2015 -0.0453 -0.5985
v  0.1879 0.0146 -0.5702
v  0.4742 0.1794 -0.4742
v  0.7255 0.2719 -0.4340
v  -0.7410 0.2189 -0.7116
v  -0.4650 0.1614 -0.7830
v  -0.1724 0.0735 -0.8532
v  0.1433 0.1908 -0.7310
v  0.3811 0.3159 -0.6445
v  0.5729 0.3714 -0.5729
v  -0.7115 1.6208 0.7109
v  -0.5045 1.7202 0.7893
v  -0.5256 1.7863 0.5257
v  -0.7640 1.6807 0.4925
v  -0.2104 1.7801 0.8419
v  -0.2346 1.9699 0.6469
v  0.0979 1.8344 0.8619
v  0.1427 1.9686 0.6393
v  0.4112 1.8264 0.8403
v  0.4446 1.8610 0.5516
v  0.6535 1.7602 0.7809
v  0.7263 1.8186 0.5403
v  -0.6461 1.9095 0.2338
v  -0.8523 1.7313 0.2128
v  -0.3012 2.1437 0.3007
v  0.1184 2.0135 0.2822
v  0.4470 1.8815 0.2283
v  0.7577 1.8403 0.2432
v  -0.6696 1.9638 -0.1505
v  -0.8498 1.7272 -0.0932
v  -0.3413 2.2832 -0.1764
v  0.1477 2.1856 -0.1479
v  0.5413 2.0310 -0.1469
v  0.8773 1.9557 -0.1406
v  -0.5987 1.8755 -0.4970
v  -0.8157 1.7001 -0.3785
v  -0.2914 2.0450 -0.5878
v  0.2016 2.2693 -0.7120
v  0.5890 2.0563 -0.5890
v  0.8419 1.8932 -0.4682
v  -0.5290 1.6942 -0.7011
v  -0.7194 1.5992 -0.5744
v  -0.2456 1.8065 -0.7868
v  0.1711 1.9483 -0.9644
v  0.4649 1.8428 -0.8345
v  0.6610 1.6907 -0.6610
v  -0.5267 0.5032 0.8406
v  -0.7338 0.5684 0.7337
v  -0.2183 0.4358 0.9936
v  0.1786 0.4338 1.0637
v  0.4672 0.5277 0.8711
v  0.6671 0.6092 0.7394
v  -0.5551 0.8000 0.9200
v  -0.8116 0.8248 0.8104
v  -0.2457 0.8099 1.1396
v  0.1847 0.8515 1.1320
v  0.5373 0.8583 0.9835
v  0.7496 0.8790 0.7870
v  -0.5909 1.1515 0.9702
v  -0.8771 1.1644 0.8765
v  -0.2543 1.2499 1.1729
v  0.1839 1.2791 1.1783
v  0.4905 1.2143 0.9529
v  0.6938 1.1828 0.7669
v  -0.5445 1.4541 0.8710
v  -0.8202 1.4273 0.8189
v  -0.2330 1.5827 1.0082
v  0.1621 1.7043 1.1469
v  0.4709 1.5629 0.9455
v  0.6412 1.4696 0.7735
v  0.8139 0.5393 0.5110
v  1.0909 0.3571 0.2146
v  1.0573 0.3774 -0.2185
v  0.8840 0.4544 -0.5548
v  0.6921 0.5400 -0.6921
v  0.9224 0.8304 0.5853
v  1.2153 0.7541 0.2679
v  1.1783 0.7679 -0.2306
v  1.0514 0.7723 -0.6311
v  0.8432 0.8258 -0.8432
v  0.9479 1.2180 0.6530
v  1.0604 1.2476 0.2744
v  1.0779 1.2471 -0.1866
v  1.1627 1.2279 -0.6698
v  0.9284 1.1926 -0.9285
v  0.8755 1.5974 0.6446
v  0.9466 1.6290 0.2834
v  0.9406 1.6167 -0.1242
v  0.9312 1.6032 -0.5209
v  0.7412 1.4707 -0.7412
v  0.4682 0.4830 -0.7716
v  0.1977 0.3596 -0.9116
v  -0.2157 0.2740 -1.0887
v  -0.6126 0.3483 -1.0070
v  -0.8593 0.4406 -0.8341
v  0.5729 0.7696 -0.9276
v  0.2013 0.6834 -1.0286
v  -0.2172 0.7304 -0.9727
v  -0.6597 0.7517 -1.0290
v  -0.9626 0.7709 -0.9205
v  0.6042 1.1715 -1.0405
v  0.1666 1.1173 -0.9744
v  -0.2629 1.1466 -0.9929
v  -0.5718 1.1219 -0.8362
v  -0.8438 1.1041 -0.7719
v  0.5069 1.5478 -0.9195
v  0.1339 1.5530 -1.0045
v  -0.2794 1.5136 -0.8798
v  -0.5435 1.4063 -0.7200
v  -0.7623 1.3737 -0.6379
v  -1.0377 0.3451 -0.5783
v  -1.1271 0.2776 -0.1905
v  -1.1775 0.2584 0.2677
v  -0.9404 0.4350 0.5756
v  -1.1648 0.7264 -0.6442
v  -1.2606 0.7149 -0.2045
v  -1.2539 0.7323 0.2745
v  -1.0470 0.8000 0.6324
v  -1.0754 1.1574 -0.5776
v  -1.3090 1.1956 -0.2120
v  -1.3073 1.2134 0.2821
v  -1.1449 1.2296 0.6946
v  -0.9292 1.4789 -0.4545
v  -0.9882 1.5009 -0.1307
v  -0.9830 1.5049 0.2328
v  -0.9457 1.5126 0.5784
# 152 vertices

vn -0.4494 -0.2573 0.8555
vn -0.5003 -0.3457 0.7938
vn -0.3226 -0.6159 0.7187
vn -0.4348 -0.3312 0.8374
vn -0.0757 -0.9033 0.4223
vn -0.2810 -0.5495 0.7868
vn 0.2286 -0.9225 0.3109
vn 0.2694 -0.6184 0.7382
vn 0.5470 -0.7067 0.4487
vn 0.5758 -0.4068 0.7092
vn 0.6578 -0.5248 0.5403
vn 0.6532 -0.3599 0.6662
vn -0.6887 -0.6835 0.2421
vn -0.0542 -0.9740 0.2200
vn 0.2028 -0.9785 0.0385
vn 0.2021 -0.9782 -0.0481
vn 0.3772 -0.9256 -0.0329
vn 0.5159 -0.8561 0.0306
vn -0.5893 -0.6828 -0.4320
vn -0.0668 -0.9334 -0.3526
vn 0.1498 -0.9831 -0.1053
vn 0.2763 -0.9570 -0.0884
vn 0.3512 -0.9128 -0.2085
vn 0.4647 -0.8602 -0.2100
vn -0.4659 -0.7071 -0.5320
vn -0.2922 -0.8349 -0.4665
vn -0.0173 -0.9381 -0.3458
vn 0.3652 -0.8298 -0.4220
vn 0.4360 -0.7578 -0.4855
vn 0.4724 -0.7646 -0.4385
vn -0.3849 -0.7118 -0.5876
vn -0.3531 -0.8271 -0.4372
vn 0.0969 -0.8406 -0.5329
vn 0.4338 -0.6677 -0.6049
vn 0.4986 -0.6127 -0.6132
vn 0.3415 -0.6401 -0.6882
vn -0.5239 0.7237 0.4491
vn -0.4080 0.6280 0.6627
vn -0.5181 0.7634 0.3857
vn -0.5707 0.7552 0.3225
vn -0.2208 0.6610 0.7172
vn -0.2043 0.8359 0.5095
vn -0.0788 0.8769 0.4742
vn 0.1993 0.9123 0.3578
vn 0.2677 0.8396 0.4726
vn 0.2212 0.9655 0.1373
vn 0.6999 0.4434 0.5599
vn 0.5313 0.8014 0.2750
vn -0.6018 0.7340 0.3147
vn -0.7732 0.6078 0.1808
vn -0.1865 0.8961 0.4028
vn 0.3002 0.9117 0.2805
vn 0.2724 0.9306 0.2446
vn 0.4285 0.8637 0.2653
vn -0.7269 0.6743 -0.1302
vn -0.8160 0.5695 -0.0996
vn -0.3478 0.9368 -0.0394
vn 0.2883 0.9253 0.2465
vn 0.3250 0.9209 0.2152
vn 0.6747 0.7368 0.0426
vn -0.6139 0.6246 -0.4827
vn -0.7463 0.5712 -0.3418
vn -0.5087 0.6338 -0.5827
vn 0.1213 0.8904 -0.4387
vn 0.5989 0.7209 -0.3487
vn 0.7332 0.5588 -0.3875
vn -0.5376 0.3514 -0.7665
vn -0.6601 0.3472 -0.6661
vn -0.4297 0.4055 -0.8068
vn -0.0097 0.4142 -0.9102
vn 0.5862 0.3786 -0.7163
vn 0.6552 0.3756 -0.6554
vn -0.4967 -0.3043 0.8128
vn -0.4499 -0.3168 0.8350
vn -0.3149 -0.2819 0.9063
vn 0.2344 -0.3307 0.9142
vn 0.6018 -0.3785 0.7032
vn 0.6579 -0.3568 0.6632
vn -0.4873 -0.2241 0.8440
vn -0.4583 -0.2842 0.8421
vn -0.2694 -0.2185 0.9379
vn 0.2200 -0.1272 0.9672
vn 0.5718 -0.0868 0.8158
vn 0.6618 -0.1289 0.7385
vn -0.4230 0.0621 0.9040
vn -0.4370 0.0107 0.8994
vn -0.3407 0.1316 0.9309
vn 0.3041 -0.0026 0.9526
vn 0.6188 0.0725 0.7822
vn 0.5458 0.1235 0.8288
vn -0.3383 0.3495 0.8737
vn -0.4299 0.4483 0.7837
vn -0.4445 0.5398 0.7149
vn 0.0950 0.5567 0.8252
vn 0.6170 0.1675 0.7690
vn 0.6301 0.0917 0.7711
vn 0.6687 -0.3333 0.6646
vn 0.7664 -0.5772 0.2820
vn 0.7195 -0.6440 -0.2598
vn 0.4884 -0.6403 -0.5929
vn 0.3241 -0.6119 -0.7215
vn 0.7550 -0.2068 0.6223
vn 0.9350 -0.0610 0.3493
vn 0.9863 -0.1026 -0.1292
vn 0.7752 -0.3557 -0.5221
vn 0.4631 -0.4033 -0.7892
vn 0.7816 0.0603 0.6209
vn 0.9480 0.2405 0.2086
vn 0.9489 0.3106 0.0563
vn 0.8937 0.2519 -0.3713
vn 0.5663 0.1699 -0.8065
vn 0.6714 0.4111 0.6166
vn 0.8865 0.4308 0.1689
vn 0.9619 0.2715 -0.0323
vn 0.7931 0.4566 -0.4031
vn 0.5639 0.5640 -0.6032
vn 0.4497 -0.5853 -0.6747
vn 0.4260 -0.4759 -0.7694
vn 0.1131 -0.3635 -0.9247
vn -0.4240 -0.5105 -0.7481
vn -0.6060 -0.4936 -0.6237
vn 0.2778 -0.3674 -0.8876
vn 0.1331 -0.1786 -0.9749
vn -0.0038 0.0939 -0.9956
vn -0.1454 0.2301 -0.9623
vn -0.5975 0.0797 -0.7979
vn 0.1558 -0.0079 -0.9878
vn -0.0347 0.0196 -0.9992
vn -0.2423 0.1437 -0.9595
vn -0.2855 0.3774 -0.8809
vn -0.3643 0.4957 -0.7884
vn 0.4231 0.3479 -0.8366
vn -0.1205 0.0865 -0.9889
vn -0.3715 0.2163 -0.9029
vn -0.4798 0.2500 -0.8410
vn -0.4391 0.4330 -0.7872
vn -0.7366 -0.5214 -0.4309
vn -0.9102 -0.3364 -0.2415
vn -0.9494 -0.1798 0.2574
vn -0.5772 -0.2682 0.7713
vn -0.8802 -0.1098 -0.4616
vn -0.9728 -0.2065 -0.1046
vn -0.9551 -0.1704 0.2424
vn -0.6916 -0.2580 0.6746
vn -0.6781 0.4466 -0.5837
vn -0.8982 0.3758 -0.2282
vn -0.9336 0.3256 0.1493
vn -0.7757 0.2052 0.5968
vn -0.7115 0.5199 -0.4727
vn -0.7807 0.6113 -0.1298
vn -0.7479 0.6604 0.0672
vn -0.6443 0.7042 0.2984
# 152 vertex normals

vt 0.6037 0.3651 0.0000
vt 0.6171 0.4044 0.0000
vt 0.5789 0.4111 0.0000
vt 0.5678 0.3670 0.0000
vt 0.5250 0.4101 0.0000
vt 0.5195 0.3617 0.0000
vt 0.4604 0.4128 0.0000
vt 0.4636 0.3608 0.0000
vt 0.4044 0.4208 0.0000
vt 0.4103 0.3764 0.0000
vt 0.3617 0.4283 0.0000
vt 0.3742 0.3860 0.0000
vt 0.6510 0.4685 0.0000
vt 0.5917 0.4676 0.0000
vt 0.5174 0.4757 0.0000
vt 0.4542 0.4764 0.0000
vt 0.4010 0.4760 0.0000
vt 0.3611 0.4785 0.0000
vt 0.6368 0.5314 0.0000
vt 0.5819 0.5353 0.0000
vt 0.5159 0.5403 0.0000
vt 0.4548 0.5362 0.0000
vt 0.4051 0.5335 0.0000
vt 0.3652 0.5300 0.0000
vt 0.6171 0.5827 0.0000
vt 0.5699 0.5926 0.0000
vt 0.5169 0.5953 0.0000
vt 0.4594 0.5906 0.0000
vt 0.4091 0.5816 0.0000
vt 0.3682 0.5762 0.0000
vt 0.6051 0.6223 0.0000
vt 0.5615 0.6318 0.0000
vt 0.5128 0.6365 0.0000
vt 0.4580 0.6257 0.0000
vt 0.4144 0.6182 0.0000
vt 0.3839 0.6079 0.0000
vt 0.6460 0.0676 0.0000
vt 0.6546 0.1053 0.0000
vt 0.6132 0.1009 0.0000
vt 0.6096 0.0604 0.0000
vt 0.6628 0.1551 0.0000
vt 0.6231 0.1569 0.0000
vt 0.6634 0.2090 0.0000
vt 0.6254 0.2156 0.0000
vt 0.6591 0.2601 0.0000
vt 0.6154 0.2664 0.0000
vt 0.6514 0.3002 0.0000
vt 0.6134 0.3107 0.0000
vt 0.5620 0.0882 0.0000
vt 0.5614 0.0471 0.0000
vt 0.5683 0.1511 0.0000
vt 0.5736 0.2162 0.0000
vt 0.5674 0.2692 0.0000
vt 0.5677 0.3165 0.0000
vt 0.5016 0.0878 0.0000
vt 0.5072 0.0440 0.0000
vt 0.5012 0.1502 0.0000
vt 0.5066 0.2167 0.0000
vt 0.5065 0.2786 0.0000
vt 0.5039 0.3301 0.0000
vt 0.4456 0.0946 0.0000
vt 0.4569 0.0507 0.0000
vt 0.4365 0.1464 0.0000
vt 0.4288 0.2202 0.0000
vt 0.4391 0.2796 0.0000
vt 0.4511 0.3248 0.0000
vt 0.4025 0.0928 0.0000
vt 0.4182 0.0581 0.0000
vt 0.3892 0.1398 0.0000
vt 0.3730 0.2162 0.0000
vt 0.3860 0.2719 0.0000
vt 0.3990 0.3169 0.0000
vt 0.2852 0.6923 0.0000
vt 0.2986 0.7243 0.0000
vt 0.2545 0.7211 0.0000
vt 0.2473 0.6855 0.0000
vt 0.3105 0.7724 0.0000
vt 0.2622 0.7736 0.0000
vt 0.3068 0.8288 0.0000
vt 0.2615 0.8335 0.0000
vt 0.2971 0.8842 0.0000
vt 0.2561 0.8863 0.0000
vt 0.2858 0.9192 0.0000
vt 0.2491 0.9237 0.0000
vt 0.2069 0.7188 0.0000
vt 0.2034 0.6777 0.0000
vt 0.2043 0.7736 0.0000
vt 0.2015 0.8366 0.0000
vt 0.2034 0.8925 0.0000
vt 0.2041 0.9350 0.0000
vt 0.1508 0.7173 0.0000
vt 0.1470 0.6729 0.0000
vt 0.1420 0.7745 0.0000
vt 0.1411 0.8369 0.0000
vt 0.1497 0.8923 0.0000
vt 0.1531 0.9330 0.0000
vt 0.1003 0.7227 0.0000
vt 0.1034 0.6810 0.0000
vt 0.0885 0.7752 0.0000
vt 0.0846 0.8348 0.0000
vt 0.0962 0.8868 0.0000
vt 0.1063 0.9230 0.0000
vt 0.0583 0.7295 0.0000
vt 0.0682 0.6945 0.0000
vt 0.0500 0.7764 0.0000
vt 0.0440 0.8304 0.0000
vt 0.0539 0.8809 0.0000
vt 0.0624 0.9182 0.0000
vt 0.3062 0.3827 0.0000
vt 0.3165 0.4255 0.0000
vt 0.2756 0.4111 0.0000
vt 0.2696 0.3690 0.0000
vt 0.3321 0.4748 0.0000
vt 0.2848 0.4741 0.0000
vt 0.3334 0.5341 0.0000
vt 0.2822 0.5350 0.0000
vt 0.3175 0.5825 0.0000
vt 0.2774 0.5901 0.0000
vt 0.3141 0.6193 0.0000
vt 0.2779 0.6276 0.0000
vt 0.2240 0.4051 0.0000
vt 0.2201 0.3655 0.0000
vt 0.2289 0.4657 0.0000
vt 0.2240 0.5351 0.0000
vt 0.2240 0.5943 0.0000
vt 0.2232 0.6395 0.0000
vt 0.1640 0.4020 0.0000
vt 0.1668 0.3608 0.0000
vt 0.1569 0.4598 0.0000
vt 0.1537 0.5276 0.0000
vt 0.1595 0.5958 0.0000
vt 0.1604 0.6452 0.0000
vt 0.1067 0.4037 0.0000
vt 0.1165 0.3622 0.0000
vt 0.0990 0.4575 0.0000
vt 0.0954 0.5180 0.0000
vt 0.0959 0.5797 0.0000
vt 0.1016 0.6296 0.0000
vt 0.0658 0.4106 0.0000
vt 0.0736 0.3735 0.0000
vt 0.0571 0.4577 0.0000
vt 0.0440 0.5196 0.0000
vt 0.0504 0.5701 0.0000
vt 0.0662 0.6184 0.0000
vt 0.7309 0.3628 0.0000
vt 0.7632 0.3642 0.0000
vt 0.7498 0.3960 0.0000
vt 0.7129 0.3940 0.0000
vt 0.8061 0.3608 0.0000
vt 0.7983 0.3988 0.0000
vt 0.8636 0.3639 0.0000
vt 0.8613 0.4080 0.0000
vt 0.9129 0.3810 0.0000
vt 0.9134 0.4292 0.0000
vt 0.9538 0.4007 0.0000
vt 0.9560 0.4442 0.0000
vt 0.7307 0.4439 0.0000
vt 0.6875 0.4405 0.0000
vt 0.7880 0.4479 0.0000
vt 0.8453 0.4725 0.0000
vt 0.9089 0.4874 0.0000
vt 0.9549 0.5000 0.0000
vt 0.7141 0.5027 0.0000
vt 0.6649 0.4926 0.0000
vt 0.7780 0.5120 0.0000
vt 0.8385 0.5325 0.0000
vt 0.8878 0.5451 0.0000
vt 0.9298 0.5524 0.0000
vt 0.7114 0.5617 0.0000
vt 0.6679 0.5480 0.0000
vt 0.7665 0.5754 0.0000
vt 0.8296 0.5880 0.0000
vt 0.8782 0.5900 0.0000
vt 0.9129 0.5958 0.0000
vt 0.7045 0.6075 0.0000
vt 0.6664 0.5842 0.0000
vt 0.7466 0.6315 0.0000
vt 0.8162 0.6321 0.0000
vt 0.8629 0.6303 0.0000
vt 0.9000 0.6293 0.0000
vt 0.3236 0.0775 0.0000
vt 0.3279 0.1201 0.0000
vt 0.2833 0.1083 0.0000
vt 0.2838 0.0596 0.0000
vt 0.3396 0.1748 0.0000
vt 0.2857 0.1667 0.0000
vt 0.3452 0.2396 0.0000
vt 0.2798 0.2345 0.0000
vt 0.3011 0.2982 0.0000
vt 0.2524 0.2920 0.0000
vt 0.2750 0.3309 0.0000
vt 0.2354 0.3330 0.0000
vt 0.2262 0.0946 0.0000
vt 0.2289 0.0440 0.0000
vt 0.2210 0.1587 0.0000
vt 0.2112 0.2273 0.0000
vt 0.1954 0.2868 0.0000
vt 0.1892 0.3313 0.0000
vt 0.1617 0.0902 0.0000
vt 0.1674 0.0451 0.0000
vt 0.1550 0.1498 0.0000
vt 0.1441 0.2158 0.0000
vt 0.1317 0.2744 0.0000
vt 0.1288 0.3209 0.0000
vt 0.1056 0.0948 0.0000
vt 0.1187 0.0547 0.0000
vt 0.0920 0.1456 0.0000
vt 0.0828 0.2036 0.0000
vt 0.0817 0.2590 0.0000
vt 0.0845 0.3033 0.0000
vt 0.0661 0.0959 0.0000
vt 0.0826 0.0610 0.0000
vt 0.0522 0.1436 0.0000
vt 0.0448 0.1974 0.0000
vt 0.0440 0.2487 0.0000
vt 0.0491 0.2862 0.0000
# 216 texture coords

o rockLP001
g rockLP001
usemtl wire_115115115
s 1
f 1/1/1 2/2/2 3/3/3 
f 3/3/3 4/4/4 1/1/1 
f 4/4/4 3/3/3 5/5/5 
f 5/5/5 6/6/6 4/4/4 
f 6/6/6 5/5/5 7/7/7 
f 7/7/7 8/8/8 6/6/6 
f 8/8/8 7/7/7 9/9/9 
f 9/9/9 10/10/10 8/8/8 
f 10/10/10 9/9/9 11/11/11 
f 11/11/11 12/12/12 10/10/10 
f 2/2/2 13/13/13 14/14/14 
f 14/14/14 3/3/3 2/2/2 
f 3/3/3 14/14/14 15/15/15 
f 15/15/15 5/5/5 3/3/3 
f 5/5/5 15/15/15 16/16/16 
f 16/16/16 7/7/7 5/5/5 
f 7/7/7 16/16/16 17/17/17 
f 17/17/17 9/9/9 7/7/7 
f 9/9/9 17/17/17 18/18/18 
f 18/18/18 11/11/11 9/9/9 
f 13/13/13 19/19/19 20/20/20 
f 20/20/20 14/14/14 13/13/13 
f 14/14/14 20/20/20 21/21/21 
f 21/21/21 15/15/15 14/14/14 
f 15/15/15 21/21/21 22/22/22 
f 22/22/22 16/16/16 15/15/15 
f 16/16/16 22/22/22 23/23/23 
f 23/23/23 17/17/17 16/16/16 
f 17/17/17 23/23/23 24/24/24 
f 24/24/24 18/18/18 17/17/17 
f 19/19/19 25/25/25 26/26/26 
f 26/26/26 20/20/20 19/19/19 
f 20/20/20 26/26/26 27/27/27 
f 27/27/27 21/21/21 20/20/20 
f 21/21/21 27/27/27 28/28/28 
f 28/28/28 22/22/22 21/21/21 
f 22/22/22 28/28/28 29/29/29 
f 29/29/29 23/23/23 22/22/22 
f 23/23/23 29/29/29 30/30/30 
f 30/30/30 24/24/24 23/23/23 
f 25/25/25 31/31/31 32/32/32 
f 32/32/32 26/26/26 25/25/25 
f 26/26/26 32/32/32 33/33/33 
f 33/33/33 27/27/27 26/26/26 
f 27/27/27 33/33/33 34/34/34 
f 34/34/34 28/28/28 27/27/27 
f 28/28/28 34/34/34 35/35/35 
f 35/35/35 29/29/29 28/28/28 
f 29/29/29 35/35/35 36/36/36 
f 36/36/36 30/30/30 29/29/29 
f 37/37/37 38/38/38 39/39/39 
f 39/39/39 40/40/40 37/37/37 
f 38/38/38 41/41/41 42/42/42 
f 42/42/42 39/39/39 38/38/38 
f 41/41/41 43/43/43 44/44/44 
f 44/44/44 42/42/42 41/41/41 
f 43/43/43 45/45/45 46/46/46 
f 46/46/46 44/44/44 43/43/43 
f 45/45/45 47/47/47 48/48/48 
f 48/48/48 46/46/46 45/45/45 
f 40/40/40 39/39/39 49/49/49 
f 49/49/49 50/50/50 40/40/40 
f 39/39/39 42/42/42 51/51/51 
f 51/51/51 49/49/49 39/39/39 
f 42/42/42 44/44/44 52/52/52 
f 52/52/52 51/51/51 42/42/42 
f 44/44/44 46/46/46 53/53/53 
f 53/53/53 52/52/52 44/44/44 
f 46/46/46 48/48/48 54/54/54 
f 54/54/54 53/53/53 46/46/46 
f 50/50/50 49/49/49 55/55/55 
f 55/55/55 56/56/56 50/50/50 
f 49/49/49 51/51/51 57/57/57 
f 57/57/57 55/55/55 49/49/49 
f 51/51/51 52/52/52 58/58/58 
f 58/58/58 57/57/57 51/51/51 
f 52/52/52 53/53/53 59/59/59 
f 59/59/59 58/58/58 52/52/52 
f 53/53/53 54/54/54 60/60/60 
f 60/60/60 59/59/59 53/53/53 
f 56/56/56 55/55/55 61/61/61 
f 61/61/61 62/62/62 56/56/56 
f 55/55/55 57/57/57 63/63/63 
f 63/63/63 61/61/61 55/55/55 
f 57/57/57 58/58/58 64/64/64 
f 64/64/64 63/63/63 57/57/57 
f 58/58/58 59/59/59 65/65/65 
f 65/65/65 64/64/64 58/58/58 
f 59/59/59 60/60/60 66/66/66 
f 66/66/66 65/65/65 59/59/59 
f 62/62/62 61/61/61 67/67/67 
f 67/67/67 68/68/68 62/62/62 
f 61/61/61 63/63/63 69/69/69 
f 69/69/69 67/67/67 61/61/61 
f 63/63/63 64/64/64 70/70/70 
f 70/70/70 69/69/69 63/63/63 
f 64/64/64 65/65/65 71/71/71 
f 71/71/71 70/70/70 64/64/64 
f 65/65/65 66/66/66 72/72/72 
f 72/72/72 71/71/71 65/65/65 
f 1/73/1 4/74/4 73/75/73 
f 73/75/73 74/76/74 1/73/1 
f 4/74/4 6/77/6 75/78/75 
f 75/78/75 73/75/73 4/74/4 
f 6/77/6 8/79/8 76/80/76 
f 76/80/76 75/78/75 6/77/6 
f 8/79/8 10/81/10 77/82/77 
f 77/82/77 76/80/76 8/79/8 
f 10/81/10 12/83/12 78/84/78 
f 78/84/78 77/82/77 10/81/10 
f 74/76/74 73/75/73 79/85/79 
f 79/85/79 80/86/80 74/76/74 
f 73/75/73 75/78/75 81/87/81 
f 81/87/81 79/85/79 73/75/73 
f 75/78/75 76/80/76 82/88/82 
f 82/88/82 81/87/81 75/78/75 
f 76/80/76 77/82/77 83/89/83 
f 83/89/83 82/88/82 76/80/76 
f 77/82/77 78/84/78 84/90/84 
f 84/90/84 83/89/83 77/82/77 
f 80/86/80 79/85/79 85/91/85 
f 85/91/85 86/92/86 80/86/80 
f 79/85/79 81/87/81 87/93/87 
f 87/93/87 85/91/85 79/85/79 
f 81/87/81 82/88/82 88/94/88 
f 88/94/88 87/93/87 81/87/81 
f 82/88/82 83/89/83 89/95/89 
f 89/95/89 88/94/88 82/88/82 
f 83/89/83 84/90/84 90/96/90 
f 90/96/90 89/95/89 83/89/83 
f 86/92/86 85/91/85 91/97/91 
f 91/97/91 92/98/92 86/92/86 
f 85/91/85 87/93/87 93/99/93 
f 93/99/93 91/97/91 85/91/85 
f 87/93/87 88/94/88 94/100/94 
f 94/100/94 93/99/93 87/93/87 
f 88/94/88 89/95/89 95/101/95 
f 95/101/95 94/100/94 88/94/88 
f 89/95/89 90/96/90 96/102/96 
f 96/102/96 95/101/95 89/95/89 
f 92/98/92 91/97/91 38/103/38 
f 38/103/38 37/104/37 92/98/92 
f 91/97/91 93/99/93 41/105/41 
f 41/105/41 38/103/38 91/97/91 
f 93/99/93 94/100/94 43/106/43 
f 43/106/43 41/105/41 93/99/93 
f 94/100/94 95/101/95 45/107/45 
f 45/107/45 43/106/43 94/100/94 
f 95/101/95 96/102/96 47/108/47 
f 47/108/47 45/107/45 95/101/95 
f 12/109/12 11/110/11 97/111/97 
f 97/111/97 78/112/78 12/109/12 
f 11/110/11 18/113/18 98/114/98 
f 98/114/98 97/111/97 11/110/11 
f 18/113/18 24/115/24 99/116/99 
f 99/116/99 98/114/98 18/113/18 
f 24/115/24 30/117/30 100/118/100 
f 100/118/100 99/116/99 24/115/24 
f 30/117/30 36/119/36 101/120/101 
f 101/120/101 100/118/100 30/117/30 
f 78/112/78 97/111/97 102/121/102 
f 102/121/102 84/122/84 78/112/78 
f 97/111/97 98/114/98 103/123/103 
f 103/123/103 102/121/102 97/111/97 
f 98/114/98 99/116/99 104/124/104 
f 104/124/104 103/123/103 98/114/98 
f 99/116/99 100/118/100 105/125/105 
f 105/125/105 104/124/104 99/116/99 
f 100/118/100 101/120/101 106/126/106 
f 106/126/106 105/125/105 100/118/100 
f 84/122/84 102/121/102 107/127/107 
f 107/127/107 90/128/90 84/122/84 
f 102/121/102 103/123/103 108/129/108 
f 108/129/108 107/127/107 102/121/102 
f 103/123/103 104/124/104 109/130/109 
f 109/130/109 108/129/108 103/123/103 
f 104/124/104 105/125/105 110/131/110 
f 110/131/110 109/130/109 104/124/104 
f 105/125/105 106/126/106 111/132/111 
f 111/132/111 110/131/110 105/125/105 
f 90/128/90 107/127/107 112/133/112 
f 112/133/112 96/134/96 90/128/90 
f 107/127/107 108/129/108 113/135/113 
f 113/135/113 112/133/112 107/127/107 
f 108/129/108 109/130/109 114/136/114 
f 114/136/114 113/135/113 108/129/108 
f 109/130/109 110/131/110 115/137/115 
f 115/137/115 114/136/114 109/130/109 
f 110/131/110 111/132/111 116/138/116 
f 116/138/116 115/137/115 110/131/110 
f 96/134/96 112/133/112 48/139/48 
f 48/139/48 47/140/47 96/134/96 
f 112/133/112 113/135/113 54/141/54 
f 54/141/54 48/139/48 112/133/112 
f 113/135/113 114/136/114 60/142/60 
f 60/142/60 54/141/54 113/135/113 
f 114/136/114 115/137/115 66/143/66 
f 66/143/66 60/142/60 114/136/114 
f 115/137/115 116/138/116 72/144/72 
f 72/144/72 66/143/66 115/137/115 
f 36/145/36 35/146/35 117/147/117 
f 117/147/117 101/148/101 36/145/36 
f 35/146/35 34/149/34 118/150/118 
f 118/150/118 117/147/117 35/146/35 
f 34/149/34 33/151/33 119/152/119 
f 119/152/119 118/150/118 34/149/34 
f 33/151/33 32/153/32 120/154/120 
f 120/154/120 119/152/119 33/151/33 
f 32/153/32 31/155/31 121/156/121 
f 121/156/121 120/154/120 32/153/32 
f 101/148/101 117/147/117 122/157/122 
f 122/157/122 106/158/106 101/148/101 
f 117/147/117 118/150/118 123/159/123 
f 123/159/123 122/157/122 117/147/117 
f 118/150/118 119/152/119 124/160/124 
f 124/160/124 123/159/123 118/150/118 
f 119/152/119 120/154/120 125/161/125 
f 125/161/125 124/160/124 119/152/119 
f 120/154/120 121/156/121 126/162/126 
f 126/162/126 125/161/125 120/154/120 
f 106/158/106 122/157/122 127/163/127 
f 127/163/127 111/164/111 106/158/106 
f 122/157/122 123/159/123 128/165/128 
f 128/165/128 127/163/127 122/157/122 
f 123/159/123 124/160/124 129/166/129 
f 129/166/129 128/165/128 123/159/123 
f 124/160/124 125/161/125 130/167/130 
f 130/167/130 129/166/129 124/160/124 
f 125/161/125 126/162/126 131/168/131 
f 131/168/131 130/167/130 125/161/125 
f 111/164/111 127/163/127 132/169/132 
f 132/169/132 116/170/116 111/164/111 
f 127/163/127 128/165/128 133/171/133 
f 133/171/133 132/169/132 127/163/127 
f 128/165/128 129/166/129 134/172/134 
f 134/172/134 133/171/133 128/165/128 
f 129/166/129 130/167/130 135/173/135 
f 135/173/135 134/172/134 129/166/129 
f 130/167/130 131/168/131 136/174/136 
f 136/174/136 135/173/135 130/167/130 
f 116/170/116 132/169/132 71/175/71 
f 71/175/71 72/176/72 116/170/116 
f 132/169/132 133/171/133 70/177/70 
f 70/177/70 71/175/71 132/169/132 
f 133/171/133 134/172/134 69/178/69 
f 69/178/69 70/177/70 133/171/133 
f 134/172/134 135/173/135 67/179/67 
f 67/179/67 69/178/69 134/172/134 
f 135/173/135 136/174/136 68/180/68 
f 68/180/68 67/179/67 135/173/135 
f 31/181/31 25/182/25 137/183/137 
f 137/183/137 121/184/121 31/181/31 
f 25/182/25 19/185/19 138/186/138 
f 138/186/138 137/183/137 25/182/25 
f 19/185/19 13/187/13 139/188/139 
f 139/188/139 138/186/138 19/185/19 
f 13/187/13 2/189/2 140/190/140 
f 140/190/140 139/188/139 13/187/13 
f 2/189/2 1/191/1 74/192/74 
f 74/192/74 140/190/140 2/189/2 
f 121/184/121 137/183/137 141/193/141 
f 141/193/141 126/194/126 121/184/121 
f 137/183/137 138/186/138 142/195/142 
f 142/195/142 141/193/141 137/183/137 
f 138/186/138 139/188/139 143/196/143 
f 143/196/143 142/195/142 138/186/138 
f 139/188/139 140/190/140 144/197/144 
f 144/197/144 143/196/143 139/188/139 
f 140/190/140 74/192/74 80/198/80 
f 80/198/80 144/197/144 140/190/140 
f 126/194/126 141/193/141 145/199/145 
f 145/199/145 131/200/131 126/194/126 
f 141/193/141 142/195/142 146/201/146 
f 146/201/146 145/199/145 141/193/141 
f 142/195/142 143/196/143 147/202/147 
f 147/202/147 146/201/146 142/195/142 
f 143/196/143 144/197/144 148/203/148 
f 148/203/148 147/202/147 143/196/143 
f 144/197/144 80/198/80 86/204/86 
f 86/204/86 148/203/148 144/197/144 
f 131/200/131 145/199/145 149/205/149 
f 149/205/149 136/206/136 131/200/131 
f 145/199/145 146/201/146 150/207/150 
f 150/207/150 149/205/149 145/199/145 
f 146/201/146 147/202/147 151/208/151 
f 151/208/151 150/207/150 146/201/146 
f 147/202/147 148/203/148 152/209/152 
f 152/209/152 151/208/151 147/202/147 
f 148/203/148 86/204/86 92/210/92 
f 92/210/92 152/209/152 148/203/148 
f 136/206/136 149/205/149 62/211/62 
f 62/211/62 68/212/68 136/206/136 
f 149/205/149 150/207/150 56/213/56 
f 56/213/56 62/211/62 149/205/149 
f 150/207/150 151/208/151 50/214/50 
f 50/214/50 56/213/56 150/207/150 
f 151/208/151 152/209/152 40/215/40 
f 40/215/40 50/214/50 151/208/151 
f 152/209/152 92/210/92 37/216/37 
f 37/216/37 40/215/40 152/209/152 
# 300 faces

