# 3ds Max Wavefront OBJ Exporter v0.97b - (c)2007 guruware
# File Created: 04.09.2017 15:41:03

mtllib Ast2LP.mtl

#
# object rockLP001
#

v  -0.6473 0.3680 0.6479
v  -0.7842 0.1764 0.5084
v  -0.5346 0.1074 0.5395
v  -0.4304 0.3215 0.6798
v  -0.1960 0.0829 0.5728
v  -0.1710 0.2644 0.7727
v  0.1820 0.0682 0.5768
v  0.1310 0.2719 0.7840
v  0.5617 0.0712 0.5764
v  0.4469 0.2524 0.7893
v  0.7305 0.2949 0.4320
v  0.6164 0.3966 0.6514
v  -0.9119 0.0569 0.2307
v  -0.6217 -0.0630 0.2299
v  -0.2375 -0.2397 0.2412
v  0.2612 -0.2423 0.2392
v  0.7176 -0.1626 0.2468
v  0.8538 0.1344 0.1709
v  -0.8323 0.1500 -0.1187
v  -0.5600 0.0611 -0.1704
v  -0.2250 -0.2086 -0.2493
v  0.2624 -0.2778 -0.2598
v  0.6783 -0.1268 -0.2077
v  0.8331 0.1523 -0.1727
v  -0.7539 0.2157 -0.4269
v  -0.5336 0.0759 -0.5317
v  -0.2337 -0.2051 -0.6945
v  0.2049 -0.1335 -0.6622
v  0.5347 0.0774 -0.5347
v  0.7718 0.2225 -0.4584
v  -0.7439 0.2162 -0.7142
v  -0.5163 0.0844 -0.8689
v  -0.1836 -0.0395 -0.9816
v  0.1686 0.0798 -0.8195
v  0.4090 0.2685 -0.6866
v  0.5881 0.3554 -0.5879
v  -0.7625 1.6746 0.7729
v  -0.5473 1.7879 0.8765
v  -0.5644 1.8546 0.5635
v  -0.7615 1.6893 0.5010
v  -0.2099 1.7879 0.8512
v  -0.2550 2.0495 0.6942
v  0.0790 1.7668 0.8076
v  0.1469 1.9924 0.6539
v  0.3587 1.7550 0.7793
v  0.5147 1.9600 0.6145
v  0.6331 1.7461 0.7610
v  0.8207 1.9146 0.5935
v  -0.6379 1.9157 0.2438
v  -0.8142 1.7096 0.2253
v  -0.3249 2.2271 0.3318
v  0.1853 2.3556 0.3473
v  0.6471 2.1790 0.3131
v  0.9276 2.0276 0.2416
v  -0.6167 1.9035 -0.1223
v  -0.8539 1.7438 -0.0900
v  -0.2864 2.0334 -0.1190
v  0.1287 2.0675 -0.1263
v  0.6121 2.1700 -0.1642
v  0.9822 2.0819 -0.1748
v  -0.5562 1.8176 -0.4346
v  -0.7699 1.6692 -0.3356
v  -0.2222 1.8514 -0.4278
v  0.1378 1.9065 -0.4878
v  0.5329 1.9504 -0.5328
v  0.8329 1.8821 -0.4602
v  -0.5296 1.7084 -0.7027
v  -0.7066 1.5998 -0.5555
v  -0.2276 1.7177 -0.7090
v  0.0987 1.7718 -0.7630
v  0.3983 1.7410 -0.7060
v  0.6614 1.6912 -0.6614
v  -0.5175 0.5157 0.8359
v  -0.7788 0.5390 0.7820
v  -0.2081 0.4801 0.9357
v  0.1723 0.4770 0.9849
v  0.4613 0.5342 0.8600
v  0.6400 0.6309 0.7162
v  -0.6013 0.7756 1.0094
v  -0.8347 0.8253 0.8459
v  -0.2364 0.8173 1.0892
v  0.1720 0.8625 1.0753
v  0.4807 0.8694 0.8983
v  0.6738 0.8939 0.7231
v  -0.6473 1.1766 1.0691
v  -0.8410 1.1540 0.8545
v  -0.2344 1.2189 1.0692
v  0.1694 1.2650 1.1141
v  0.5363 1.2400 1.0106
v  0.7393 1.1914 0.8186
v  -0.6104 1.5307 1.0129
v  -0.8147 1.4335 0.8279
v  -0.2303 1.5794 1.0000
v  0.1230 1.5776 0.9519
v  0.4591 1.5540 0.9309
v  0.7778 1.5437 0.9142
v  0.7424 0.5584 0.4838
v  0.9884 0.4235 0.1991
v  1.0634 0.3754 -0.2165
v  0.8726 0.4677 -0.5397
v  0.6452 0.5573 -0.6447
v  0.8564 0.8575 0.5476
v  1.1330 0.7776 0.2688
v  1.0859 0.7824 -0.2068
v  0.9710 0.8006 -0.5890
v  0.7747 0.8287 -0.7742
v  0.9553 1.2204 0.6611
v  1.0336 1.2421 0.2699
v  0.9637 1.2263 -0.1603
v  0.9047 1.1887 -0.5272
v  0.7236 1.1315 -0.7234
v  0.9707 1.6445 0.7000
v  1.0800 1.7070 0.2956
v  1.0211 1.6748 -0.1517
v  0.8652 1.5632 -0.4793
v  0.6910 1.4191 -0.6910
v  0.4525 0.5022 -0.7463
v  0.1975 0.3578 -0.9139
v  -0.2217 0.2328 -1.1564
v  -0.6940 0.2573 -1.1618
v  -0.9659 0.3855 -0.9501
v  0.5297 0.7755 -0.8663
v  0.2103 0.6771 -1.0721
v  -0.2974 0.6216 -1.3925
v  -0.8301 0.6693 -1.3280
v  -1.0796 0.7583 -1.0295
v  0.5274 1.1488 -0.8935
v  0.1915 1.1422 -1.1126
v  -0.3302 1.2061 -1.3459
v  -0.7109 1.2049 -1.0675
v  -0.9290 1.1442 -0.8569
v  0.4544 1.4932 -0.8240
v  0.1094 1.4959 -0.8762
v  -0.3001 1.6036 -1.0484
v  -0.6151 1.4815 -0.8141
v  -0.7745 1.3821 -0.6457
v  -1.0416 0.3436 -0.5800
v  -1.0942 0.2990 -0.1837
v  -1.0894 0.3096 0.2580
v  -0.8691 0.4741 0.5403
v  -1.2842 0.7161 -0.7223
v  -1.5136 0.6726 -0.2743
v  -1.2074 0.7430 0.2667
v  -0.9701 0.8082 0.5943
v  -1.0713 1.1639 -0.5656
v  -1.2550 1.1806 -0.1935
v  -1.0835 1.1670 0.2358
v  -0.9101 1.1606 0.5475
v  -0.8911 1.4577 -0.4140
v  -0.9708 1.4917 -0.1248
v  -0.9877 1.5087 0.2331
v  -0.8670 1.4596 0.5430
# 152 vertices

vn -0.1437 -0.5927 0.7925
vn -0.5220 -0.5586 0.6445
vn -0.2292 -0.6421 0.7315
vn -0.2662 -0.5938 0.7593
vn -0.1117 -0.6941 0.7112
vn -0.2027 -0.6718 0.7124
vn 0.0017 -0.7355 0.6776
vn 0.0410 -0.6737 0.7379
vn 0.4478 -0.5816 0.6791
vn 0.3093 -0.4839 0.8186
vn 0.7760 -0.2427 0.5821
vn 0.7874 -0.2608 0.5586
vn -0.6407 -0.7584 0.1196
vn -0.4284 -0.8929 0.1386
vn -0.2021 -0.9228 0.3281
vn 0.0972 -0.9219 0.3751
vn 0.5882 -0.7502 0.3021
vn 0.8622 -0.4296 0.2686
vn -0.4687 -0.8538 -0.2266
vn -0.5032 -0.8439 -0.1862
vn -0.3386 -0.9351 -0.1043
vn 0.1724 -0.9634 -0.2051
vn 0.5925 -0.7493 -0.2959
vn 0.7937 -0.5663 -0.2221
vn -0.4930 -0.8518 -0.1773
vn -0.5954 -0.7939 -0.1235
vn -0.2697 -0.9042 -0.3311
vn 0.3510 -0.7473 -0.5643
vn 0.5189 -0.4921 -0.6990
vn 0.6578 -0.4506 -0.6036
vn -0.4928 -0.8673 -0.0704
vn -0.4479 -0.8846 -0.1299
vn 0.0751 -0.7798 -0.6215
vn 0.5262 -0.4549 -0.7185
vn 0.5895 -0.3024 -0.7490
vn 0.4704 -0.3103 -0.8261
vn -0.7520 0.5248 0.3989
vn -0.3486 0.6642 0.6613
vn -0.6349 0.7319 0.2476
vn -0.7743 0.6090 0.1719
vn 0.1022 0.5372 0.8372
vn -0.1939 0.7218 0.6644
vn 0.1334 0.5702 0.8106
vn 0.1710 0.5907 0.7886
vn 0.0975 0.6037 0.7912
vn 0.1750 0.6840 0.7082
vn 0.0780 0.6452 0.7600
vn 0.3946 0.7365 0.5495
vn -0.6916 0.7211 0.0426
vn -0.7549 0.6471 0.1069
vn -0.4545 0.8905 0.0236
vn 0.0441 0.9811 0.1886
vn 0.3968 0.8362 0.3787
vn 0.6759 0.6738 0.2985
vn -0.4602 0.8662 -0.1947
vn -0.7562 0.6497 -0.0776
vn -0.2706 0.8716 -0.4088
vn -0.1549 0.8820 -0.4450
vn 0.0868 0.9286 -0.3609
vn 0.7016 0.6444 -0.3040
vn -0.3546 0.8620 -0.3622
vn -0.6873 0.5970 -0.4138
vn -0.1807 0.8735 -0.4520
vn -0.1163 0.8744 -0.4710
vn 0.0797 0.7492 -0.6575
vn 0.6071 0.4387 -0.6626
vn -0.4289 0.7783 -0.4586
vn -0.7603 0.5014 -0.4129
vn -0.0326 0.8855 -0.4634
vn -0.0303 0.6864 -0.7266
vn 0.1822 0.5685 -0.8022
vn 0.4254 0.2825 -0.8598
vn -0.2367 -0.6148 0.7523
vn -0.5832 -0.4733 0.6602
vn -0.2032 -0.5067 0.8378
vn 0.1848 -0.4611 0.8679
vn 0.5042 -0.2403 0.8295
vn 0.7401 -0.2020 0.6414
vn -0.3180 -0.3322 0.8880
vn -0.7625 -0.1794 0.6216
vn -0.1044 -0.2229 0.9692
vn 0.2257 -0.2083 0.9517
vn 0.5692 -0.2386 0.7868
vn 0.6511 -0.2507 0.7164
vn -0.3959 0.0269 0.9179
vn -0.8659 0.0844 0.4930
vn -0.0610 0.1267 0.9901
vn 0.0719 0.1933 0.9785
vn 0.4270 -0.0652 0.9019
vn 0.6289 -0.2835 0.7240
vn -0.3843 0.3507 0.8540
vn -0.8556 0.2186 0.4693
vn 0.0530 0.3991 0.9154
vn 0.0691 0.5159 0.8539
vn 0.1077 0.4863 0.8671
vn 0.4749 0.2110 0.8543
vn 0.7550 -0.2846 0.5907
vn 0.8491 -0.3468 0.3984
vn 0.8886 -0.4165 -0.1922
vn 0.5571 -0.4356 -0.7071
vn 0.3702 -0.4489 -0.8133
vn 0.7319 -0.2613 0.6293
vn 0.9365 -0.1117 0.3325
vn 0.9877 0.0636 -0.1426
vn 0.8308 -0.0133 -0.5564
vn 0.5506 -0.1316 -0.8243
vn 0.8261 -0.2211 0.5184
vn 0.9960 -0.0270 0.0850
vn 0.9762 0.1020 -0.1915
vn 0.8618 0.1996 -0.4664
vn 0.6586 0.2147 -0.7213
vn 0.8037 0.2346 0.5469
vn 0.9798 0.1605 0.1193
vn 0.9571 -0.0042 -0.2898
vn 0.8374 0.0937 -0.5386
vn 0.5936 0.1897 -0.7821
vn 0.5764 -0.3807 -0.7231
vn 0.5919 -0.3397 -0.7309
vn 0.2569 -0.4589 -0.8505
vn -0.3890 -0.6526 -0.6502
vn -0.6778 -0.6121 -0.4074
vn 0.4989 -0.2840 -0.8188
vn 0.5509 -0.2220 -0.8045
vn 0.1457 -0.1641 -0.9756
vn -0.4809 -0.0184 -0.8766
vn -0.7807 0.1196 -0.6134
vn 0.5290 0.1951 -0.8259
vn 0.4769 0.2471 -0.8435
vn -0.0936 0.3347 -0.9377
vn -0.5504 0.5363 -0.6399
vn -0.6695 0.5786 -0.4659
vn 0.3652 0.3464 -0.8641
vn 0.2579 0.5260 -0.8104
vn -0.0731 0.7559 -0.6506
vn -0.6723 0.5437 -0.5024
vn -0.6476 0.6150 -0.4500
vn -0.5693 -0.7975 -0.1995
vn -0.6186 -0.7856 -0.0153
vn -0.8186 -0.4742 0.3243
vn -0.7751 -0.3190 0.5453
vn -0.8799 -0.0280 -0.4744
vn -0.9859 -0.1675 -0.0008
vn -0.8742 -0.0531 0.4826
vn -0.8519 -0.0690 0.5191
vn -0.7288 0.5677 -0.3828
vn -0.8437 0.5345 -0.0503
vn -0.8683 0.2658 0.4189
vn -0.9147 0.1771 0.3632
vn -0.7050 0.5894 -0.3944
vn -0.7977 0.5815 -0.1597
vn -0.8444 0.4982 0.1969
vn -0.9168 0.2838 0.2811
# 152 vertex normals

vt 0.6438 0.3033 0.0000
vt 0.6031 0.3164 0.0000
vt 0.6069 0.2758 0.0000
vt 0.6485 0.2673 0.0000
vt 0.6172 0.2229 0.0000
vt 0.6583 0.2207 0.0000
vt 0.6174 0.1626 0.0000
vt 0.6615 0.1670 0.0000
vt 0.6083 0.1027 0.0000
vt 0.6528 0.1120 0.0000
vt 0.6053 0.0529 0.0000
vt 0.6454 0.0690 0.0000
vt 0.5542 0.3336 0.0000
vt 0.5514 0.2858 0.0000
vt 0.5490 0.2253 0.0000
vt 0.5496 0.1550 0.0000
vt 0.5486 0.0908 0.0000
vt 0.5474 0.0440 0.0000
vt 0.4949 0.3316 0.0000
vt 0.4862 0.2890 0.0000
vt 0.4779 0.2253 0.0000
vt 0.4782 0.1545 0.0000
vt 0.4858 0.0913 0.0000
vt 0.4842 0.0440 0.0000
vt 0.4432 0.3238 0.0000
vt 0.4307 0.2830 0.0000
vt 0.4140 0.2212 0.0000
vt 0.4177 0.1583 0.0000
vt 0.4265 0.0972 0.0000
vt 0.4343 0.0533 0.0000
vt 0.3980 0.3165 0.0000
vt 0.3794 0.2731 0.0000
vt 0.3662 0.2166 0.0000
vt 0.3793 0.1532 0.0000
vt 0.3845 0.1005 0.0000
vt 0.3953 0.0674 0.0000
vt 0.3845 0.3701 0.0000
vt 0.4251 0.3621 0.0000
vt 0.4167 0.4107 0.0000
vt 0.3757 0.4131 0.0000
vt 0.4782 0.3603 0.0000
vt 0.4741 0.4035 0.0000
vt 0.5311 0.3606 0.0000
vt 0.5361 0.4021 0.0000
vt 0.5784 0.3720 0.0000
vt 0.5918 0.4169 0.0000
vt 0.6204 0.3859 0.0000
vt 0.6378 0.4290 0.0000
vt 0.4023 0.4642 0.0000
vt 0.3622 0.4601 0.0000
vt 0.4647 0.4605 0.0000
vt 0.5331 0.4674 0.0000
vt 0.5979 0.4755 0.0000
vt 0.6442 0.4867 0.0000
vt 0.3991 0.5236 0.0000
vt 0.3558 0.5158 0.0000
vt 0.4518 0.5307 0.0000
vt 0.5142 0.5417 0.0000
vt 0.5875 0.5434 0.0000
vt 0.6443 0.5505 0.0000
vt 0.4018 0.5761 0.0000
vt 0.3607 0.5621 0.0000
vt 0.4536 0.5849 0.0000
vt 0.5102 0.5990 0.0000
vt 0.5720 0.6044 0.0000
vt 0.6207 0.6022 0.0000
vt 0.3987 0.6216 0.0000
vt 0.3645 0.6005 0.0000
vt 0.4463 0.6319 0.0000
vt 0.5005 0.6443 0.0000
vt 0.5509 0.6442 0.0000
vt 0.5950 0.6449 0.0000
vt 0.0718 0.6733 0.0000
vt 0.1056 0.6657 0.0000
vt 0.0977 0.7047 0.0000
vt 0.0575 0.7090 0.0000
vt 0.1515 0.6627 0.0000
vt 0.1480 0.7032 0.0000
vt 0.2023 0.6647 0.0000
vt 0.2062 0.7061 0.0000
vt 0.2523 0.6667 0.0000
vt 0.2540 0.7099 0.0000
vt 0.2888 0.6831 0.0000
vt 0.2903 0.7205 0.0000
vt 0.0910 0.7524 0.0000
vt 0.0488 0.7548 0.0000
vt 0.1454 0.7580 0.0000
vt 0.2056 0.7638 0.0000
vt 0.2587 0.7615 0.0000
vt 0.2980 0.7617 0.0000
vt 0.0860 0.8117 0.0000
vt 0.0440 0.8089 0.0000
vt 0.1460 0.8178 0.0000
vt 0.2046 0.8228 0.0000
vt 0.2591 0.8207 0.0000
vt 0.2981 0.8123 0.0000
vt 0.0903 0.8637 0.0000
vt 0.0481 0.8559 0.0000
vt 0.1463 0.8726 0.0000
vt 0.1996 0.8745 0.0000
vt 0.2507 0.8692 0.0000
vt 0.2976 0.8665 0.0000
vt 0.0955 0.9069 0.0000
vt 0.0564 0.8946 0.0000
vt 0.1489 0.9108 0.0000
vt 0.1949 0.9103 0.0000
vt 0.2380 0.9083 0.0000
vt 0.2792 0.9060 0.0000
vt 0.9266 0.3823 0.0000
vt 0.9377 0.4227 0.0000
vt 0.8982 0.4101 0.0000
vt 0.8895 0.3710 0.0000
vt 0.9560 0.4726 0.0000
vt 0.9081 0.4702 0.0000
vt 0.9555 0.5305 0.0000
vt 0.9095 0.5321 0.0000
vt 0.9434 0.5795 0.0000
vt 0.9016 0.5874 0.0000
vt 0.9339 0.6196 0.0000
vt 0.9002 0.6272 0.0000
vt 0.8475 0.4084 0.0000
vt 0.8467 0.3695 0.0000
vt 0.8531 0.4649 0.0000
vt 0.8524 0.5337 0.0000
vt 0.8497 0.5921 0.0000
vt 0.8474 0.6319 0.0000
vt 0.7894 0.4044 0.0000
vt 0.7955 0.3641 0.0000
vt 0.7864 0.4647 0.0000
vt 0.7859 0.5324 0.0000
vt 0.7902 0.5896 0.0000
vt 0.7963 0.6313 0.0000
vt 0.7270 0.4037 0.0000
vt 0.7366 0.3603 0.0000
vt 0.7184 0.4638 0.0000
vt 0.7200 0.5291 0.0000
vt 0.7330 0.5839 0.0000
vt 0.7497 0.6281 0.0000
vt 0.6793 0.4121 0.0000
vt 0.6908 0.3672 0.0000
vt 0.6660 0.4689 0.0000
vt 0.6583 0.5297 0.0000
vt 0.6840 0.5787 0.0000
vt 0.7069 0.6220 0.0000
vt 0.0718 0.0763 0.0000
vt 0.1056 0.0704 0.0000
vt 0.0947 0.1086 0.0000
vt 0.0605 0.1106 0.0000
vt 0.1530 0.0509 0.0000
vt 0.1438 0.0965 0.0000
vt 0.2174 0.0440 0.0000
vt 0.2196 0.0918 0.0000
vt 0.2786 0.0531 0.0000
vt 0.2883 0.1077 0.0000
vt 0.3299 0.0587 0.0000
vt 0.3433 0.1178 0.0000
vt 0.0846 0.1592 0.0000
vt 0.0441 0.1640 0.0000
vt 0.1414 0.1514 0.0000
vt 0.2270 0.1549 0.0000
vt 0.2985 0.1692 0.0000
vt 0.3522 0.1870 0.0000
vt 0.0832 0.2222 0.0000
vt 0.0440 0.2182 0.0000
vt 0.1407 0.2238 0.0000
vt 0.2220 0.2323 0.0000
vt 0.2844 0.2531 0.0000
vt 0.3310 0.2602 0.0000
vt 0.0894 0.2809 0.0000
vt 0.0469 0.2686 0.0000
vt 0.1426 0.2919 0.0000
vt 0.2114 0.2976 0.0000
vt 0.2729 0.3090 0.0000
vt 0.3130 0.3116 0.0000
vt 0.0905 0.3258 0.0000
vt 0.0491 0.3130 0.0000
vt 0.1416 0.3373 0.0000
vt 0.2004 0.3463 0.0000
vt 0.2549 0.3451 0.0000
vt 0.2976 0.3457 0.0000
vt 0.0809 0.3704 0.0000
vt 0.1259 0.3606 0.0000
vt 0.1115 0.4112 0.0000
vt 0.0538 0.4202 0.0000
vt 0.1803 0.3603 0.0000
vt 0.1734 0.4040 0.0000
vt 0.2400 0.3657 0.0000
vt 0.2387 0.4120 0.0000
vt 0.2891 0.3802 0.0000
vt 0.2954 0.4287 0.0000
vt 0.3252 0.3988 0.0000
vt 0.3345 0.4373 0.0000
vt 0.0964 0.4781 0.0000
vt 0.0440 0.4820 0.0000
vt 0.1588 0.4757 0.0000
vt 0.2404 0.4802 0.0000
vt 0.2986 0.4872 0.0000
vt 0.3418 0.4883 0.0000
vt 0.1088 0.5537 0.0000
vt 0.0592 0.5514 0.0000
vt 0.1711 0.5480 0.0000
vt 0.2400 0.5493 0.0000
vt 0.2933 0.5468 0.0000
vt 0.3414 0.5450 0.0000
vt 0.1257 0.6058 0.0000
vt 0.0827 0.5994 0.0000
vt 0.1768 0.6068 0.0000
vt 0.2354 0.6025 0.0000
vt 0.2890 0.5960 0.0000
vt 0.3349 0.5921 0.0000
vt 0.1334 0.6435 0.0000
vt 0.0948 0.6343 0.0000
vt 0.1813 0.6487 0.0000
vt 0.2373 0.6425 0.0000
vt 0.2841 0.6363 0.0000
vt 0.3266 0.6315 0.0000
# 216 texture coords

o rockLP001
g rockLP001
usemtl wire_115115115
s 1
f 1/1/1 2/2/2 3/3/3 
f 3/3/3 4/4/4 1/1/1 
f 4/4/4 3/3/3 5/5/5 
f 5/5/5 6/6/6 4/4/4 
f 6/6/6 5/5/5 7/7/7 
f 7/7/7 8/8/8 6/6/6 
f 8/8/8 7/7/7 9/9/9 
f 9/9/9 10/10/10 8/8/8 
f 10/10/10 9/9/9 11/11/11 
f 11/11/11 12/12/12 10/10/10 
f 2/2/2 13/13/13 14/14/14 
f 14/14/14 3/3/3 2/2/2 
f 3/3/3 14/14/14 15/15/15 
f 15/15/15 5/5/5 3/3/3 
f 5/5/5 15/15/15 16/16/16 
f 16/16/16 7/7/7 5/5/5 
f 7/7/7 16/16/16 17/17/17 
f 17/17/17 9/9/9 7/7/7 
f 9/9/9 17/17/17 18/18/18 
f 18/18/18 11/11/11 9/9/9 
f 13/13/13 19/19/19 20/20/20 
f 20/20/20 14/14/14 13/13/13 
f 14/14/14 20/20/20 21/21/21 
f 21/21/21 15/15/15 14/14/14 
f 15/15/15 21/21/21 22/22/22 
f 22/22/22 16/16/16 15/15/15 
f 16/16/16 22/22/22 23/23/23 
f 23/23/23 17/17/17 16/16/16 
f 17/17/17 23/23/23 24/24/24 
f 24/24/24 18/18/18 17/17/17 
f 19/19/19 25/25/25 26/26/26 
f 26/26/26 20/20/20 19/19/19 
f 20/20/20 26/26/26 27/27/27 
f 27/27/27 21/21/21 20/20/20 
f 21/21/21 27/27/27 28/28/28 
f 28/28/28 22/22/22 21/21/21 
f 22/22/22 28/28/28 29/29/29 
f 29/29/29 23/23/23 22/22/22 
f 23/23/23 29/29/29 30/30/30 
f 30/30/30 24/24/24 23/23/23 
f 25/25/25 31/31/31 32/32/32 
f 32/32/32 26/26/26 25/25/25 
f 26/26/26 32/32/32 33/33/33 
f 33/33/33 27/27/27 26/26/26 
f 27/27/27 33/33/33 34/34/34 
f 34/34/34 28/28/28 27/27/27 
f 28/28/28 34/34/34 35/35/35 
f 35/35/35 29/29/29 28/28/28 
f 29/29/29 35/35/35 36/36/36 
f 36/36/36 30/30/30 29/29/29 
f 37/37/37 38/38/38 39/39/39 
f 39/39/39 40/40/40 37/37/37 
f 38/38/38 41/41/41 42/42/42 
f 42/42/42 39/39/39 38/38/38 
f 41/41/41 43/43/43 44/44/44 
f 44/44/44 42/42/42 41/41/41 
f 43/43/43 45/45/45 46/46/46 
f 46/46/46 44/44/44 43/43/43 
f 45/45/45 47/47/47 48/48/48 
f 48/48/48 46/46/46 45/45/45 
f 40/40/40 39/39/39 49/49/49 
f 49/49/49 50/50/50 40/40/40 
f 39/39/39 42/42/42 51/51/51 
f 51/51/51 49/49/49 39/39/39 
f 42/42/42 44/44/44 52/52/52 
f 52/52/52 51/51/51 42/42/42 
f 44/44/44 46/46/46 53/53/53 
f 53/53/53 52/52/52 44/44/44 
f 46/46/46 48/48/48 54/54/54 
f 54/54/54 53/53/53 46/46/46 
f 50/50/50 49/49/49 55/55/55 
f 55/55/55 56/56/56 50/50/50 
f 49/49/49 51/51/51 57/57/57 
f 57/57/57 55/55/55 49/49/49 
f 51/51/51 52/52/52 58/58/58 
f 58/58/58 57/57/57 51/51/51 
f 52/52/52 53/53/53 59/59/59 
f 59/59/59 58/58/58 52/52/52 
f 53/53/53 54/54/54 60/60/60 
f 60/60/60 59/59/59 53/53/53 
f 56/56/56 55/55/55 61/61/61 
f 61/61/61 62/62/62 56/56/56 
f 55/55/55 57/57/57 63/63/63 
f 63/63/63 61/61/61 55/55/55 
f 57/57/57 58/58/58 64/64/64 
f 64/64/64 63/63/63 57/57/57 
f 58/58/58 59/59/59 65/65/65 
f 65/65/65 64/64/64 58/58/58 
f 59/59/59 60/60/60 66/66/66 
f 66/66/66 65/65/65 59/59/59 
f 62/62/62 61/61/61 67/67/67 
f 67/67/67 68/68/68 62/62/62 
f 61/61/61 63/63/63 69/69/69 
f 69/69/69 67/67/67 61/61/61 
f 63/63/63 64/64/64 70/70/70 
f 70/70/70 69/69/69 63/63/63 
f 64/64/64 65/65/65 71/71/71 
f 71/71/71 70/70/70 64/64/64 
f 65/65/65 66/66/66 72/72/72 
f 72/72/72 71/71/71 65/65/65 
f 1/73/1 4/74/4 73/75/73 
f 73/75/73 74/76/74 1/73/1 
f 4/74/4 6/77/6 75/78/75 
f 75/78/75 73/75/73 4/74/4 
f 6/77/6 8/79/8 76/80/76 
f 76/80/76 75/78/75 6/77/6 
f 8/79/8 10/81/10 77/82/77 
f 77/82/77 76/80/76 8/79/8 
f 10/81/10 12/83/12 78/84/78 
f 78/84/78 77/82/77 10/81/10 
f 74/76/74 73/75/73 79/85/79 
f 79/85/79 80/86/80 74/76/74 
f 73/75/73 75/78/75 81/87/81 
f 81/87/81 79/85/79 73/75/73 
f 75/78/75 76/80/76 82/88/82 
f 82/88/82 81/87/81 75/78/75 
f 76/80/76 77/82/77 83/89/83 
f 83/89/83 82/88/82 76/80/76 
f 77/82/77 78/84/78 84/90/84 
f 84/90/84 83/89/83 77/82/77 
f 80/86/80 79/85/79 85/91/85 
f 85/91/85 86/92/86 80/86/80 
f 79/85/79 81/87/81 87/93/87 
f 87/93/87 85/91/85 79/85/79 
f 81/87/81 82/88/82 88/94/88 
f 88/94/88 87/93/87 81/87/81 
f 82/88/82 83/89/83 89/95/89 
f 89/95/89 88/94/88 82/88/82 
f 83/89/83 84/90/84 90/96/90 
f 90/96/90 89/95/89 83/89/83 
f 86/92/86 85/91/85 91/97/91 
f 91/97/91 92/98/92 86/92/86 
f 85/91/85 87/93/87 93/99/93 
f 93/99/93 91/97/91 85/91/85 
f 87/93/87 88/94/88 94/100/94 
f 94/100/94 93/99/93 87/93/87 
f 88/94/88 89/95/89 95/101/95 
f 95/101/95 94/100/94 88/94/88 
f 89/95/89 90/96/90 96/102/96 
f 96/102/96 95/101/95 89/95/89 
f 92/98/92 91/97/91 38/103/38 
f 38/103/38 37/104/37 92/98/92 
f 91/97/91 93/99/93 41/105/41 
f 41/105/41 38/103/38 91/97/91 
f 93/99/93 94/100/94 43/106/43 
f 43/106/43 41/105/41 93/99/93 
f 94/100/94 95/101/95 45/107/45 
f 45/107/45 43/106/43 94/100/94 
f 95/101/95 96/102/96 47/108/47 
f 47/108/47 45/107/45 95/101/95 
f 12/109/12 11/110/11 97/111/97 
f 97/111/97 78/112/78 12/109/12 
f 11/110/11 18/113/18 98/114/98 
f 98/114/98 97/111/97 11/110/11 
f 18/113/18 24/115/24 99/116/99 
f 99/116/99 98/114/98 18/113/18 
f 24/115/24 30/117/30 100/118/100 
f 100/118/100 99/116/99 24/115/24 
f 30/117/30 36/119/36 101/120/101 
f 101/120/101 100/118/100 30/117/30 
f 78/112/78 97/111/97 102/121/102 
f 102/121/102 84/122/84 78/112/78 
f 97/111/97 98/114/98 103/123/103 
f 103/123/103 102/121/102 97/111/97 
f 98/114/98 99/116/99 104/124/104 
f 104/124/104 103/123/103 98/114/98 
f 99/116/99 100/118/100 105/125/105 
f 105/125/105 104/124/104 99/116/99 
f 100/118/100 101/120/101 106/126/106 
f 106/126/106 105/125/105 100/118/100 
f 84/122/84 102/121/102 107/127/107 
f 107/127/107 90/128/90 84/122/84 
f 102/121/102 103/123/103 108/129/108 
f 108/129/108 107/127/107 102/121/102 
f 103/123/103 104/124/104 109/130/109 
f 109/130/109 108/129/108 103/123/103 
f 104/124/104 105/125/105 110/131/110 
f 110/131/110 109/130/109 104/124/104 
f 105/125/105 106/126/106 111/132/111 
f 111/132/111 110/131/110 105/125/105 
f 90/128/90 107/127/107 112/133/112 
f 112/133/112 96/134/96 90/128/90 
f 107/127/107 108/129/108 113/135/113 
f 113/135/113 112/133/112 107/127/107 
f 108/129/108 109/130/109 114/136/114 
f 114/136/114 113/135/113 108/129/108 
f 109/130/109 110/131/110 115/137/115 
f 115/137/115 114/136/114 109/130/109 
f 110/131/110 111/132/111 116/138/116 
f 116/138/116 115/137/115 110/131/110 
f 96/134/96 112/133/112 48/139/48 
f 48/139/48 47/140/47 96/134/96 
f 112/133/112 113/135/113 54/141/54 
f 54/141/54 48/139/48 112/133/112 
f 113/135/113 114/136/114 60/142/60 
f 60/142/60 54/141/54 113/135/113 
f 114/136/114 115/137/115 66/143/66 
f 66/143/66 60/142/60 114/136/114 
f 115/137/115 116/138/116 72/144/72 
f 72/144/72 66/143/66 115/137/115 
f 36/145/36 35/146/35 117/147/117 
f 117/147/117 101/148/101 36/145/36 
f 35/146/35 34/149/34 118/150/118 
f 118/150/118 117/147/117 35/146/35 
f 34/149/34 33/151/33 119/152/119 
f 119/152/119 118/150/118 34/149/34 
f 33/151/33 32/153/32 120/154/120 
f 120/154/120 119/152/119 33/151/33 
f 32/153/32 31/155/31 121/156/121 
f 121/156/121 120/154/120 32/153/32 
f 101/148/101 117/147/117 122/157/122 
f 122/157/122 106/158/106 101/148/101 
f 117/147/117 118/150/118 123/159/123 
f 123/159/123 122/157/122 117/147/117 
f 118/150/118 119/152/119 124/160/124 
f 124/160/124 123/159/123 118/150/118 
f 119/152/119 120/154/120 125/161/125 
f 125/161/125 124/160/124 119/152/119 
f 120/154/120 121/156/121 126/162/126 
f 126/162/126 125/161/125 120/154/120 
f 106/158/106 122/157/122 127/163/127 
f 127/163/127 111/164/111 106/158/106 
f 122/157/122 123/159/123 128/165/128 
f 128/165/128 127/163/127 122/157/122 
f 123/159/123 124/160/124 129/166/129 
f 129/166/129 128/165/128 123/159/123 
f 124/160/124 125/161/125 130/167/130 
f 130/167/130 129/166/129 124/160/124 
f 125/161/125 126/162/126 131/168/131 
f 131/168/131 130/167/130 125/161/125 
f 111/164/111 127/163/127 132/169/132 
f 132/169/132 116/170/116 111/164/111 
f 127/163/127 128/165/128 133/171/133 
f 133/171/133 132/169/132 127/163/127 
f 128/165/128 129/166/129 134/172/134 
f 134/172/134 133/171/133 128/165/128 
f 129/166/129 130/167/130 135/173/135 
f 135/173/135 134/172/134 129/166/129 
f 130/167/130 131/168/131 136/174/136 
f 136/174/136 135/173/135 130/167/130 
f 116/170/116 132/169/132 71/175/71 
f 71/175/71 72/176/72 116/170/116 
f 132/169/132 133/171/133 70/177/70 
f 70/177/70 71/175/71 132/169/132 
f 133/171/133 134/172/134 69/178/69 
f 69/178/69 70/177/70 133/171/133 
f 134/172/134 135/173/135 67/179/67 
f 67/179/67 69/178/69 134/172/134 
f 135/173/135 136/174/136 68/180/68 
f 68/180/68 67/179/67 135/173/135 
f 31/181/31 25/182/25 137/183/137 
f 137/183/137 121/184/121 31/181/31 
f 25/182/25 19/185/19 138/186/138 
f 138/186/138 137/183/137 25/182/25 
f 19/185/19 13/187/13 139/188/139 
f 139/188/139 138/186/138 19/185/19 
f 13/187/13 2/189/2 140/190/140 
f 140/190/140 139/188/139 13/187/13 
f 2/189/2 1/191/1 74/192/74 
f 74/192/74 140/190/140 2/189/2 
f 121/184/121 137/183/137 141/193/141 
f 141/193/141 126/194/126 121/184/121 
f 137/183/137 138/186/138 142/195/142 
f 142/195/142 141/193/141 137/183/137 
f 138/186/138 139/188/139 143/196/143 
f 143/196/143 142/195/142 138/186/138 
f 139/188/139 140/190/140 144/197/144 
f 144/197/144 143/196/143 139/188/139 
f 140/190/140 74/192/74 80/198/80 
f 80/198/80 144/197/144 140/190/140 
f 126/194/126 141/193/141 145/199/145 
f 145/199/145 131/200/131 126/194/126 
f 141/193/141 142/195/142 146/201/146 
f 146/201/146 145/199/145 141/193/141 
f 142/195/142 143/196/143 147/202/147 
f 147/202/147 146/201/146 142/195/142 
f 143/196/143 144/197/144 148/203/148 
f 148/203/148 147/202/147 143/196/143 
f 144/197/144 80/198/80 86/204/86 
f 86/204/86 148/203/148 144/197/144 
f 131/200/131 145/199/145 149/205/149 
f 149/205/149 136/206/136 131/200/131 
f 145/199/145 146/201/146 150/207/150 
f 150/207/150 149/205/149 145/199/145 
f 146/201/146 147/202/147 151/208/151 
f 151/208/151 150/207/150 146/201/146 
f 147/202/147 148/203/148 152/209/152 
f 152/209/152 151/208/151 147/202/147 
f 148/203/148 86/204/86 92/210/92 
f 92/210/92 152/209/152 148/203/148 
f 136/206/136 149/205/149 62/211/62 
f 62/211/62 68/212/68 136/206/136 
f 149/205/149 150/207/150 56/213/56 
f 56/213/56 62/211/62 149/205/149 
f 150/207/150 151/208/151 50/214/50 
f 50/214/50 56/213/56 150/207/150 
f 151/208/151 152/209/152 40/215/40 
f 40/215/40 50/214/50 151/208/151 
f 152/209/152 92/210/92 37/216/37 
f 37/216/37 40/215/40 152/209/152 
# 300 faces

