# 3ds Max Wavefront OBJ Exporter v0.97b - (c)2007 guruware
# File Created: 28.08.2017 20:20:22

mtllib Asteroid2LP.mtl

#
# object rockLP001
#

v  -0.6171 0.4044 0.6177
v  -0.6699 0.3098 0.4299
v  -0.4999 0.1581 0.5017
v  -0.4575 0.2682 0.7227
v  -0.2470 -0.0588 0.6469
v  -0.1953 0.2092 0.8231
v  0.1899 -0.0542 0.6410
v  0.1315 0.2328 0.8304
v  0.5877 0.0082 0.6177
v  0.4768 0.1728 0.8784
v  0.7864 0.2604 0.4611
v  0.7299 0.2965 0.7455
v  -0.8369 0.1448 0.2064
v  -0.6054 -0.0272 0.2239
v  -0.2789 -0.3804 0.2804
v  0.2759 -0.3747 0.2537
v  0.6987 -0.1365 0.2442
v  0.8490 0.1390 0.1699
v  -0.9274 0.0336 -0.1413
v  -0.6194 -0.0380 -0.1841
v  -0.2222 -0.1366 -0.2428
v  0.2493 -0.1965 -0.2484
v  0.5909 0.0136 -0.1885
v  0.8704 0.1260 -0.1844
v  -0.7851 0.1872 -0.4395
v  -0.5130 0.1317 -0.5145
v  -0.1829 0.0502 -0.5486
v  0.2034 -0.0920 -0.6407
v  0.5561 0.0437 -0.5561
v  0.8418 0.1579 -0.5089
v  -0.6902 0.2771 -0.6580
v  -0.4495 0.1977 -0.7528
v  -0.1636 0.1395 -0.7923
v  0.1793 0.0311 -0.8820
v  0.4614 0.1850 -0.7669
v  0.7223 0.2483 -0.7223
v  -0.8081 1.7355 0.8122
v  -0.6223 1.9043 0.9833
v  -0.6073 1.9333 0.6070
v  -0.8510 1.7809 0.5367
v  -0.2538 2.0296 1.0905
v  -0.2575 2.0537 0.6930
v  0.1026 1.8709 0.8876
v  0.1492 2.0103 0.6680
v  0.3373 1.7232 0.7541
v  0.4091 1.8119 0.5286
v  0.5131 1.6092 0.6558
v  0.6145 1.6865 0.4633
v  -0.6910 2.0003 0.2589
v  -0.9441 1.8204 0.2367
v  -0.2834 2.0667 0.2857
v  0.1428 2.0774 0.3018
v  0.4942 1.9482 0.2459
v  0.7311 1.8098 0.2378
v  -0.7812 2.1248 -0.1655
v  -0.9914 1.8746 -0.1169
v  -0.2991 2.0695 -0.1371
v  0.1211 1.9585 -0.1203
v  0.4662 1.8910 -0.1307
v  0.7446 1.8084 -0.0889
v  -0.7273 2.0557 -0.6021
v  -1.0537 1.9558 -0.5417
v  -0.2619 1.9655 -0.5214
v  0.1323 1.8917 -0.4774
v  0.4131 1.7909 -0.4126
v  0.6587 1.7193 -0.3706
v  -0.6395 1.9383 -0.9336
v  -1.0107 1.9199 -0.8908
v  -0.2460 1.8588 -0.8302
v  0.0957 1.7651 -0.7536
v  0.3746 1.7013 -0.6633
v  0.6066 1.6284 -0.6066
v  -0.5534 0.4652 0.8962
v  -0.7238 0.5753 0.7239
v  -0.2345 0.4109 1.0362
v  0.1761 0.4530 1.0289
v  0.5643 0.4703 1.0027
v  0.8182 0.5252 0.8597
v  -0.6392 0.7660 1.0585
v  -0.8746 0.8311 0.8780
v  -0.2661 0.8043 1.2151
v  0.1987 0.8442 1.2432
v  0.5315 0.8592 0.9728
v  0.7665 0.8771 0.8012
v  -0.7688 1.2403 1.2769
v  -0.9370 1.1889 0.9408
v  -0.3056 1.3208 1.4671
v  0.1828 1.2792 1.1715
v  0.4715 1.2076 0.9307
v  0.7025 1.1878 0.7784
v  -0.7048 1.6349 1.1687
v  -0.8753 1.4904 0.8804
v  -0.3618 1.8095 1.3751
v  0.1527 1.6796 1.1085
v  0.4212 1.5235 0.8821
v  0.5939 1.4464 0.7270
v  0.8774 0.4945 0.5353
v  1.0435 0.4013 0.2034
v  1.1478 0.3250 -0.2297
v  1.1350 0.3023 -0.6875
v  0.8791 0.4795 -0.8788
v  0.9563 0.8161 0.6093
v  1.1186 0.7860 0.2632
v  1.2111 0.7540 -0.2420
v  1.2298 0.7364 -0.7336
v  0.8975 0.8225 -0.8972
v  0.9519 1.2236 0.6590
v  1.0397 1.2445 0.2711
v  1.1789 1.2774 -0.1914
v  1.1334 1.2284 -0.6544
v  0.8024 1.1595 -0.8023
v  0.7310 1.5198 0.5517
v  0.9466 1.6340 0.2847
v  1.0463 1.6912 -0.1626
v  0.9087 1.5886 -0.5048
v  0.7757 1.4996 -0.7757
v  0.5638 0.4085 -0.8959
v  0.2124 0.2816 -1.0309
v  -0.2178 0.2759 -1.1012
v  -0.5642 0.3817 -0.9413
v  -0.8406 0.4491 -0.8102
v  0.6387 0.7346 -1.0632
v  0.2828 0.6276 -1.3934
v  -0.2949 0.6339 -1.3740
v  -0.7448 0.7271 -1.1623
v  -1.0178 0.7728 -0.9700
v  0.5588 1.1625 -0.9555
v  0.2269 1.1857 -1.2923
v  -0.3577 1.2518 -1.5428
v  -0.8686 1.2278 -1.3129
v  -1.1616 1.1872 -1.0786
v  0.5023 1.5448 -0.9114
v  0.1546 1.5879 -1.0559
v  -0.3198 1.7118 -1.2165
v  -0.8186 1.7089 -1.1713
v  -1.1962 1.6276 -1.0776
v  -1.0237 0.3526 -0.5715
v  -1.0853 0.3017 -0.1803
v  -0.9710 0.3980 0.2204
v  -0.8382 0.5009 0.5288
v  -1.2543 0.7310 -0.7034
v  -1.3589 0.7081 -0.2344
v  -1.1551 0.7522 0.2536
v  -1.0143 0.8137 0.6135
v  -1.3920 1.2491 -0.7769
v  -1.2658 1.1855 -0.2002
v  -1.0468 1.1606 0.2334
v  -0.9572 1.1758 0.5834
v  -1.2264 1.6662 -0.6455
v  -1.0911 1.5548 -0.1506
v  -0.9618 1.4912 0.2300
v  -0.8930 1.4771 0.5553
# 152 vertices

vn -0.6679 -0.6185 0.4141
vn -0.5207 -0.5960 0.6112
vn -0.6954 -0.5211 0.4948
vn -0.6000 -0.6110 0.5165
vn -0.3339 -0.6298 0.7014
vn -0.1671 -0.6244 0.7630
vn 0.1152 -0.6749 0.7289
vn 0.0017 -0.6171 0.7869
vn 0.5002 -0.6655 0.5540
vn 0.1448 -0.6665 0.7313
vn 0.7917 -0.4813 0.3763
vn 0.6892 -0.6298 0.3584
vn -0.6136 -0.6373 0.4663
vn -0.6272 -0.7251 0.2845
vn -0.3841 -0.9102 0.1548
vn 0.2645 -0.9513 0.1581
vn 0.6514 -0.7476 0.1297
vn 0.8042 -0.5385 0.2515
vn -0.5975 -0.7994 -0.0628
vn -0.2959 -0.9330 -0.2049
vn -0.2882 -0.8708 -0.3982
vn 0.2232 -0.9275 -0.2999
vn 0.4440 -0.8612 -0.2473
vn 0.5246 -0.8476 -0.0799
vn -0.4054 -0.7895 -0.4609
vn -0.2664 -0.8684 -0.4183
vn -0.3283 -0.8357 -0.4401
vn 0.0711 -0.9008 -0.4283
vn 0.4124 -0.8240 -0.3885
vn 0.3499 -0.8805 -0.3198
vn -0.3981 -0.7759 -0.4893
vn -0.2973 -0.8363 -0.4607
vn -0.3335 -0.8725 -0.3570
vn 0.1437 -0.7867 -0.6004
vn 0.4133 -0.6376 -0.6501
vn 0.3453 -0.6861 -0.6403
vn -0.8387 0.4795 0.2580
vn -0.5719 0.7438 0.3461
vn -0.4451 0.8828 0.1500
vn -0.8261 0.5000 0.2601
vn 0.0725 0.8813 0.4669
vn -0.1303 0.9890 0.0695
vn 0.5941 0.6311 0.4988
vn 0.4465 0.8256 0.3450
vn 0.6489 0.6080 0.4575
vn 0.6074 0.6291 0.4851
vn 0.6478 0.5481 0.5291
vn 0.5311 0.6164 0.5813
vn -0.3446 0.9031 0.2564
vn -0.8443 0.4422 0.3026
vn -0.0826 0.9965 0.0112
vn 0.1676 0.9849 -0.0446
vn 0.4443 0.8843 0.1434
vn 0.5436 0.7870 0.2918
vn -0.3612 0.9323 0.0207
vn -0.8302 0.5314 0.1685
vn 0.1417 0.9870 -0.0764
vn 0.2064 0.9553 -0.2116
vn 0.2606 0.9218 -0.2868
vn 0.3807 0.9126 -0.1492
vn -0.1075 0.9698 -0.2190
vn -0.6005 0.7984 0.0451
vn 0.2182 0.9369 -0.2732
vn 0.2971 0.9057 -0.3024
vn 0.3261 0.8818 -0.3407
vn 0.2885 0.8782 -0.3813
vn 0.0398 0.8932 -0.4479
vn -0.4096 0.8389 -0.3585
vn 0.2973 0.8902 -0.3453
vn 0.3026 0.8602 -0.4105
vn 0.3448 0.8599 -0.3763
vn 0.3140 0.8753 -0.3677
vn -0.5752 -0.5868 0.5699
vn -0.6129 -0.6262 0.4819
vn -0.1832 -0.5928 0.7843
vn 0.1453 -0.5260 0.8380
vn 0.2970 -0.1991 0.9339
vn 0.7521 -0.1731 0.6359
vn -0.4747 -0.5160 0.7130
vn -0.7267 -0.4468 0.5218
vn -0.1130 -0.3792 0.9184
vn 0.3126 -0.1317 0.9407
vn 0.5421 0.0734 0.8371
vn 0.6082 0.1292 0.7832
vn -0.6580 -0.0965 0.7469
vn -0.9495 0.0445 0.3107
vn 0.0796 -0.1041 0.9914
vn 0.5366 0.0931 0.8387
vn 0.6164 0.2230 0.7552
vn 0.4881 0.3010 0.8193
vn -0.7338 0.4284 0.5272
vn -0.9321 0.2864 0.2217
vn -0.0911 0.5711 0.8158
vn 0.5988 0.4537 0.6600
vn 0.6993 0.3884 0.6001
vn 0.6316 0.4390 0.6390
vn 0.8674 -0.3584 0.3451
vn 0.8486 -0.3903 0.3571
vn 0.8611 -0.4943 0.1189
vn 0.6257 -0.6085 -0.4880
vn 0.3768 -0.3948 -0.8380
vn 0.8746 -0.0688 0.4799
vn 0.9403 -0.0650 0.3342
vn 0.9945 -0.0340 0.0994
vn 0.8480 0.0096 -0.5298
vn 0.5028 0.1570 -0.8500
vn 0.7348 0.2530 0.6294
vn 0.9458 0.1712 0.2760
vn 0.9695 0.2429 0.0320
vn 0.7849 0.3350 -0.5212
vn 0.4541 0.2286 -0.8611
vn 0.4665 0.5943 0.6551
vn 0.7237 0.5765 0.3793
vn 0.7302 0.6757 -0.1008
vn 0.5446 0.7341 -0.4057
vn 0.4650 0.5475 -0.6958
vn 0.3677 -0.5832 -0.7243
vn 0.3030 -0.6148 -0.7282
vn -0.2108 -0.7429 -0.6354
vn -0.4362 -0.7140 -0.5477
vn -0.4551 -0.6580 -0.5999
vn 0.5834 -0.0588 -0.8100
vn 0.3805 -0.3284 -0.8645
vn -0.2224 -0.4810 -0.8481
vn -0.5032 -0.4991 -0.7055
vn -0.6003 -0.4747 -0.6437
vn 0.5659 0.2877 -0.7726
vn 0.5323 0.3586 -0.7668
vn -0.0317 0.1768 -0.9837
vn -0.4831 -0.0623 -0.8734
vn -0.7489 -0.1771 -0.6386
vn 0.4192 0.5623 -0.7128
vn 0.4126 0.6618 -0.6260
vn 0.1984 0.7195 -0.6656
vn -0.2170 0.5678 -0.7940
vn -0.7802 0.3091 -0.5437
vn -0.5770 -0.7119 -0.4003
vn -0.8138 -0.5810 0.0158
vn -0.7939 -0.4564 0.4017
vn -0.5954 -0.6011 0.5331
vn -0.8376 -0.3803 -0.3921
vn -0.9790 -0.1881 0.0792
vn -0.9186 -0.1282 0.3737
vn -0.8969 -0.2190 0.3841
vn -0.9624 0.0905 -0.2563
vn -0.9388 0.2052 0.2767
vn -0.9154 0.2325 0.3286
vn -0.9668 0.2050 0.1527
vn -0.9287 0.3684 0.0428
vn -0.9120 0.2834 0.2966
vn -0.9366 0.1733 0.3046
vn -0.9681 0.2019 0.1487
# 152 vertex normals

vt 0.9002 0.6635 0.0000
vt 0.8662 0.6651 0.0000
vt 0.8728 0.6307 0.0000
vt 0.9107 0.6286 0.0000
vt 0.8862 0.5789 0.0000
vt 0.9309 0.5839 0.0000
vt 0.8958 0.5146 0.0000
vt 0.9440 0.5265 0.0000
vt 0.8942 0.4553 0.0000
vt 0.9396 0.4679 0.0000
vt 0.8885 0.4027 0.0000
vt 0.9293 0.4210 0.0000
vt 0.8140 0.6710 0.0000
vt 0.8167 0.6301 0.0000
vt 0.8237 0.5690 0.0000
vt 0.8275 0.5006 0.0000
vt 0.8367 0.4397 0.0000
vt 0.8343 0.3967 0.0000
vt 0.7550 0.6707 0.0000
vt 0.7537 0.6239 0.0000
vt 0.7474 0.5634 0.0000
vt 0.7557 0.4930 0.0000
vt 0.7697 0.4343 0.0000
vt 0.7769 0.3912 0.0000
vt 0.7034 0.6499 0.0000
vt 0.6971 0.6074 0.0000
vt 0.6979 0.5560 0.0000
vt 0.6999 0.4925 0.0000
vt 0.7156 0.4365 0.0000
vt 0.7262 0.3910 0.0000
vt 0.6679 0.6351 0.0000
vt 0.6608 0.5949 0.0000
vt 0.6606 0.5492 0.0000
vt 0.6611 0.4906 0.0000
vt 0.6757 0.4394 0.0000
vt 0.6880 0.4001 0.0000
vt 0.2984 0.7093 0.0000
vt 0.3199 0.7470 0.0000
vt 0.2655 0.7485 0.0000
vt 0.2583 0.7059 0.0000
vt 0.3329 0.8027 0.0000
vt 0.2761 0.8031 0.0000
vt 0.3091 0.8604 0.0000
vt 0.2725 0.8616 0.0000
vt 0.2984 0.9044 0.0000
vt 0.2615 0.9113 0.0000
vt 0.2898 0.9371 0.0000
vt 0.2564 0.9472 0.0000
vt 0.2148 0.7412 0.0000
vt 0.2152 0.6955 0.0000
vt 0.2177 0.8012 0.0000
vt 0.2200 0.8622 0.0000
vt 0.2126 0.9153 0.0000
vt 0.2123 0.9544 0.0000
vt 0.1538 0.7340 0.0000
vt 0.1641 0.6904 0.0000
vt 0.1574 0.8011 0.0000
vt 0.1566 0.8631 0.0000
vt 0.1548 0.9139 0.0000
vt 0.1604 0.9560 0.0000
vt 0.0941 0.7382 0.0000
vt 0.1024 0.6898 0.0000
vt 0.1002 0.8071 0.0000
vt 0.1033 0.8649 0.0000
vt 0.1090 0.9087 0.0000
vt 0.1132 0.9462 0.0000
vt 0.0440 0.7486 0.0000
vt 0.0522 0.6950 0.0000
vt 0.0531 0.8085 0.0000
vt 0.0589 0.8613 0.0000
vt 0.0693 0.9044 0.0000
vt 0.0749 0.9406 0.0000
vt 0.6636 0.0774 0.0000
vt 0.6749 0.1128 0.0000
vt 0.6343 0.1076 0.0000
vt 0.6306 0.0678 0.0000
vt 0.6794 0.1613 0.0000
vt 0.6371 0.1609 0.0000
vt 0.6769 0.2160 0.0000
vt 0.6330 0.2239 0.0000
vt 0.6773 0.2711 0.0000
vt 0.6287 0.2811 0.0000
vt 0.6655 0.3170 0.0000
vt 0.6252 0.3250 0.0000
vt 0.5850 0.0997 0.0000
vt 0.5805 0.0544 0.0000
vt 0.5769 0.1605 0.0000
vt 0.5700 0.2266 0.0000
vt 0.5705 0.2866 0.0000
vt 0.5691 0.3295 0.0000
vt 0.5106 0.0943 0.0000
vt 0.5189 0.0440 0.0000
vt 0.5013 0.1593 0.0000
vt 0.5087 0.2347 0.0000
vt 0.5144 0.2875 0.0000
vt 0.5168 0.3273 0.0000
vt 0.4536 0.0981 0.0000
vt 0.4626 0.0469 0.0000
vt 0.4387 0.1529 0.0000
vt 0.4485 0.2315 0.0000
vt 0.4638 0.2825 0.0000
vt 0.4702 0.3173 0.0000
vt 0.4048 0.1015 0.0000
vt 0.4210 0.0570 0.0000
vt 0.3923 0.1676 0.0000
vt 0.4055 0.2387 0.0000
vt 0.4250 0.2807 0.0000
vt 0.4393 0.3116 0.0000
vt 0.3772 0.4164 0.0000
vt 0.4204 0.4118 0.0000
vt 0.4107 0.4508 0.0000
vt 0.3626 0.4550 0.0000
vt 0.4670 0.3955 0.0000
vt 0.4658 0.4437 0.0000
vt 0.5242 0.3910 0.0000
vt 0.5286 0.4400 0.0000
vt 0.5808 0.3974 0.0000
vt 0.5897 0.4459 0.0000
vt 0.6234 0.4048 0.0000
vt 0.6384 0.4543 0.0000
vt 0.4027 0.5021 0.0000
vt 0.3647 0.5111 0.0000
vt 0.4563 0.5008 0.0000
vt 0.5272 0.5006 0.0000
vt 0.5948 0.5014 0.0000
vt 0.6464 0.5139 0.0000
vt 0.3998 0.5630 0.0000
vt 0.3620 0.5658 0.0000
vt 0.4537 0.5685 0.0000
vt 0.5219 0.5728 0.0000
vt 0.5874 0.5671 0.0000
vt 0.6390 0.5747 0.0000
vt 0.4023 0.6192 0.0000
vt 0.3673 0.6140 0.0000
vt 0.4542 0.6264 0.0000
vt 0.5195 0.6307 0.0000
vt 0.5744 0.6278 0.0000
vt 0.6204 0.6240 0.0000
vt 0.4077 0.6527 0.0000
vt 0.3736 0.6437 0.0000
vt 0.4527 0.6673 0.0000
vt 0.5108 0.6749 0.0000
vt 0.5653 0.6731 0.0000
vt 0.6049 0.6622 0.0000
vt 0.3371 0.0700 0.0000
vt 0.3464 0.1108 0.0000
vt 0.3051 0.0981 0.0000
vt 0.2911 0.0506 0.0000
vt 0.3638 0.1627 0.0000
vt 0.3218 0.1584 0.0000
vt 0.3633 0.2244 0.0000
vt 0.3158 0.2243 0.0000
vt 0.3537 0.2748 0.0000
vt 0.3116 0.2839 0.0000
vt 0.3456 0.3180 0.0000
vt 0.3060 0.3318 0.0000
vt 0.2469 0.0898 0.0000
vt 0.2373 0.0440 0.0000
vt 0.2534 0.1553 0.0000
vt 0.2553 0.2310 0.0000
vt 0.2490 0.3017 0.0000
vt 0.2476 0.3511 0.0000
vt 0.1754 0.0870 0.0000
vt 0.1764 0.0451 0.0000
vt 0.1770 0.1525 0.0000
vt 0.1724 0.2368 0.0000
vt 0.1726 0.3095 0.0000
vt 0.1782 0.3625 0.0000
vt 0.1160 0.0982 0.0000
vt 0.1202 0.0517 0.0000
vt 0.1090 0.1531 0.0000
vt 0.1002 0.2285 0.0000
vt 0.1013 0.3012 0.0000
vt 0.1112 0.3598 0.0000
vt 0.0666 0.1019 0.0000
vt 0.0792 0.0652 0.0000
vt 0.0556 0.1485 0.0000
vt 0.0440 0.2090 0.0000
vt 0.0512 0.2765 0.0000
vt 0.0562 0.3351 0.0000
vt 0.1050 0.3939 0.0000
vt 0.1447 0.3919 0.0000
vt 0.1332 0.4350 0.0000
vt 0.0870 0.4300 0.0000
vt 0.2011 0.3910 0.0000
vt 0.1919 0.4347 0.0000
vt 0.2572 0.4076 0.0000
vt 0.2541 0.4499 0.0000
vt 0.3032 0.4237 0.0000
vt 0.3038 0.4648 0.0000
vt 0.3320 0.4390 0.0000
vt 0.3381 0.4737 0.0000
vt 0.1139 0.4957 0.0000
vt 0.0640 0.4836 0.0000
vt 0.1777 0.5014 0.0000
vt 0.2492 0.5099 0.0000
vt 0.3028 0.5219 0.0000
vt 0.3455 0.5264 0.0000
vt 0.0970 0.5652 0.0000
vt 0.0476 0.5479 0.0000
vt 0.1785 0.5675 0.0000
vt 0.2458 0.5737 0.0000
vt 0.2961 0.5788 0.0000
vt 0.3477 0.5842 0.0000
vt 0.1055 0.6259 0.0000
vt 0.0440 0.6101 0.0000
vt 0.1822 0.6258 0.0000
vt 0.2403 0.6246 0.0000
vt 0.2876 0.6266 0.0000
vt 0.3348 0.6319 0.0000
vt 0.1143 0.6755 0.0000
vt 0.0618 0.6648 0.0000
vt 0.1805 0.6748 0.0000
vt 0.2337 0.6733 0.0000
vt 0.2801 0.6726 0.0000
vt 0.3217 0.6698 0.0000
# 216 texture coords

o rockLP001
g rockLP001
usemtl wire_115115115
s 1
f 1/1/1 2/2/2 3/3/3 
f 3/3/3 4/4/4 1/1/1 
f 4/4/4 3/3/3 5/5/5 
f 5/5/5 6/6/6 4/4/4 
f 6/6/6 5/5/5 7/7/7 
f 7/7/7 8/8/8 6/6/6 
f 8/8/8 7/7/7 9/9/9 
f 9/9/9 10/10/10 8/8/8 
f 10/10/10 9/9/9 11/11/11 
f 11/11/11 12/12/12 10/10/10 
f 2/2/2 13/13/13 14/14/14 
f 14/14/14 3/3/3 2/2/2 
f 3/3/3 14/14/14 15/15/15 
f 15/15/15 5/5/5 3/3/3 
f 5/5/5 15/15/15 16/16/16 
f 16/16/16 7/7/7 5/5/5 
f 7/7/7 16/16/16 17/17/17 
f 17/17/17 9/9/9 7/7/7 
f 9/9/9 17/17/17 18/18/18 
f 18/18/18 11/11/11 9/9/9 
f 13/13/13 19/19/19 20/20/20 
f 20/20/20 14/14/14 13/13/13 
f 14/14/14 20/20/20 21/21/21 
f 21/21/21 15/15/15 14/14/14 
f 15/15/15 21/21/21 22/22/22 
f 22/22/22 16/16/16 15/15/15 
f 16/16/16 22/22/22 23/23/23 
f 23/23/23 17/17/17 16/16/16 
f 17/17/17 23/23/23 24/24/24 
f 24/24/24 18/18/18 17/17/17 
f 19/19/19 25/25/25 26/26/26 
f 26/26/26 20/20/20 19/19/19 
f 20/20/20 26/26/26 27/27/27 
f 27/27/27 21/21/21 20/20/20 
f 21/21/21 27/27/27 28/28/28 
f 28/28/28 22/22/22 21/21/21 
f 22/22/22 28/28/28 29/29/29 
f 29/29/29 23/23/23 22/22/22 
f 23/23/23 29/29/29 30/30/30 
f 30/30/30 24/24/24 23/23/23 
f 25/25/25 31/31/31 32/32/32 
f 32/32/32 26/26/26 25/25/25 
f 26/26/26 32/32/32 33/33/33 
f 33/33/33 27/27/27 26/26/26 
f 27/27/27 33/33/33 34/34/34 
f 34/34/34 28/28/28 27/27/27 
f 28/28/28 34/34/34 35/35/35 
f 35/35/35 29/29/29 28/28/28 
f 29/29/29 35/35/35 36/36/36 
f 36/36/36 30/30/30 29/29/29 
f 37/37/37 38/38/38 39/39/39 
f 39/39/39 40/40/40 37/37/37 
f 38/38/38 41/41/41 42/42/42 
f 42/42/42 39/39/39 38/38/38 
f 41/41/41 43/43/43 44/44/44 
f 44/44/44 42/42/42 41/41/41 
f 43/43/43 45/45/45 46/46/46 
f 46/46/46 44/44/44 43/43/43 
f 45/45/45 47/47/47 48/48/48 
f 48/48/48 46/46/46 45/45/45 
f 40/40/40 39/39/39 49/49/49 
f 49/49/49 50/50/50 40/40/40 
f 39/39/39 42/42/42 51/51/51 
f 51/51/51 49/49/49 39/39/39 
f 42/42/42 44/44/44 52/52/52 
f 52/52/52 51/51/51 42/42/42 
f 44/44/44 46/46/46 53/53/53 
f 53/53/53 52/52/52 44/44/44 
f 46/46/46 48/48/48 54/54/54 
f 54/54/54 53/53/53 46/46/46 
f 50/50/50 49/49/49 55/55/55 
f 55/55/55 56/56/56 50/50/50 
f 49/49/49 51/51/51 57/57/57 
f 57/57/57 55/55/55 49/49/49 
f 51/51/51 52/52/52 58/58/58 
f 58/58/58 57/57/57 51/51/51 
f 52/52/52 53/53/53 59/59/59 
f 59/59/59 58/58/58 52/52/52 
f 53/53/53 54/54/54 60/60/60 
f 60/60/60 59/59/59 53/53/53 
f 56/56/56 55/55/55 61/61/61 
f 61/61/61 62/62/62 56/56/56 
f 55/55/55 57/57/57 63/63/63 
f 63/63/63 61/61/61 55/55/55 
f 57/57/57 58/58/58 64/64/64 
f 64/64/64 63/63/63 57/57/57 
f 58/58/58 59/59/59 65/65/65 
f 65/65/65 64/64/64 58/58/58 
f 59/59/59 60/60/60 66/66/66 
f 66/66/66 65/65/65 59/59/59 
f 62/62/62 61/61/61 67/67/67 
f 67/67/67 68/68/68 62/62/62 
f 61/61/61 63/63/63 69/69/69 
f 69/69/69 67/67/67 61/61/61 
f 63/63/63 64/64/64 70/70/70 
f 70/70/70 69/69/69 63/63/63 
f 64/64/64 65/65/65 71/71/71 
f 71/71/71 70/70/70 64/64/64 
f 65/65/65 66/66/66 72/72/72 
f 72/72/72 71/71/71 65/65/65 
f 1/73/1 4/74/4 73/75/73 
f 73/75/73 74/76/74 1/73/1 
f 4/74/4 6/77/6 75/78/75 
f 75/78/75 73/75/73 4/74/4 
f 6/77/6 8/79/8 76/80/76 
f 76/80/76 75/78/75 6/77/6 
f 8/79/8 10/81/10 77/82/77 
f 77/82/77 76/80/76 8/79/8 
f 10/81/10 12/83/12 78/84/78 
f 78/84/78 77/82/77 10/81/10 
f 74/76/74 73/75/73 79/85/79 
f 79/85/79 80/86/80 74/76/74 
f 73/75/73 75/78/75 81/87/81 
f 81/87/81 79/85/79 73/75/73 
f 75/78/75 76/80/76 82/88/82 
f 82/88/82 81/87/81 75/78/75 
f 76/80/76 77/82/77 83/89/83 
f 83/89/83 82/88/82 76/80/76 
f 77/82/77 78/84/78 84/90/84 
f 84/90/84 83/89/83 77/82/77 
f 80/86/80 79/85/79 85/91/85 
f 85/91/85 86/92/86 80/86/80 
f 79/85/79 81/87/81 87/93/87 
f 87/93/87 85/91/85 79/85/79 
f 81/87/81 82/88/82 88/94/88 
f 88/94/88 87/93/87 81/87/81 
f 82/88/82 83/89/83 89/95/89 
f 89/95/89 88/94/88 82/88/82 
f 83/89/83 84/90/84 90/96/90 
f 90/96/90 89/95/89 83/89/83 
f 86/92/86 85/91/85 91/97/91 
f 91/97/91 92/98/92 86/92/86 
f 85/91/85 87/93/87 93/99/93 
f 93/99/93 91/97/91 85/91/85 
f 87/93/87 88/94/88 94/100/94 
f 94/100/94 93/99/93 87/93/87 
f 88/94/88 89/95/89 95/101/95 
f 95/101/95 94/100/94 88/94/88 
f 89/95/89 90/96/90 96/102/96 
f 96/102/96 95/101/95 89/95/89 
f 92/98/92 91/97/91 38/103/38 
f 38/103/38 37/104/37 92/98/92 
f 91/97/91 93/99/93 41/105/41 
f 41/105/41 38/103/38 91/97/91 
f 93/99/93 94/100/94 43/106/43 
f 43/106/43 41/105/41 93/99/93 
f 94/100/94 95/101/95 45/107/45 
f 45/107/45 43/106/43 94/100/94 
f 95/101/95 96/102/96 47/108/47 
f 47/108/47 45/107/45 95/101/95 
f 12/109/12 11/110/11 97/111/97 
f 97/111/97 78/112/78 12/109/12 
f 11/110/11 18/113/18 98/114/98 
f 98/114/98 97/111/97 11/110/11 
f 18/113/18 24/115/24 99/116/99 
f 99/116/99 98/114/98 18/113/18 
f 24/115/24 30/117/30 100/118/100 
f 100/118/100 99/116/99 24/115/24 
f 30/117/30 36/119/36 101/120/101 
f 101/120/101 100/118/100 30/117/30 
f 78/112/78 97/111/97 102/121/102 
f 102/121/102 84/122/84 78/112/78 
f 97/111/97 98/114/98 103/123/103 
f 103/123/103 102/121/102 97/111/97 
f 98/114/98 99/116/99 104/124/104 
f 104/124/104 103/123/103 98/114/98 
f 99/116/99 100/118/100 105/125/105 
f 105/125/105 104/124/104 99/116/99 
f 100/118/100 101/120/101 106/126/106 
f 106/126/106 105/125/105 100/118/100 
f 84/122/84 102/121/102 107/127/107 
f 107/127/107 90/128/90 84/122/84 
f 102/121/102 103/123/103 108/129/108 
f 108/129/108 107/127/107 102/121/102 
f 103/123/103 104/124/104 109/130/109 
f 109/130/109 108/129/108 103/123/103 
f 104/124/104 105/125/105 110/131/110 
f 110/131/110 109/130/109 104/124/104 
f 105/125/105 106/126/106 111/132/111 
f 111/132/111 110/131/110 105/125/105 
f 90/128/90 107/127/107 112/133/112 
f 112/133/112 96/134/96 90/128/90 
f 107/127/107 108/129/108 113/135/113 
f 113/135/113 112/133/112 107/127/107 
f 108/129/108 109/130/109 114/136/114 
f 114/136/114 113/135/113 108/129/108 
f 109/130/109 110/131/110 115/137/115 
f 115/137/115 114/136/114 109/130/109 
f 110/131/110 111/132/111 116/138/116 
f 116/138/116 115/137/115 110/131/110 
f 96/134/96 112/133/112 48/139/48 
f 48/139/48 47/140/47 96/134/96 
f 112/133/112 113/135/113 54/141/54 
f 54/141/54 48/139/48 112/133/112 
f 113/135/113 114/136/114 60/142/60 
f 60/142/60 54/141/54 113/135/113 
f 114/136/114 115/137/115 66/143/66 
f 66/143/66 60/142/60 114/136/114 
f 115/137/115 116/138/116 72/144/72 
f 72/144/72 66/143/66 115/137/115 
f 36/145/36 35/146/35 117/147/117 
f 117/147/117 101/148/101 36/145/36 
f 35/146/35 34/149/34 118/150/118 
f 118/150/118 117/147/117 35/146/35 
f 34/149/34 33/151/33 119/152/119 
f 119/152/119 118/150/118 34/149/34 
f 33/151/33 32/153/32 120/154/120 
f 120/154/120 119/152/119 33/151/33 
f 32/153/32 31/155/31 121/156/121 
f 121/156/121 120/154/120 32/153/32 
f 101/148/101 117/147/117 122/157/122 
f 122/157/122 106/158/106 101/148/101 
f 117/147/117 118/150/118 123/159/123 
f 123/159/123 122/157/122 117/147/117 
f 118/150/118 119/152/119 124/160/124 
f 124/160/124 123/159/123 118/150/118 
f 119/152/119 120/154/120 125/161/125 
f 125/161/125 124/160/124 119/152/119 
f 120/154/120 121/156/121 126/162/126 
f 126/162/126 125/161/125 120/154/120 
f 106/158/106 122/157/122 127/163/127 
f 127/163/127 111/164/111 106/158/106 
f 122/157/122 123/159/123 128/165/128 
f 128/165/128 127/163/127 122/157/122 
f 123/159/123 124/160/124 129/166/129 
f 129/166/129 128/165/128 123/159/123 
f 124/160/124 125/161/125 130/167/130 
f 130/167/130 129/166/129 124/160/124 
f 125/161/125 126/162/126 131/168/131 
f 131/168/131 130/167/130 125/161/125 
f 111/164/111 127/163/127 132/169/132 
f 132/169/132 116/170/116 111/164/111 
f 127/163/127 128/165/128 133/171/133 
f 133/171/133 132/169/132 127/163/127 
f 128/165/128 129/166/129 134/172/134 
f 134/172/134 133/171/133 128/165/128 
f 129/166/129 130/167/130 135/173/135 
f 135/173/135 134/172/134 129/166/129 
f 130/167/130 131/168/131 136/174/136 
f 136/174/136 135/173/135 130/167/130 
f 116/170/116 132/169/132 71/175/71 
f 71/175/71 72/176/72 116/170/116 
f 132/169/132 133/171/133 70/177/70 
f 70/177/70 71/175/71 132/169/132 
f 133/171/133 134/172/134 69/178/69 
f 69/178/69 70/177/70 133/171/133 
f 134/172/134 135/173/135 67/179/67 
f 67/179/67 69/178/69 134/172/134 
f 135/173/135 136/174/136 68/180/68 
f 68/180/68 67/179/67 135/173/135 
f 31/181/31 25/182/25 137/183/137 
f 137/183/137 121/184/121 31/181/31 
f 25/182/25 19/185/19 138/186/138 
f 138/186/138 137/183/137 25/182/25 
f 19/185/19 13/187/13 139/188/139 
f 139/188/139 138/186/138 19/185/19 
f 13/187/13 2/189/2 140/190/140 
f 140/190/140 139/188/139 13/187/13 
f 2/189/2 1/191/1 74/192/74 
f 74/192/74 140/190/140 2/189/2 
f 121/184/121 137/183/137 141/193/141 
f 141/193/141 126/194/126 121/184/121 
f 137/183/137 138/186/138 142/195/142 
f 142/195/142 141/193/141 137/183/137 
f 138/186/138 139/188/139 143/196/143 
f 143/196/143 142/195/142 138/186/138 
f 139/188/139 140/190/140 144/197/144 
f 144/197/144 143/196/143 139/188/139 
f 140/190/140 74/192/74 80/198/80 
f 80/198/80 144/197/144 140/190/140 
f 126/194/126 141/193/141 145/199/145 
f 145/199/145 131/200/131 126/194/126 
f 141/193/141 142/195/142 146/201/146 
f 146/201/146 145/199/145 141/193/141 
f 142/195/142 143/196/143 147/202/147 
f 147/202/147 146/201/146 142/195/142 
f 143/196/143 144/197/144 148/203/148 
f 148/203/148 147/202/147 143/196/143 
f 144/197/144 80/198/80 86/204/86 
f 86/204/86 148/203/148 144/197/144 
f 131/200/131 145/199/145 149/205/149 
f 149/205/149 136/206/136 131/200/131 
f 145/199/145 146/201/146 150/207/150 
f 150/207/150 149/205/149 145/199/145 
f 146/201/146 147/202/147 151/208/151 
f 151/208/151 150/207/150 146/201/146 
f 147/202/147 148/203/148 152/209/152 
f 152/209/152 151/208/151 147/202/147 
f 148/203/148 86/204/86 92/210/92 
f 92/210/92 152/209/152 148/203/148 
f 136/206/136 149/205/149 62/211/62 
f 62/211/62 68/212/68 136/206/136 
f 149/205/149 150/207/150 56/213/56 
f 56/213/56 62/211/62 149/205/149 
f 150/207/150 151/208/151 50/214/50 
f 50/214/50 56/213/56 150/207/150 
f 151/208/151 152/209/152 40/215/40 
f 40/215/40 50/214/50 151/208/151 
f 152/209/152 92/210/92 37/216/37 
f 37/216/37 40/215/40 152/209/152 
# 300 faces

