# 3ds Max Wavefront OBJ Exporter v0.97b - (c)2007 guruware
# File Created: 04.09.2017 15:44:52

mtllib Ast3LP.mtl

#
# object rockLP001
#

v  -0.6541 0.3607 0.6544
v  -0.7100 0.2598 0.4521
v  -0.5248 0.1231 0.5278
v  -0.4900 0.2226 0.7611
v  -0.2248 0.0239 0.6027
v  -0.1765 0.2553 0.7807
v  0.1826 0.0921 0.5703
v  0.1319 0.2402 0.8214
v  0.5063 0.2054 0.4983
v  0.4328 0.2869 0.7534
v  0.7494 0.2807 0.4433
v  0.6760 0.3429 0.6970
v  -0.8792 0.0952 0.2238
v  -0.5696 0.0419 0.1999
v  -0.2103 -0.1006 0.2149
v  0.2090 -0.0211 0.2018
v  0.5361 0.0943 0.1861
v  0.7829 0.2004 0.1618
v  -0.8631 0.1162 -0.1236
v  -0.6562 -0.1158 -0.1821
v  -0.2606 -0.3985 -0.2822
v  0.2506 -0.2000 -0.2490
v  0.6050 -0.0079 -0.1930
v  0.7655 0.2088 -0.1523
v  -0.7972 0.1747 -0.4442
v  -0.6097 -0.0503 -0.5840
v  -0.2448 -0.2660 -0.7252
v  0.2570 -0.3488 -0.7801
v  0.5607 0.0360 -0.5607
v  0.7512 0.2504 -0.4444
v  -0.7048 0.2590 -0.6768
v  -0.5134 0.0885 -0.8644
v  -0.1785 -0.0111 -0.9537
v  0.2309 -0.1560 -1.0648
v  0.5439 0.0577 -0.9004
v  0.7095 0.2601 -0.7094
v  -0.8238 1.7500 0.8243
v  -0.5752 1.8252 0.9131
v  -0.7377 2.1066 0.7391
v  -1.0024 1.9586 0.6350
v  -0.2474 1.9706 1.0305
v  -0.2957 2.2374 0.8067
v  0.1299 2.0153 1.0354
v  0.1590 2.1494 0.7603
v  0.4541 1.9084 0.9146
v  0.4931 1.9308 0.5951
v  0.7153 1.8126 0.8391
v  0.7166 1.8080 0.5331
v  -0.6882 1.9942 0.2602
v  -0.9674 1.8471 0.2461
v  -0.3264 2.2289 0.3308
v  0.1573 2.1353 0.3165
v  0.4623 1.9048 0.2368
v  0.7179 1.7925 0.2294
v  -0.6139 1.8974 -0.1235
v  -0.8767 1.7690 -0.0966
v  -0.3053 2.0927 -0.1457
v  0.1346 2.0894 -0.1336
v  0.4719 1.9016 -0.1303
v  0.6419 1.7115 -0.0791
v  -0.5791 1.8607 -0.4754
v  -0.8455 1.7463 -0.4051
v  -0.2686 1.9870 -0.5384
v  0.1436 1.9510 -0.5175
v  0.4388 1.8167 -0.4383
v  0.5737 1.6396 -0.3360
v  -0.5820 1.7866 -0.7882
v  -0.8373 1.7218 -0.7046
v  -0.2243 1.7068 -0.6964
v  0.0833 1.6948 -0.6633
v  0.3790 1.7079 -0.6713
v  0.5692 1.6010 -0.5692
v  -0.5662 0.4401 0.9253
v  -0.8021 0.5279 0.8037
v  -0.2074 0.5074 0.8946
v  0.1578 0.5066 0.9444
v  0.4832 0.5235 0.8891
v  0.8018 0.5362 0.8505
v  -0.5952 0.7792 0.9991
v  -0.8865 0.8285 0.8883
v  -0.2455 0.8121 1.1440
v  0.1966 0.8442 1.2197
v  0.6125 0.8461 1.0984
v  0.9530 0.8380 0.9836
v  -0.5711 1.1498 0.9436
v  -0.8628 1.1667 0.8702
v  -0.2348 1.2193 1.0688
v  0.1693 1.2666 1.1183
v  0.5301 1.2346 0.9999
v  0.8717 1.2237 0.9510
v  -0.5784 1.4973 0.9506
v  -0.8759 1.4881 0.8844
v  -0.2495 1.6094 1.0611
v  0.1421 1.6468 1.0581
v  0.4807 1.5718 0.9574
v  0.7860 1.5483 0.9210
v  0.9673 0.4250 0.5871
v  1.1227 0.3456 0.2292
v  1.0343 0.3960 -0.2106
v  0.8316 0.4947 -0.5149
v  0.6799 0.5430 -0.6797
v  0.9657 0.8135 0.6151
v  1.1038 0.7860 0.2587
v  1.0647 0.7893 -0.2008
v  0.8749 0.8194 -0.5369
v  0.6852 0.8234 -0.6850
v  1.0032 1.2279 0.6846
v  0.9577 1.2216 0.2583
v  0.9495 1.2218 -0.1590
v  0.9106 1.1904 -0.5297
v  0.7085 1.1235 -0.7083
v  0.8945 1.6052 0.6579
v  0.9116 1.6053 0.2794
v  0.8363 1.5509 -0.1012
v  0.7587 1.4972 -0.4233
v  0.7200 1.4499 -0.7200
v  0.5558 0.4164 -0.8813
v  0.2679 0.1459 -1.2431
v  -0.2233 0.2405 -1.1464
v  -0.5638 0.3820 -0.9406
v  -0.7818 0.4916 -0.7308
v  0.5290 0.7756 -0.8651
v  0.2492 0.6446 -1.2228
v  -0.3020 0.6204 -1.4084
v  -0.6764 0.7588 -1.0504
v  -0.8129 0.7894 -0.7551
v  0.5315 1.1502 -0.9047
v  0.1897 1.1428 -1.1123
v  -0.3229 1.2009 -1.2592
v  -0.6796 1.1827 -1.0104
v  -0.7856 1.0965 -0.7184
v  0.4694 1.5106 -0.8554
v  0.1007 1.4755 -0.8404
v  -0.2805 1.5228 -0.8892
v  -0.7005 1.5848 -0.9545
v  -0.8428 1.4139 -0.7013
v  -0.9066 0.4307 -0.4969
v  -1.0175 0.3398 -0.1728
v  -1.0056 0.3663 0.2309
v  -0.8752 0.4716 0.5435
v  -0.9979 0.7708 -0.5407
v  -1.1865 0.7254 -0.1894
v  -1.1924 0.7462 0.2635
v  -1.0487 0.8067 0.6431
v  -0.9997 1.1567 -0.5138
v  -1.3149 1.2024 -0.2090
v  -1.3574 1.2214 0.2869
v  -1.1389 1.2275 0.6909
v  -1.0259 1.5406 -0.5232
v  -1.0291 1.5171 -0.1446
v  -1.1518 1.6200 0.2606
v  -1.1180 1.6312 0.6742
# 152 vertices

vn -0.5620 -0.6975 0.4447
vn -0.4824 -0.6929 0.5359
vn -0.5252 -0.7762 0.3488
vn -0.3668 -0.6701 0.6454
vn -0.0547 -0.8491 0.5253
vn -0.0183 -0.5551 0.8316
vn 0.2457 -0.8559 0.4551
vn 0.0552 -0.6799 0.7312
vn 0.3542 -0.8599 0.3675
vn 0.2586 -0.7625 0.5931
vn 0.3414 -0.8847 0.3175
vn 0.3351 -0.8155 0.4719
vn -0.6014 -0.7157 0.3551
vn -0.3083 -0.8533 0.4205
vn -0.0609 -0.9138 0.4017
vn 0.2667 -0.9052 0.3308
vn 0.4121 -0.8687 0.2748
vn 0.4071 -0.9085 0.0940
vn -0.8003 -0.5864 -0.1252
vn -0.6057 -0.7934 0.0599
vn -0.1931 -0.9698 0.1487
vn 0.4226 -0.8645 0.2721
vn 0.6310 -0.7708 0.0872
vn 0.6810 -0.7278 -0.0811
vn -0.8030 -0.4704 -0.3658
vn -0.6805 -0.6260 -0.3808
vn -0.4238 -0.7598 -0.4931
vn 0.3589 -0.9045 -0.2302
vn 0.7474 -0.6608 -0.0687
vn 0.8841 -0.4257 -0.1928
vn -0.7909 -0.3886 -0.4728
vn -0.5377 -0.5010 -0.6782
vn -0.4421 -0.5611 -0.6997
vn 0.1643 -0.6705 -0.7235
vn 0.8132 -0.3783 -0.4423
vn 0.9192 -0.1868 -0.3466
vn -0.4584 0.2915 0.8396
vn -0.3626 0.2649 0.8935
vn -0.4707 0.7674 0.4354
vn -0.7031 0.6561 0.2742
vn -0.1924 0.4137 0.8899
vn -0.0851 0.8904 0.4472
vn 0.2023 0.5814 0.7880
vn 0.3799 0.8887 0.2566
vn 0.4368 0.6534 0.6183
vn 0.4940 0.8688 0.0335
vn 0.6599 0.6119 0.4360
vn 0.6362 0.7710 0.0304
vn -0.4625 0.8431 -0.2742
vn -0.6187 0.7255 -0.3016
vn -0.1585 0.9752 -0.1547
vn 0.3908 0.9188 -0.0560
vn 0.5328 0.8422 -0.0826
vn 0.5756 0.7939 -0.1958
vn -0.4735 0.8484 -0.2365
vn -0.6364 0.7390 -0.2210
vn -0.2562 0.9218 -0.2910
vn 0.2659 0.9343 -0.2374
vn 0.6500 0.7411 -0.1681
vn 0.6458 0.7127 -0.2738
vn -0.3296 0.9050 -0.2690
vn -0.5936 0.7815 -0.1922
vn -0.1657 0.7827 -0.5999
vn 0.2147 0.7869 -0.5785
vn 0.6347 0.7024 -0.3222
vn 0.6932 0.6820 -0.2330
vn -0.0127 0.8547 -0.5189
vn -0.7726 0.5608 -0.2977
vn 0.1305 0.6495 -0.7491
vn 0.0274 0.5684 -0.8223
vn 0.2947 0.7170 -0.6317
vn 0.6237 0.7465 -0.2320
vn -0.3002 -0.5456 0.7824
vn -0.6622 -0.5026 0.5557
vn 0.0093 -0.5439 0.8391
vn 0.0335 -0.5308 0.8468
vn 0.1714 -0.5295 0.8308
vn 0.4940 -0.5172 0.6989
vn -0.3889 -0.0659 0.9189
vn -0.6286 -0.1350 0.7659
vn -0.2009 -0.1914 0.9607
vn 0.0740 -0.1973 0.9776
vn 0.2644 -0.1945 0.9446
vn 0.7430 -0.2278 0.6293
vn -0.3113 0.0665 0.9480
vn -0.4409 -0.0339 0.8969
vn -0.2369 0.1091 0.9654
vn 0.0890 0.1933 0.9771
vn 0.2253 0.2097 0.9515
vn 0.5921 0.2375 0.7701
vn -0.2789 0.0309 0.9598
vn -0.4281 0.0890 0.8993
vn -0.1743 0.0453 0.9837
vn 0.1503 0.1049 0.9831
vn 0.2524 0.1773 0.9512
vn 0.5573 0.3369 0.7589
vn 0.7227 -0.4930 0.4844
vn 0.8334 -0.5395 0.1200
vn 0.7780 -0.4994 -0.3813
vn 0.7242 -0.3085 -0.6167
vn 0.8058 -0.0026 -0.5922
vn 0.9743 -0.0679 0.2150
vn 0.9762 0.1560 0.1507
vn 0.9609 0.0725 -0.2671
vn 0.7480 -0.0981 -0.6564
vn 0.6972 -0.0810 -0.7123
vn 0.9801 0.1276 0.1523
vn 0.9799 0.1958 -0.0371
vn 0.9377 0.3319 -0.1028
vn 0.8745 0.1937 -0.4446
vn 0.6765 -0.0355 -0.7356
vn 0.8162 0.5240 0.2435
vn 0.8763 0.4664 -0.1208
vn 0.7959 0.5567 -0.2380
vn 0.7292 0.6514 -0.2096
vn 0.6856 0.4089 -0.6023
vn 0.7826 0.0669 -0.6189
vn 0.3507 -0.2952 -0.8887
vn -0.4638 -0.5499 -0.6946
vn -0.6612 -0.3451 -0.6661
vn -0.7660 -0.2471 -0.5934
vn 0.7435 0.0339 -0.6679
vn 0.5470 0.1455 -0.8244
vn -0.2809 -0.1426 -0.9491
vn -0.8118 -0.1581 -0.5621
vn -0.8158 -0.0402 -0.5769
vn 0.5845 0.1309 -0.8008
vn 0.4124 0.4193 -0.8088
vn -0.0786 0.4309 -0.8990
vn -0.7848 0.0445 -0.6182
vn -0.8288 0.0145 -0.5593
vn 0.2601 0.4407 -0.8592
vn 0.1046 0.6012 -0.7922
vn 0.2271 0.6738 -0.7031
vn -0.4644 0.4257 -0.7766
vn -0.8367 0.0287 -0.5469
vn -0.8106 -0.3629 -0.4596
vn -0.8591 -0.4843 -0.1658
vn -0.8586 -0.4544 0.2372
vn -0.7041 -0.5469 0.4528
vn -0.7961 -0.1390 -0.5890
vn -0.9128 -0.3290 -0.2418
vn -0.9033 -0.3732 0.2118
vn -0.7982 -0.3221 0.5090
vn -0.7545 0.0935 -0.6496
vn -0.8856 0.2085 -0.4150
vn -0.9862 0.0345 0.1618
vn -0.7572 -0.1011 0.6453
vn -0.8083 0.3677 -0.4598
vn -0.8022 0.5323 -0.2705
vn -0.8331 0.5298 -0.1590
vn -0.8129 0.2727 0.5146
# 152 vertex normals

vt 0.6594 0.3041 0.0000
vt 0.6236 0.3084 0.0000
vt 0.6278 0.2712 0.0000
vt 0.6667 0.2665 0.0000
vt 0.6345 0.2206 0.0000
vt 0.6770 0.2146 0.0000
vt 0.6337 0.1551 0.0000
vt 0.6781 0.1605 0.0000
vt 0.6256 0.0998 0.0000
vt 0.6675 0.1099 0.0000
vt 0.6189 0.0593 0.0000
vt 0.6599 0.0700 0.0000
vt 0.5771 0.3277 0.0000
vt 0.5766 0.2802 0.0000
vt 0.5761 0.2182 0.0000
vt 0.5770 0.1502 0.0000
vt 0.5745 0.0959 0.0000
vt 0.5725 0.0544 0.0000
vt 0.5214 0.3317 0.0000
vt 0.5132 0.2872 0.0000
vt 0.4961 0.2213 0.0000
vt 0.5055 0.1462 0.0000
vt 0.5138 0.0880 0.0000
vt 0.5212 0.0487 0.0000
vt 0.4640 0.3297 0.0000
vt 0.4506 0.2837 0.0000
vt 0.4357 0.2227 0.0000
vt 0.4284 0.1565 0.0000
vt 0.4561 0.0880 0.0000
vt 0.4702 0.0440 0.0000
vt 0.4210 0.3223 0.0000
vt 0.4008 0.2777 0.0000
vt 0.3850 0.2249 0.0000
vt 0.3809 0.1542 0.0000
vt 0.4032 0.0946 0.0000
vt 0.4272 0.0523 0.0000
vt 0.6371 0.3885 0.0000
vt 0.6483 0.4302 0.0000
vt 0.5947 0.4206 0.0000
vt 0.5859 0.3750 0.0000
vt 0.6498 0.4903 0.0000
vt 0.6002 0.4849 0.0000
vt 0.6412 0.5489 0.0000
vt 0.5959 0.5491 0.0000
vt 0.6234 0.6003 0.0000
vt 0.5740 0.6079 0.0000
vt 0.6144 0.6428 0.0000
vt 0.5660 0.6465 0.0000
vt 0.5226 0.4165 0.0000
vt 0.5221 0.3690 0.0000
vt 0.5346 0.4789 0.0000
vt 0.5306 0.5506 0.0000
vt 0.5172 0.6064 0.0000
vt 0.5155 0.6480 0.0000
vt 0.4640 0.4221 0.0000
vt 0.4675 0.3776 0.0000
vt 0.4652 0.4775 0.0000
vt 0.4654 0.5440 0.0000
vt 0.4603 0.6014 0.0000
vt 0.4614 0.6402 0.0000
vt 0.4112 0.4288 0.0000
vt 0.4215 0.3832 0.0000
vt 0.4070 0.4797 0.0000
vt 0.4063 0.5430 0.0000
vt 0.4106 0.5935 0.0000
vt 0.4163 0.6308 0.0000
vt 0.3640 0.4257 0.0000
vt 0.3762 0.3844 0.0000
vt 0.3614 0.4842 0.0000
vt 0.3627 0.5386 0.0000
vt 0.3713 0.5866 0.0000
vt 0.3799 0.6234 0.0000
vt 0.9410 0.3874 0.0000
vt 0.9518 0.4227 0.0000
vt 0.9102 0.4177 0.0000
vt 0.9010 0.3773 0.0000
vt 0.9535 0.4733 0.0000
vt 0.9119 0.4717 0.0000
vt 0.9560 0.5245 0.0000
vt 0.9124 0.5286 0.0000
vt 0.9528 0.5751 0.0000
vt 0.9117 0.5798 0.0000
vt 0.9462 0.6143 0.0000
vt 0.9074 0.6282 0.0000
vt 0.8585 0.4158 0.0000
vt 0.8509 0.3690 0.0000
vt 0.8541 0.4703 0.0000
vt 0.8500 0.5333 0.0000
vt 0.8532 0.5944 0.0000
vt 0.8563 0.6471 0.0000
vt 0.8012 0.4165 0.0000
vt 0.7976 0.3717 0.0000
vt 0.7931 0.4703 0.0000
vt 0.7885 0.5314 0.0000
vt 0.7934 0.5878 0.0000
vt 0.7978 0.6390 0.0000
vt 0.7486 0.4183 0.0000
vt 0.7472 0.3725 0.0000
vt 0.7358 0.4714 0.0000
vt 0.7327 0.5301 0.0000
vt 0.7435 0.5832 0.0000
vt 0.7484 0.6291 0.0000
vt 0.6989 0.4214 0.0000
vt 0.7062 0.3810 0.0000
vt 0.6820 0.4747 0.0000
vt 0.6778 0.5300 0.0000
vt 0.6930 0.5810 0.0000
vt 0.7065 0.6216 0.0000
vt 0.2987 0.7129 0.0000
vt 0.3083 0.7550 0.0000
vt 0.2644 0.7440 0.0000
vt 0.2585 0.6970 0.0000
vt 0.3173 0.8073 0.0000
vt 0.2659 0.7985 0.0000
vt 0.3075 0.8642 0.0000
vt 0.2591 0.8599 0.0000
vt 0.2874 0.9081 0.0000
vt 0.2473 0.9132 0.0000
vt 0.2836 0.9475 0.0000
vt 0.2405 0.9463 0.0000
vt 0.2072 0.7347 0.0000
vt 0.2064 0.6803 0.0000
vt 0.2057 0.7907 0.0000
vt 0.2015 0.8579 0.0000
vt 0.1949 0.9135 0.0000
vt 0.1941 0.9494 0.0000
vt 0.1471 0.7257 0.0000
vt 0.1475 0.6821 0.0000
vt 0.1404 0.7887 0.0000
vt 0.1358 0.8514 0.0000
vt 0.1384 0.9060 0.0000
vt 0.1426 0.9454 0.0000
vt 0.0900 0.7260 0.0000
vt 0.0970 0.6836 0.0000
vt 0.0843 0.7823 0.0000
vt 0.0835 0.8416 0.0000
vt 0.0859 0.8938 0.0000
vt 0.0917 0.9391 0.0000
vt 0.0480 0.7380 0.0000
vt 0.0558 0.6918 0.0000
vt 0.0440 0.7875 0.0000
vt 0.0451 0.8408 0.0000
vt 0.0483 0.8846 0.0000
vt 0.0560 0.9203 0.0000
vt 0.3015 0.0555 0.0000
vt 0.3249 0.0991 0.0000
vt 0.2702 0.0836 0.0000
vt 0.2553 0.0458 0.0000
vt 0.3529 0.1565 0.0000
vt 0.3027 0.1542 0.0000
vt 0.3385 0.2262 0.0000
vt 0.2911 0.2249 0.0000
vt 0.3234 0.2791 0.0000
vt 0.2759 0.2867 0.0000
vt 0.3053 0.3253 0.0000
vt 0.2647 0.3348 0.0000
vt 0.2122 0.0801 0.0000
vt 0.2063 0.0440 0.0000
vt 0.2321 0.1458 0.0000
vt 0.2315 0.2236 0.0000
vt 0.2129 0.2935 0.0000
vt 0.2114 0.3409 0.0000
vt 0.1525 0.0893 0.0000
vt 0.1548 0.0482 0.0000
vt 0.1554 0.1478 0.0000
vt 0.1524 0.2272 0.0000
vt 0.1468 0.2892 0.0000
vt 0.1558 0.3392 0.0000
vt 0.0965 0.0989 0.0000
vt 0.1015 0.0541 0.0000
vt 0.0898 0.1558 0.0000
vt 0.0849 0.2187 0.0000
vt 0.0888 0.2837 0.0000
vt 0.1014 0.3321 0.0000
vt 0.0529 0.1053 0.0000
vt 0.0611 0.0667 0.0000
vt 0.0458 0.1553 0.0000
vt 0.0440 0.2089 0.0000
vt 0.0493 0.2737 0.0000
vt 0.0565 0.3162 0.0000
vt 0.3110 0.3858 0.0000
vt 0.3204 0.4261 0.0000
vt 0.2771 0.4205 0.0000
vt 0.2720 0.3788 0.0000
vt 0.3294 0.4790 0.0000
vt 0.2886 0.4745 0.0000
vt 0.3334 0.5360 0.0000
vt 0.2887 0.5382 0.0000
vt 0.3227 0.5872 0.0000
vt 0.2799 0.5934 0.0000
vt 0.3105 0.6215 0.0000
vt 0.2716 0.6357 0.0000
vt 0.2225 0.4140 0.0000
vt 0.2232 0.3713 0.0000
vt 0.2279 0.4735 0.0000
vt 0.2272 0.5413 0.0000
vt 0.2212 0.6024 0.0000
vt 0.2217 0.6467 0.0000
vt 0.1615 0.4142 0.0000
vt 0.1708 0.3690 0.0000
vt 0.1585 0.4738 0.0000
vt 0.1565 0.5407 0.0000
vt 0.1560 0.6040 0.0000
vt 0.1669 0.6523 0.0000
vt 0.1042 0.4185 0.0000
vt 0.1174 0.3804 0.0000
vt 0.0995 0.4722 0.0000
vt 0.0942 0.5380 0.0000
vt 0.0963 0.5990 0.0000
vt 0.1140 0.6492 0.0000
vt 0.0620 0.4277 0.0000
vt 0.0710 0.3845 0.0000
vt 0.0544 0.4773 0.0000
vt 0.0513 0.5352 0.0000
vt 0.0440 0.5984 0.0000
vt 0.0709 0.6432 0.0000
# 216 texture coords

o rockLP001
g rockLP001
usemtl wire_115115115
s 1
f 1/1/1 2/2/2 3/3/3 
f 3/3/3 4/4/4 1/1/1 
f 4/4/4 3/3/3 5/5/5 
f 5/5/5 6/6/6 4/4/4 
f 6/6/6 5/5/5 7/7/7 
f 7/7/7 8/8/8 6/6/6 
f 8/8/8 7/7/7 9/9/9 
f 9/9/9 10/10/10 8/8/8 
f 10/10/10 9/9/9 11/11/11 
f 11/11/11 12/12/12 10/10/10 
f 2/2/2 13/13/13 14/14/14 
f 14/14/14 3/3/3 2/2/2 
f 3/3/3 14/14/14 15/15/15 
f 15/15/15 5/5/5 3/3/3 
f 5/5/5 15/15/15 16/16/16 
f 16/16/16 7/7/7 5/5/5 
f 7/7/7 16/16/16 17/17/17 
f 17/17/17 9/9/9 7/7/7 
f 9/9/9 17/17/17 18/18/18 
f 18/18/18 11/11/11 9/9/9 
f 13/13/13 19/19/19 20/20/20 
f 20/20/20 14/14/14 13/13/13 
f 14/14/14 20/20/20 21/21/21 
f 21/21/21 15/15/15 14/14/14 
f 15/15/15 21/21/21 22/22/22 
f 22/22/22 16/16/16 15/15/15 
f 16/16/16 22/22/22 23/23/23 
f 23/23/23 17/17/17 16/16/16 
f 17/17/17 23/23/23 24/24/24 
f 24/24/24 18/18/18 17/17/17 
f 19/19/19 25/25/25 26/26/26 
f 26/26/26 20/20/20 19/19/19 
f 20/20/20 26/26/26 27/27/27 
f 27/27/27 21/21/21 20/20/20 
f 21/21/21 27/27/27 28/28/28 
f 28/28/28 22/22/22 21/21/21 
f 22/22/22 28/28/28 29/29/29 
f 29/29/29 23/23/23 22/22/22 
f 23/23/23 29/29/29 30/30/30 
f 30/30/30 24/24/24 23/23/23 
f 25/25/25 31/31/31 32/32/32 
f 32/32/32 26/26/26 25/25/25 
f 26/26/26 32/32/32 33/33/33 
f 33/33/33 27/27/27 26/26/26 
f 27/27/27 33/33/33 34/34/34 
f 34/34/34 28/28/28 27/27/27 
f 28/28/28 34/34/34 35/35/35 
f 35/35/35 29/29/29 28/28/28 
f 29/29/29 35/35/35 36/36/36 
f 36/36/36 30/30/30 29/29/29 
f 37/37/37 38/38/38 39/39/39 
f 39/39/39 40/40/40 37/37/37 
f 38/38/38 41/41/41 42/42/42 
f 42/42/42 39/39/39 38/38/38 
f 41/41/41 43/43/43 44/44/44 
f 44/44/44 42/42/42 41/41/41 
f 43/43/43 45/45/45 46/46/46 
f 46/46/46 44/44/44 43/43/43 
f 45/45/45 47/47/47 48/48/48 
f 48/48/48 46/46/46 45/45/45 
f 40/40/40 39/39/39 49/49/49 
f 49/49/49 50/50/50 40/40/40 
f 39/39/39 42/42/42 51/51/51 
f 51/51/51 49/49/49 39/39/39 
f 42/42/42 44/44/44 52/52/52 
f 52/52/52 51/51/51 42/42/42 
f 44/44/44 46/46/46 53/53/53 
f 53/53/53 52/52/52 44/44/44 
f 46/46/46 48/48/48 54/54/54 
f 54/54/54 53/53/53 46/46/46 
f 50/50/50 49/49/49 55/55/55 
f 55/55/55 56/56/56 50/50/50 
f 49/49/49 51/51/51 57/57/57 
f 57/57/57 55/55/55 49/49/49 
f 51/51/51 52/52/52 58/58/58 
f 58/58/58 57/57/57 51/51/51 
f 52/52/52 53/53/53 59/59/59 
f 59/59/59 58/58/58 52/52/52 
f 53/53/53 54/54/54 60/60/60 
f 60/60/60 59/59/59 53/53/53 
f 56/56/56 55/55/55 61/61/61 
f 61/61/61 62/62/62 56/56/56 
f 55/55/55 57/57/57 63/63/63 
f 63/63/63 61/61/61 55/55/55 
f 57/57/57 58/58/58 64/64/64 
f 64/64/64 63/63/63 57/57/57 
f 58/58/58 59/59/59 65/65/65 
f 65/65/65 64/64/64 58/58/58 
f 59/59/59 60/60/60 66/66/66 
f 66/66/66 65/65/65 59/59/59 
f 62/62/62 61/61/61 67/67/67 
f 67/67/67 68/68/68 62/62/62 
f 61/61/61 63/63/63 69/69/69 
f 69/69/69 67/67/67 61/61/61 
f 63/63/63 64/64/64 70/70/70 
f 70/70/70 69/69/69 63/63/63 
f 64/64/64 65/65/65 71/71/71 
f 71/71/71 70/70/70 64/64/64 
f 65/65/65 66/66/66 72/72/72 
f 72/72/72 71/71/71 65/65/65 
f 1/73/1 4/74/4 73/75/73 
f 73/75/73 74/76/74 1/73/1 
f 4/74/4 6/77/6 75/78/75 
f 75/78/75 73/75/73 4/74/4 
f 6/77/6 8/79/8 76/80/76 
f 76/80/76 75/78/75 6/77/6 
f 8/79/8 10/81/10 77/82/77 
f 77/82/77 76/80/76 8/79/8 
f 10/81/10 12/83/12 78/84/78 
f 78/84/78 77/82/77 10/81/10 
f 74/76/74 73/75/73 79/85/79 
f 79/85/79 80/86/80 74/76/74 
f 73/75/73 75/78/75 81/87/81 
f 81/87/81 79/85/79 73/75/73 
f 75/78/75 76/80/76 82/88/82 
f 82/88/82 81/87/81 75/78/75 
f 76/80/76 77/82/77 83/89/83 
f 83/89/83 82/88/82 76/80/76 
f 77/82/77 78/84/78 84/90/84 
f 84/90/84 83/89/83 77/82/77 
f 80/86/80 79/85/79 85/91/85 
f 85/91/85 86/92/86 80/86/80 
f 79/85/79 81/87/81 87/93/87 
f 87/93/87 85/91/85 79/85/79 
f 81/87/81 82/88/82 88/94/88 
f 88/94/88 87/93/87 81/87/81 
f 82/88/82 83/89/83 89/95/89 
f 89/95/89 88/94/88 82/88/82 
f 83/89/83 84/90/84 90/96/90 
f 90/96/90 89/95/89 83/89/83 
f 86/92/86 85/91/85 91/97/91 
f 91/97/91 92/98/92 86/92/86 
f 85/91/85 87/93/87 93/99/93 
f 93/99/93 91/97/91 85/91/85 
f 87/93/87 88/94/88 94/100/94 
f 94/100/94 93/99/93 87/93/87 
f 88/94/88 89/95/89 95/101/95 
f 95/101/95 94/100/94 88/94/88 
f 89/95/89 90/96/90 96/102/96 
f 96/102/96 95/101/95 89/95/89 
f 92/98/92 91/97/91 38/103/38 
f 38/103/38 37/104/37 92/98/92 
f 91/97/91 93/99/93 41/105/41 
f 41/105/41 38/103/38 91/97/91 
f 93/99/93 94/100/94 43/106/43 
f 43/106/43 41/105/41 93/99/93 
f 94/100/94 95/101/95 45/107/45 
f 45/107/45 43/106/43 94/100/94 
f 95/101/95 96/102/96 47/108/47 
f 47/108/47 45/107/45 95/101/95 
f 12/109/12 11/110/11 97/111/97 
f 97/111/97 78/112/78 12/109/12 
f 11/110/11 18/113/18 98/114/98 
f 98/114/98 97/111/97 11/110/11 
f 18/113/18 24/115/24 99/116/99 
f 99/116/99 98/114/98 18/113/18 
f 24/115/24 30/117/30 100/118/100 
f 100/118/100 99/116/99 24/115/24 
f 30/117/30 36/119/36 101/120/101 
f 101/120/101 100/118/100 30/117/30 
f 78/112/78 97/111/97 102/121/102 
f 102/121/102 84/122/84 78/112/78 
f 97/111/97 98/114/98 103/123/103 
f 103/123/103 102/121/102 97/111/97 
f 98/114/98 99/116/99 104/124/104 
f 104/124/104 103/123/103 98/114/98 
f 99/116/99 100/118/100 105/125/105 
f 105/125/105 104/124/104 99/116/99 
f 100/118/100 101/120/101 106/126/106 
f 106/126/106 105/125/105 100/118/100 
f 84/122/84 102/121/102 107/127/107 
f 107/127/107 90/128/90 84/122/84 
f 102/121/102 103/123/103 108/129/108 
f 108/129/108 107/127/107 102/121/102 
f 103/123/103 104/124/104 109/130/109 
f 109/130/109 108/129/108 103/123/103 
f 104/124/104 105/125/105 110/131/110 
f 110/131/110 109/130/109 104/124/104 
f 105/125/105 106/126/106 111/132/111 
f 111/132/111 110/131/110 105/125/105 
f 90/128/90 107/127/107 112/133/112 
f 112/133/112 96/134/96 90/128/90 
f 107/127/107 108/129/108 113/135/113 
f 113/135/113 112/133/112 107/127/107 
f 108/129/108 109/130/109 114/136/114 
f 114/136/114 113/135/113 108/129/108 
f 109/130/109 110/131/110 115/137/115 
f 115/137/115 114/136/114 109/130/109 
f 110/131/110 111/132/111 116/138/116 
f 116/138/116 115/137/115 110/131/110 
f 96/134/96 112/133/112 48/139/48 
f 48/139/48 47/140/47 96/134/96 
f 112/133/112 113/135/113 54/141/54 
f 54/141/54 48/139/48 112/133/112 
f 113/135/113 114/136/114 60/142/60 
f 60/142/60 54/141/54 113/135/113 
f 114/136/114 115/137/115 66/143/66 
f 66/143/66 60/142/60 114/136/114 
f 115/137/115 116/138/116 72/144/72 
f 72/144/72 66/143/66 115/137/115 
f 36/145/36 35/146/35 117/147/117 
f 117/147/117 101/148/101 36/145/36 
f 35/146/35 34/149/34 118/150/118 
f 118/150/118 117/147/117 35/146/35 
f 34/149/34 33/151/33 119/152/119 
f 119/152/119 118/150/118 34/149/34 
f 33/151/33 32/153/32 120/154/120 
f 120/154/120 119/152/119 33/151/33 
f 32/153/32 31/155/31 121/156/121 
f 121/156/121 120/154/120 32/153/32 
f 101/148/101 117/147/117 122/157/122 
f 122/157/122 106/158/106 101/148/101 
f 117/147/117 118/150/118 123/159/123 
f 123/159/123 122/157/122 117/147/117 
f 118/150/118 119/152/119 124/160/124 
f 124/160/124 123/159/123 118/150/118 
f 119/152/119 120/154/120 125/161/125 
f 125/161/125 124/160/124 119/152/119 
f 120/154/120 121/156/121 126/162/126 
f 126/162/126 125/161/125 120/154/120 
f 106/158/106 122/157/122 127/163/127 
f 127/163/127 111/164/111 106/158/106 
f 122/157/122 123/159/123 128/165/128 
f 128/165/128 127/163/127 122/157/122 
f 123/159/123 124/160/124 129/166/129 
f 129/166/129 128/165/128 123/159/123 
f 124/160/124 125/161/125 130/167/130 
f 130/167/130 129/166/129 124/160/124 
f 125/161/125 126/162/126 131/168/131 
f 131/168/131 130/167/130 125/161/125 
f 111/164/111 127/163/127 132/169/132 
f 132/169/132 116/170/116 111/164/111 
f 127/163/127 128/165/128 133/171/133 
f 133/171/133 132/169/132 127/163/127 
f 128/165/128 129/166/129 134/172/134 
f 134/172/134 133/171/133 128/165/128 
f 129/166/129 130/167/130 135/173/135 
f 135/173/135 134/172/134 129/166/129 
f 130/167/130 131/168/131 136/174/136 
f 136/174/136 135/173/135 130/167/130 
f 116/170/116 132/169/132 71/175/71 
f 71/175/71 72/176/72 116/170/116 
f 132/169/132 133/171/133 70/177/70 
f 70/177/70 71/175/71 132/169/132 
f 133/171/133 134/172/134 69/178/69 
f 69/178/69 70/177/70 133/171/133 
f 134/172/134 135/173/135 67/179/67 
f 67/179/67 69/178/69 134/172/134 
f 135/173/135 136/174/136 68/180/68 
f 68/180/68 67/179/67 135/173/135 
f 31/181/31 25/182/25 137/183/137 
f 137/183/137 121/184/121 31/181/31 
f 25/182/25 19/185/19 138/186/138 
f 138/186/138 137/183/137 25/182/25 
f 19/185/19 13/187/13 139/188/139 
f 139/188/139 138/186/138 19/185/19 
f 13/187/13 2/189/2 140/190/140 
f 140/190/140 139/188/139 13/187/13 
f 2/189/2 1/191/1 74/192/74 
f 74/192/74 140/190/140 2/189/2 
f 121/184/121 137/183/137 141/193/141 
f 141/193/141 126/194/126 121/184/121 
f 137/183/137 138/186/138 142/195/142 
f 142/195/142 141/193/141 137/183/137 
f 138/186/138 139/188/139 143/196/143 
f 143/196/143 142/195/142 138/186/138 
f 139/188/139 140/190/140 144/197/144 
f 144/197/144 143/196/143 139/188/139 
f 140/190/140 74/192/74 80/198/80 
f 80/198/80 144/197/144 140/190/140 
f 126/194/126 141/193/141 145/199/145 
f 145/199/145 131/200/131 126/194/126 
f 141/193/141 142/195/142 146/201/146 
f 146/201/146 145/199/145 141/193/141 
f 142/195/142 143/196/143 147/202/147 
f 147/202/147 146/201/146 142/195/142 
f 143/196/143 144/197/144 148/203/148 
f 148/203/148 147/202/147 143/196/143 
f 144/197/144 80/198/80 86/204/86 
f 86/204/86 148/203/148 144/197/144 
f 131/200/131 145/199/145 149/205/149 
f 149/205/149 136/206/136 131/200/131 
f 145/199/145 146/201/146 150/207/150 
f 150/207/150 149/205/149 145/199/145 
f 146/201/146 147/202/147 151/208/151 
f 151/208/151 150/207/150 146/201/146 
f 147/202/147 148/203/148 152/209/152 
f 152/209/152 151/208/151 147/202/147 
f 148/203/148 86/204/86 92/210/92 
f 92/210/92 152/209/152 148/203/148 
f 136/206/136 149/205/149 62/211/62 
f 62/211/62 68/212/68 136/206/136 
f 149/205/149 150/207/150 56/213/56 
f 56/213/56 62/211/62 149/205/149 
f 150/207/150 151/208/151 50/214/50 
f 50/214/50 56/213/56 150/207/150 
f 151/208/151 152/209/152 40/215/40 
f 40/215/40 50/214/50 151/208/151 
f 152/209/152 92/210/92 37/216/37 
f 37/216/37 40/215/40 152/209/152 
# 300 faces

