# 3ds Max Wavefront OBJ Exporter v0.97b - (c)2007 guruware
# File Created: 04.09.2017 15:37:39

mtllib Ast1LP.mtl

#
# object rockLP001
#

v  -0.6337 0.3829 0.6332
v  -0.6869 0.2856 0.4408
v  -0.5572 0.0804 0.5559
v  -0.4981 0.2079 0.7689
v  -0.2084 0.0534 0.5825
v  -0.1801 0.2372 0.7937
v  0.1829 0.1637 0.5356
v  0.1241 0.3191 0.7263
v  0.5114 0.1964 0.5003
v  0.3857 0.3508 0.6791
v  0.7594 0.2742 0.4467
v  0.6527 0.3666 0.6723
v  -0.8871 0.0835 0.2084
v  -0.6708 -0.1852 0.2620
v  -0.2116 -0.1242 0.2088
v  0.1998 0.0279 0.1916
v  0.5381 0.0914 0.1790
v  0.7637 0.2204 0.1599
v  -0.9689 -0.0260 -0.1603
v  -0.6957 -0.1927 -0.2028
v  -0.2255 -0.1974 -0.2658
v  0.2097 -0.0349 -0.2102
v  0.5879 0.0168 -0.1902
v  0.8059 0.1744 -0.1641
v  -0.9814 -0.0234 -0.5502
v  -0.7187 -0.2344 -0.6779
v  -0.2485 -0.3146 -0.7534
v  0.2060 -0.1495 -0.6727
v  0.6101 -0.0630 -0.6101
v  0.9107 0.0858 -0.5543
v  -0.8792 0.0868 -0.8402
v  -0.5431 0.0358 -0.9075
v  -0.1799 -0.0233 -0.9670
v  0.2046 -0.0431 -0.9622
v  0.5089 0.1122 -0.8430
v  0.7993 0.1860 -0.7993
v  -0.8004 1.7208 0.7962
v  -0.6097 1.8745 0.9516
v  -0.6902 2.0480 0.6894
v  -0.8910 1.8252 0.5544
v  -0.2821 2.1214 1.1590
v  -0.2968 2.2497 0.8131
v  0.1176 1.9720 0.9916
v  0.1491 2.0069 0.6652
v  0.4104 1.8234 0.8366
v  0.4272 1.8370 0.5411
v  0.6159 1.7290 0.7424
v  0.6524 1.7245 0.4882
v  -0.6967 2.0127 0.2498
v  -0.8639 1.7512 0.2062
v  -0.3355 2.2523 0.3332
v  0.1294 2.0444 0.2921
v  0.4190 1.8421 0.2182
v  0.6760 1.7475 0.2142
v  -0.6150 1.9017 -0.1416
v  -0.8202 1.7082 -0.0902
v  -0.3066 2.0990 -0.1505
v  0.1359 2.0915 -0.1366
v  0.4996 1.9515 -0.1368
v  0.7537 1.8143 -0.0892
v  -0.5552 1.8072 -0.4477
v  -0.7675 1.6604 -0.3543
v  -0.2416 1.9150 -0.4827
v  0.1606 2.1091 -0.6073
v  0.5756 2.0338 -0.5756
v  0.8489 1.9033 -0.4766
v  -0.5256 1.6966 -0.7075
v  -0.7116 1.6030 -0.5836
v  -0.2379 1.7634 -0.7491
v  0.1519 1.9013 -0.9226
v  0.5227 1.9177 -0.9064
v  0.7897 1.8493 -0.7897
v  -0.5656 0.4392 0.9161
v  -0.7162 0.5811 0.7161
v  -0.2399 0.3952 1.0467
v  0.1603 0.5020 0.9489
v  0.4889 0.5203 0.8940
v  0.7502 0.5577 0.8044
v  -0.6669 0.7619 1.1013
v  -0.8579 0.8252 0.8519
v  -0.2785 0.7805 1.3355
v  0.2426 0.8060 1.3869
v  0.6754 0.8040 1.2015
v  0.8491 0.8618 0.8786
v  -0.6681 1.1847 1.1035
v  -0.8497 1.1594 0.8437
v  -0.3255 1.3543 1.5894
v  0.1998 1.3144 1.2818
v  0.5504 1.2504 1.0328
v  0.7483 1.1940 0.8266
v  -0.6399 1.5550 1.0509
v  -0.8696 1.4789 0.8639
v  -0.3578 1.8060 1.3676
v  0.1481 1.6643 1.0827
v  0.4419 1.5403 0.9101
v  0.6759 1.4869 0.8043
v  0.7695 0.5553 0.4985
v  0.8999 0.4570 0.1633
v  1.0392 0.3920 -0.2236
v  0.9797 0.3996 -0.6097
v  0.8855 0.4755 -0.8857
v  0.9007 0.8359 0.5698
v  1.0198 0.8050 0.2215
v  1.0340 0.7954 -0.2099
v  0.9648 0.8000 -0.5942
v  0.8257 0.8264 -0.8258
v  0.9137 1.2193 0.6230
v  0.9536 1.2208 0.2596
v  0.9045 1.2074 -0.1460
v  0.9519 1.2043 -0.5514
v  0.7987 1.1581 -0.7988
v  0.8431 1.5850 0.6232
v  0.9249 1.6130 0.2747
v  0.8944 1.5901 -0.1139
v  0.8929 1.5774 -0.4986
v  0.8235 1.5395 -0.8236
v  0.5696 0.4022 -0.9047
v  0.2077 0.2962 -1.0047
v  -0.1897 0.3364 -1.0063
v  -0.5546 0.3883 -0.9264
v  -0.9163 0.4142 -0.9012
v  0.6307 0.7375 -1.0455
v  0.2024 0.6861 -1.0197
v  -0.1991 0.7428 -0.9115
v  -0.6049 0.7619 -0.9521
v  -0.9707 0.7724 -0.9383
v  0.5751 1.1656 -0.9897
v  0.1559 1.1125 -0.9191
v  -0.2509 1.1438 -0.9578
v  -0.6403 1.1573 -0.9437
v  -1.0239 1.1560 -0.9493
v  0.5266 1.5646 -0.9442
v  0.1217 1.5271 -0.9463
v  -0.2894 1.5551 -0.9490
v  -0.6719 1.5444 -0.9002
v  -0.8692 1.4261 -0.7399
v  -1.1752 0.2633 -0.6635
v  -1.0556 0.3157 -0.1757
v  -0.9912 0.3700 0.2137
v  -0.8316 0.4957 0.5147
v  -1.3348 0.7099 -0.7694
v  -1.1736 0.7276 -0.1866
v  -1.0522 0.7686 0.2314
v  -1.0122 0.8054 0.5990
v  -1.1565 1.1749 -0.6451
v  -1.1639 1.1638 -0.1843
v  -1.0292 1.1584 0.2298
v  -0.9745 1.1827 0.5945
v  -0.9380 1.4937 -0.4775
v  -0.9391 1.4745 -0.1145
v  -0.9960 1.5148 0.2327
v  -0.9483 1.5150 0.5796
# 152 vertices

vn -0.8136 -0.4323 0.3887
vn -0.6530 -0.4258 0.6263
vn -0.5024 -0.6402 0.5811
vn -0.4630 -0.6737 0.5759
vn 0.1123 -0.8479 0.5181
vn 0.1894 -0.7778 0.5993
vn 0.2259 -0.8289 0.5118
vn 0.2594 -0.7380 0.6229
vn 0.2808 -0.8048 0.5230
vn 0.2033 -0.7436 0.6370
vn 0.6903 -0.6080 0.3923
vn 0.4292 -0.7021 0.5682
vn -0.7452 -0.4670 0.4760
vn -0.3734 -0.8253 0.4235
vn 0.2205 -0.9248 0.3102
vn 0.2539 -0.9267 0.2770
vn 0.3417 -0.8991 0.2736
vn 0.6526 -0.7246 0.2215
vn -0.7774 -0.6005 0.1872
vn -0.3134 -0.9411 0.1267
vn 0.1846 -0.9673 0.1740
vn 0.2321 -0.9551 0.1840
vn 0.3366 -0.9141 0.2260
vn 0.6581 -0.7241 0.2063
vn -0.7444 -0.6439 -0.1767
vn -0.4601 -0.7817 -0.4210
vn 0.0232 -0.9367 -0.3494
vn 0.3415 -0.9356 -0.0896
vn 0.3231 -0.9204 -0.2200
vn 0.7897 -0.6102 -0.0637
vn -0.4025 -0.5628 -0.7220
vn -0.2430 -0.3380 -0.9092
vn -0.1042 -0.3489 -0.9314
vn 0.3169 -0.5483 -0.7739
vn 0.3402 -0.5017 -0.7953
vn 0.4715 -0.4965 -0.7288
vn -0.8084 0.3536 0.4707
vn -0.6772 0.4355 0.5931
vn -0.6596 0.6990 0.2764
vn -0.8811 0.4463 0.1564
vn -0.0901 0.7714 0.6299
vn -0.0356 0.9690 0.2444
vn 0.5424 0.6683 0.5091
vn 0.5222 0.8460 0.1078
vn 0.5737 0.6586 0.4869
vn 0.4785 0.8766 0.0521
vn 0.7045 0.5858 0.4006
vn 0.5261 0.8340 0.1665
vn -0.6629 0.7196 -0.2069
vn -0.8266 0.5230 -0.2079
vn -0.1099 0.9884 -0.1048
vn 0.4862 0.8682 0.0987
vn 0.4792 0.8571 0.1891
vn 0.3997 0.8939 0.2028
vn -0.5976 0.7241 -0.3444
vn -0.7674 0.6099 -0.1978
vn -0.3112 0.8847 -0.3472
vn 0.2190 0.9746 0.0458
vn 0.3989 0.8770 0.2680
vn 0.5980 0.7593 0.2567
vn -0.4855 0.7931 -0.3678
vn -0.5914 0.7532 -0.2882
vn -0.4365 0.7711 -0.4635
vn -0.1196 0.9466 -0.2992
vn 0.3288 0.9399 -0.0923
vn 0.7803 0.6252 0.0126
vn -0.3657 0.8207 -0.4390
vn -0.5746 0.7639 -0.2937
vn -0.3163 0.7123 -0.6266
vn -0.2370 0.5012 -0.8322
vn 0.2403 0.5700 -0.7857
vn 0.6986 0.4660 -0.5429
vn -0.6415 -0.5373 0.5475
vn -0.6961 -0.5608 0.4484
vn -0.0250 -0.7312 0.6817
vn 0.2513 -0.7877 0.5625
vn 0.2871 -0.7603 0.5827
vn 0.6592 -0.5287 0.5347
vn -0.6857 -0.3545 0.6357
vn -0.8003 -0.2746 0.5330
vn -0.1806 -0.4315 0.8839
vn 0.2267 -0.2721 0.9352
vn 0.6382 -0.2430 0.7305
vn 0.8939 -0.1250 0.4305
vn -0.8170 0.0751 0.5717
vn -0.8401 0.0175 0.5422
vn -0.1520 0.0801 0.9851
vn 0.4809 0.2806 0.8307
vn 0.5978 0.3895 0.7007
vn 0.7349 0.2825 0.6165
vn -0.7421 0.2004 0.6396
vn -0.8199 0.1225 0.5592
vn -0.2602 0.4888 0.8327
vn 0.5465 0.3693 0.7516
vn 0.5245 0.3892 0.7572
vn 0.6035 0.3797 0.7012
vn 0.8982 -0.3343 0.2854
vn 0.8948 -0.3301 0.3005
vn 0.9281 -0.3660 0.0678
vn 0.9661 -0.1459 -0.2130
vn 0.6959 -0.1204 -0.7080
vn 0.9523 -0.2203 0.2114
vn 0.9782 -0.1032 0.1805
vn 0.9971 0.0759 0.0060
vn 0.9343 0.0584 -0.3515
vn 0.7913 0.1525 -0.5921
vn 0.9306 0.0996 0.3522
vn 0.9964 0.0798 0.0269
vn 0.9872 0.1592 -0.0032
vn 0.9699 0.1116 -0.2164
vn 0.7387 0.0503 -0.6722
vn 0.6595 0.5752 0.4839
vn 0.8485 0.5172 0.1123
vn 0.9693 0.2458 -0.0025
vn 0.9866 0.1333 -0.0943
vn 0.7374 0.0606 -0.6727
vn 0.1822 -0.2872 -0.9404
vn 0.1408 -0.0723 -0.9874
vn -0.0675 0.0220 -0.9975
vn -0.1431 -0.0828 -0.9862
vn -0.3129 -0.1897 -0.9307
vn 0.2844 -0.0215 -0.9585
vn -0.0739 -0.0011 -0.9973
vn -0.0735 0.0297 -0.9969
vn 0.0032 0.0045 -1.0000
vn -0.3110 -0.0131 -0.9503
vn 0.2893 0.1185 -0.9499
vn -0.0297 0.0858 -0.9959
vn -0.0197 0.0015 -0.9998
vn -0.0706 0.1266 -0.9894
vn -0.5411 0.2854 -0.7911
vn 0.2198 0.0840 -0.9719
vn -0.0915 0.0890 -0.9918
vn -0.0669 0.4008 -0.9137
vn -0.4423 0.5101 -0.7377
vn -0.5849 0.6324 -0.5079
vn -0.8600 -0.4379 -0.2619
vn -0.9420 -0.2649 0.2060
vn -0.9005 -0.2715 0.3397
vn -0.6043 -0.5403 0.5856
vn -0.8977 -0.0092 -0.4405
vn -0.9524 -0.1201 0.2803
vn -0.9798 -0.0575 0.1918
vn -0.9129 -0.1837 0.3646
vn -0.8485 0.4569 -0.2670
vn -0.9445 0.2989 0.1364
vn -0.9726 0.0676 0.2224
vn -0.9595 0.0630 0.2747
vn -0.7101 0.6781 -0.1896
vn -0.8437 0.5287 -0.0926
vn -0.9491 0.3151 -0.0001
vn -0.9592 0.1631 0.2308
# 152 vertex normals

vt 0.6494 0.2976 0.0000
vt 0.6185 0.3063 0.0000
vt 0.6148 0.2650 0.0000
vt 0.6512 0.2575 0.0000
vt 0.6179 0.2108 0.0000
vt 0.6581 0.2061 0.0000
vt 0.6168 0.1483 0.0000
vt 0.6542 0.1537 0.0000
vt 0.6090 0.0984 0.0000
vt 0.6463 0.1117 0.0000
vt 0.6030 0.0594 0.0000
vt 0.6405 0.0716 0.0000
vt 0.5649 0.3212 0.0000
vt 0.5601 0.2738 0.0000
vt 0.5596 0.2093 0.0000
vt 0.5621 0.1464 0.0000
vt 0.5591 0.0962 0.0000
vt 0.5589 0.0578 0.0000
vt 0.5050 0.3260 0.0000
vt 0.4991 0.2788 0.0000
vt 0.4926 0.2098 0.0000
vt 0.5027 0.1443 0.0000
vt 0.5030 0.0904 0.0000
vt 0.5087 0.0517 0.0000
vt 0.4442 0.3252 0.0000
vt 0.4339 0.2774 0.0000
vt 0.4247 0.2151 0.0000
vt 0.4322 0.1504 0.0000
vt 0.4400 0.0925 0.0000
vt 0.4455 0.0440 0.0000
vt 0.3959 0.3137 0.0000
vt 0.3802 0.2640 0.0000
vt 0.3760 0.2045 0.0000
vt 0.3870 0.1491 0.0000
vt 0.3958 0.0991 0.0000
vt 0.4032 0.0553 0.0000
vt 0.9223 0.3868 0.0000
vt 0.9384 0.4264 0.0000
vt 0.8920 0.4266 0.0000
vt 0.8791 0.3819 0.0000
vt 0.9560 0.4916 0.0000
vt 0.9049 0.4876 0.0000
vt 0.9324 0.5532 0.0000
vt 0.8843 0.5573 0.0000
vt 0.9126 0.6003 0.0000
vt 0.8687 0.6035 0.0000
vt 0.9002 0.6336 0.0000
vt 0.8616 0.6401 0.0000
vt 0.8296 0.4176 0.0000
vt 0.8225 0.3734 0.0000
vt 0.8407 0.4785 0.0000
vt 0.8304 0.5494 0.0000
vt 0.8212 0.5999 0.0000
vt 0.8186 0.6396 0.0000
vt 0.7699 0.4199 0.0000
vt 0.7745 0.3775 0.0000
vt 0.7716 0.4747 0.0000
vt 0.7699 0.5393 0.0000
vt 0.7667 0.5971 0.0000
vt 0.7704 0.6404 0.0000
vt 0.7226 0.4228 0.0000
vt 0.7327 0.3832 0.0000
vt 0.7177 0.4722 0.0000
vt 0.7044 0.5363 0.0000
vt 0.7018 0.5952 0.0000
vt 0.7096 0.6404 0.0000
vt 0.6808 0.4213 0.0000
vt 0.6966 0.3888 0.0000
vt 0.6729 0.4649 0.0000
vt 0.6512 0.5285 0.0000
vt 0.6515 0.5843 0.0000
vt 0.6632 0.6271 0.0000
vt 0.3312 0.0796 0.0000
vt 0.3448 0.1189 0.0000
vt 0.3027 0.1126 0.0000
vt 0.2969 0.0682 0.0000
vt 0.3481 0.1737 0.0000
vt 0.3047 0.1675 0.0000
vt 0.3484 0.2331 0.0000
vt 0.3059 0.2338 0.0000
vt 0.3408 0.2814 0.0000
vt 0.2975 0.2875 0.0000
vt 0.3273 0.3228 0.0000
vt 0.2886 0.3298 0.0000
vt 0.2462 0.1010 0.0000
vt 0.2465 0.0541 0.0000
vt 0.2370 0.1655 0.0000
vt 0.2306 0.2359 0.0000
vt 0.2343 0.2965 0.0000
vt 0.2341 0.3458 0.0000
vt 0.1832 0.0892 0.0000
vt 0.1877 0.0440 0.0000
vt 0.1568 0.1648 0.0000
vt 0.1602 0.2408 0.0000
vt 0.1645 0.3011 0.0000
vt 0.1700 0.3436 0.0000
vt 0.1246 0.0914 0.0000
vt 0.1316 0.0474 0.0000
vt 0.0967 0.1569 0.0000
vt 0.1022 0.2425 0.0000
vt 0.1155 0.2923 0.0000
vt 0.1211 0.3304 0.0000
vt 0.0732 0.0964 0.0000
vt 0.0898 0.0558 0.0000
vt 0.0440 0.1628 0.0000
vt 0.0549 0.2347 0.0000
vt 0.0710 0.2862 0.0000
vt 0.0813 0.3212 0.0000
vt 0.2788 0.6966 0.0000
vt 0.2897 0.7335 0.0000
vt 0.2493 0.7257 0.0000
vt 0.2455 0.6821 0.0000
vt 0.2979 0.7758 0.0000
vt 0.2583 0.7785 0.0000
vt 0.3036 0.8249 0.0000
vt 0.2606 0.8371 0.0000
vt 0.3068 0.8845 0.0000
vt 0.2610 0.8913 0.0000
vt 0.2956 0.9245 0.0000
vt 0.2512 0.9335 0.0000
vt 0.2016 0.7212 0.0000
vt 0.1962 0.6763 0.0000
vt 0.2048 0.7742 0.0000
vt 0.2049 0.8357 0.0000
vt 0.2036 0.8918 0.0000
vt 0.1998 0.9308 0.0000
vt 0.1448 0.7183 0.0000
vt 0.1437 0.6811 0.0000
vt 0.1445 0.7708 0.0000
vt 0.1438 0.8297 0.0000
vt 0.1458 0.8880 0.0000
vt 0.1519 0.9297 0.0000
vt 0.0915 0.7211 0.0000
vt 0.0963 0.6851 0.0000
vt 0.0883 0.7711 0.0000
vt 0.0882 0.8269 0.0000
vt 0.0914 0.8834 0.0000
vt 0.0971 0.9319 0.0000
vt 0.0551 0.7309 0.0000
vt 0.0604 0.6941 0.0000
vt 0.0482 0.7751 0.0000
vt 0.0504 0.8234 0.0000
vt 0.0440 0.8822 0.0000
vt 0.0518 0.9285 0.0000
vt 0.3000 0.3865 0.0000
vt 0.3077 0.4296 0.0000
vt 0.2647 0.4195 0.0000
vt 0.2558 0.3738 0.0000
vt 0.3253 0.4775 0.0000
vt 0.2758 0.4751 0.0000
vt 0.3215 0.5314 0.0000
vt 0.2690 0.5317 0.0000
vt 0.3136 0.5839 0.0000
vt 0.2618 0.5851 0.0000
vt 0.3068 0.6339 0.0000
vt 0.2577 0.6379 0.0000
vt 0.2150 0.4137 0.0000
vt 0.2045 0.3734 0.0000
vt 0.2205 0.4739 0.0000
vt 0.2099 0.5321 0.0000
vt 0.2074 0.5904 0.0000
vt 0.2048 0.6436 0.0000
vt 0.1537 0.4170 0.0000
vt 0.1545 0.3740 0.0000
vt 0.1579 0.4788 0.0000
vt 0.1526 0.5368 0.0000
vt 0.1499 0.5936 0.0000
vt 0.1495 0.6487 0.0000
vt 0.0958 0.4212 0.0000
vt 0.0994 0.3742 0.0000
vt 0.0977 0.4812 0.0000
vt 0.0929 0.5400 0.0000
vt 0.0960 0.5943 0.0000
vt 0.1001 0.6314 0.0000
vt 0.0440 0.4195 0.0000
vt 0.0538 0.3769 0.0000
vt 0.0443 0.4731 0.0000
vt 0.0517 0.5364 0.0000
vt 0.0578 0.5814 0.0000
vt 0.0594 0.6185 0.0000
vt 0.3786 0.3865 0.0000
vt 0.4263 0.3765 0.0000
vt 0.4148 0.4246 0.0000
vt 0.3609 0.4329 0.0000
vt 0.4844 0.3734 0.0000
vt 0.4862 0.4246 0.0000
vt 0.5393 0.3844 0.0000
vt 0.5415 0.4293 0.0000
vt 0.5889 0.3991 0.0000
vt 0.5920 0.4386 0.0000
vt 0.6187 0.4110 0.0000
vt 0.6279 0.4449 0.0000
vt 0.4041 0.4847 0.0000
vt 0.3529 0.4911 0.0000
vt 0.4843 0.4870 0.0000
vt 0.5441 0.4897 0.0000
vt 0.5952 0.4934 0.0000
vt 0.6374 0.4935 0.0000
vt 0.4125 0.5485 0.0000
vt 0.3645 0.5484 0.0000
vt 0.4793 0.5498 0.0000
vt 0.5407 0.5494 0.0000
vt 0.5945 0.5502 0.0000
vt 0.6356 0.5465 0.0000
vt 0.4300 0.6048 0.0000
vt 0.3887 0.5972 0.0000
vt 0.4855 0.6046 0.0000
vt 0.5386 0.6022 0.0000
vt 0.5907 0.6001 0.0000
vt 0.6344 0.5951 0.0000
vt 0.4425 0.6411 0.0000
vt 0.4047 0.6354 0.0000
vt 0.4872 0.6430 0.0000
vt 0.5354 0.6421 0.0000
vt 0.5883 0.6468 0.0000
vt 0.6270 0.6330 0.0000
# 216 texture coords

o rockLP001
g rockLP001
usemtl wire_115115115
s 1
f 1/1/1 2/2/2 3/3/3 
f 3/3/3 4/4/4 1/1/1 
f 4/4/4 3/3/3 5/5/5 
f 5/5/5 6/6/6 4/4/4 
f 6/6/6 5/5/5 7/7/7 
f 7/7/7 8/8/8 6/6/6 
f 8/8/8 7/7/7 9/9/9 
f 9/9/9 10/10/10 8/8/8 
f 10/10/10 9/9/9 11/11/11 
f 11/11/11 12/12/12 10/10/10 
f 2/2/2 13/13/13 14/14/14 
f 14/14/14 3/3/3 2/2/2 
f 3/3/3 14/14/14 15/15/15 
f 15/15/15 5/5/5 3/3/3 
f 5/5/5 15/15/15 16/16/16 
f 16/16/16 7/7/7 5/5/5 
f 7/7/7 16/16/16 17/17/17 
f 17/17/17 9/9/9 7/7/7 
f 9/9/9 17/17/17 18/18/18 
f 18/18/18 11/11/11 9/9/9 
f 13/13/13 19/19/19 20/20/20 
f 20/20/20 14/14/14 13/13/13 
f 14/14/14 20/20/20 21/21/21 
f 21/21/21 15/15/15 14/14/14 
f 15/15/15 21/21/21 22/22/22 
f 22/22/22 16/16/16 15/15/15 
f 16/16/16 22/22/22 23/23/23 
f 23/23/23 17/17/17 16/16/16 
f 17/17/17 23/23/23 24/24/24 
f 24/24/24 18/18/18 17/17/17 
f 19/19/19 25/25/25 26/26/26 
f 26/26/26 20/20/20 19/19/19 
f 20/20/20 26/26/26 27/27/27 
f 27/27/27 21/21/21 20/20/20 
f 21/21/21 27/27/27 28/28/28 
f 28/28/28 22/22/22 21/21/21 
f 22/22/22 28/28/28 29/29/29 
f 29/29/29 23/23/23 22/22/22 
f 23/23/23 29/29/29 30/30/30 
f 30/30/30 24/24/24 23/23/23 
f 25/25/25 31/31/31 32/32/32 
f 32/32/32 26/26/26 25/25/25 
f 26/26/26 32/32/32 33/33/33 
f 33/33/33 27/27/27 26/26/26 
f 27/27/27 33/33/33 34/34/34 
f 34/34/34 28/28/28 27/27/27 
f 28/28/28 34/34/34 35/35/35 
f 35/35/35 29/29/29 28/28/28 
f 29/29/29 35/35/35 36/36/36 
f 36/36/36 30/30/30 29/29/29 
f 37/37/37 38/38/38 39/39/39 
f 39/39/39 40/40/40 37/37/37 
f 38/38/38 41/41/41 42/42/42 
f 42/42/42 39/39/39 38/38/38 
f 41/41/41 43/43/43 44/44/44 
f 44/44/44 42/42/42 41/41/41 
f 43/43/43 45/45/45 46/46/46 
f 46/46/46 44/44/44 43/43/43 
f 45/45/45 47/47/47 48/48/48 
f 48/48/48 46/46/46 45/45/45 
f 40/40/40 39/39/39 49/49/49 
f 49/49/49 50/50/50 40/40/40 
f 39/39/39 42/42/42 51/51/51 
f 51/51/51 49/49/49 39/39/39 
f 42/42/42 44/44/44 52/52/52 
f 52/52/52 51/51/51 42/42/42 
f 44/44/44 46/46/46 53/53/53 
f 53/53/53 52/52/52 44/44/44 
f 46/46/46 48/48/48 54/54/54 
f 54/54/54 53/53/53 46/46/46 
f 50/50/50 49/49/49 55/55/55 
f 55/55/55 56/56/56 50/50/50 
f 49/49/49 51/51/51 57/57/57 
f 57/57/57 55/55/55 49/49/49 
f 51/51/51 52/52/52 58/58/58 
f 58/58/58 57/57/57 51/51/51 
f 52/52/52 53/53/53 59/59/59 
f 59/59/59 58/58/58 52/52/52 
f 53/53/53 54/54/54 60/60/60 
f 60/60/60 59/59/59 53/53/53 
f 56/56/56 55/55/55 61/61/61 
f 61/61/61 62/62/62 56/56/56 
f 55/55/55 57/57/57 63/63/63 
f 63/63/63 61/61/61 55/55/55 
f 57/57/57 58/58/58 64/64/64 
f 64/64/64 63/63/63 57/57/57 
f 58/58/58 59/59/59 65/65/65 
f 65/65/65 64/64/64 58/58/58 
f 59/59/59 60/60/60 66/66/66 
f 66/66/66 65/65/65 59/59/59 
f 62/62/62 61/61/61 67/67/67 
f 67/67/67 68/68/68 62/62/62 
f 61/61/61 63/63/63 69/69/69 
f 69/69/69 67/67/67 61/61/61 
f 63/63/63 64/64/64 70/70/70 
f 70/70/70 69/69/69 63/63/63 
f 64/64/64 65/65/65 71/71/71 
f 71/71/71 70/70/70 64/64/64 
f 65/65/65 66/66/66 72/72/72 
f 72/72/72 71/71/71 65/65/65 
f 1/73/1 4/74/4 73/75/73 
f 73/75/73 74/76/74 1/73/1 
f 4/74/4 6/77/6 75/78/75 
f 75/78/75 73/75/73 4/74/4 
f 6/77/6 8/79/8 76/80/76 
f 76/80/76 75/78/75 6/77/6 
f 8/79/8 10/81/10 77/82/77 
f 77/82/77 76/80/76 8/79/8 
f 10/81/10 12/83/12 78/84/78 
f 78/84/78 77/82/77 10/81/10 
f 74/76/74 73/75/73 79/85/79 
f 79/85/79 80/86/80 74/76/74 
f 73/75/73 75/78/75 81/87/81 
f 81/87/81 79/85/79 73/75/73 
f 75/78/75 76/80/76 82/88/82 
f 82/88/82 81/87/81 75/78/75 
f 76/80/76 77/82/77 83/89/83 
f 83/89/83 82/88/82 76/80/76 
f 77/82/77 78/84/78 84/90/84 
f 84/90/84 83/89/83 77/82/77 
f 80/86/80 79/85/79 85/91/85 
f 85/91/85 86/92/86 80/86/80 
f 79/85/79 81/87/81 87/93/87 
f 87/93/87 85/91/85 79/85/79 
f 81/87/81 82/88/82 88/94/88 
f 88/94/88 87/93/87 81/87/81 
f 82/88/82 83/89/83 89/95/89 
f 89/95/89 88/94/88 82/88/82 
f 83/89/83 84/90/84 90/96/90 
f 90/96/90 89/95/89 83/89/83 
f 86/92/86 85/91/85 91/97/91 
f 91/97/91 92/98/92 86/92/86 
f 85/91/85 87/93/87 93/99/93 
f 93/99/93 91/97/91 85/91/85 
f 87/93/87 88/94/88 94/100/94 
f 94/100/94 93/99/93 87/93/87 
f 88/94/88 89/95/89 95/101/95 
f 95/101/95 94/100/94 88/94/88 
f 89/95/89 90/96/90 96/102/96 
f 96/102/96 95/101/95 89/95/89 
f 92/98/92 91/97/91 38/103/38 
f 38/103/38 37/104/37 92/98/92 
f 91/97/91 93/99/93 41/105/41 
f 41/105/41 38/103/38 91/97/91 
f 93/99/93 94/100/94 43/106/43 
f 43/106/43 41/105/41 93/99/93 
f 94/100/94 95/101/95 45/107/45 
f 45/107/45 43/106/43 94/100/94 
f 95/101/95 96/102/96 47/108/47 
f 47/108/47 45/107/45 95/101/95 
f 12/109/12 11/110/11 97/111/97 
f 97/111/97 78/112/78 12/109/12 
f 11/110/11 18/113/18 98/114/98 
f 98/114/98 97/111/97 11/110/11 
f 18/113/18 24/115/24 99/116/99 
f 99/116/99 98/114/98 18/113/18 
f 24/115/24 30/117/30 100/118/100 
f 100/118/100 99/116/99 24/115/24 
f 30/117/30 36/119/36 101/120/101 
f 101/120/101 100/118/100 30/117/30 
f 78/112/78 97/111/97 102/121/102 
f 102/121/102 84/122/84 78/112/78 
f 97/111/97 98/114/98 103/123/103 
f 103/123/103 102/121/102 97/111/97 
f 98/114/98 99/116/99 104/124/104 
f 104/124/104 103/123/103 98/114/98 
f 99/116/99 100/118/100 105/125/105 
f 105/125/105 104/124/104 99/116/99 
f 100/118/100 101/120/101 106/126/106 
f 106/126/106 105/125/105 100/118/100 
f 84/122/84 102/121/102 107/127/107 
f 107/127/107 90/128/90 84/122/84 
f 102/121/102 103/123/103 108/129/108 
f 108/129/108 107/127/107 102/121/102 
f 103/123/103 104/124/104 109/130/109 
f 109/130/109 108/129/108 103/123/103 
f 104/124/104 105/125/105 110/131/110 
f 110/131/110 109/130/109 104/124/104 
f 105/125/105 106/126/106 111/132/111 
f 111/132/111 110/131/110 105/125/105 
f 90/128/90 107/127/107 112/133/112 
f 112/133/112 96/134/96 90/128/90 
f 107/127/107 108/129/108 113/135/113 
f 113/135/113 112/133/112 107/127/107 
f 108/129/108 109/130/109 114/136/114 
f 114/136/114 113/135/113 108/129/108 
f 109/130/109 110/131/110 115/137/115 
f 115/137/115 114/136/114 109/130/109 
f 110/131/110 111/132/111 116/138/116 
f 116/138/116 115/137/115 110/131/110 
f 96/134/96 112/133/112 48/139/48 
f 48/139/48 47/140/47 96/134/96 
f 112/133/112 113/135/113 54/141/54 
f 54/141/54 48/139/48 112/133/112 
f 113/135/113 114/136/114 60/142/60 
f 60/142/60 54/141/54 113/135/113 
f 114/136/114 115/137/115 66/143/66 
f 66/143/66 60/142/60 114/136/114 
f 115/137/115 116/138/116 72/144/72 
f 72/144/72 66/143/66 115/137/115 
f 36/145/36 35/146/35 117/147/117 
f 117/147/117 101/148/101 36/145/36 
f 35/146/35 34/149/34 118/150/118 
f 118/150/118 117/147/117 35/146/35 
f 34/149/34 33/151/33 119/152/119 
f 119/152/119 118/150/118 34/149/34 
f 33/151/33 32/153/32 120/154/120 
f 120/154/120 119/152/119 33/151/33 
f 32/153/32 31/155/31 121/156/121 
f 121/156/121 120/154/120 32/153/32 
f 101/148/101 117/147/117 122/157/122 
f 122/157/122 106/158/106 101/148/101 
f 117/147/117 118/150/118 123/159/123 
f 123/159/123 122/157/122 117/147/117 
f 118/150/118 119/152/119 124/160/124 
f 124/160/124 123/159/123 118/150/118 
f 119/152/119 120/154/120 125/161/125 
f 125/161/125 124/160/124 119/152/119 
f 120/154/120 121/156/121 126/162/126 
f 126/162/126 125/161/125 120/154/120 
f 106/158/106 122/157/122 127/163/127 
f 127/163/127 111/164/111 106/158/106 
f 122/157/122 123/159/123 128/165/128 
f 128/165/128 127/163/127 122/157/122 
f 123/159/123 124/160/124 129/166/129 
f 129/166/129 128/165/128 123/159/123 
f 124/160/124 125/161/125 130/167/130 
f 130/167/130 129/166/129 124/160/124 
f 125/161/125 126/162/126 131/168/131 
f 131/168/131 130/167/130 125/161/125 
f 111/164/111 127/163/127 132/169/132 
f 132/169/132 116/170/116 111/164/111 
f 127/163/127 128/165/128 133/171/133 
f 133/171/133 132/169/132 127/163/127 
f 128/165/128 129/166/129 134/172/134 
f 134/172/134 133/171/133 128/165/128 
f 129/166/129 130/167/130 135/173/135 
f 135/173/135 134/172/134 129/166/129 
f 130/167/130 131/168/131 136/174/136 
f 136/174/136 135/173/135 130/167/130 
f 116/170/116 132/169/132 71/175/71 
f 71/175/71 72/176/72 116/170/116 
f 132/169/132 133/171/133 70/177/70 
f 70/177/70 71/175/71 132/169/132 
f 133/171/133 134/172/134 69/178/69 
f 69/178/69 70/177/70 133/171/133 
f 134/172/134 135/173/135 67/179/67 
f 67/179/67 69/178/69 134/172/134 
f 135/173/135 136/174/136 68/180/68 
f 68/180/68 67/179/67 135/173/135 
f 31/181/31 25/182/25 137/183/137 
f 137/183/137 121/184/121 31/181/31 
f 25/182/25 19/185/19 138/186/138 
f 138/186/138 137/183/137 25/182/25 
f 19/185/19 13/187/13 139/188/139 
f 139/188/139 138/186/138 19/185/19 
f 13/187/13 2/189/2 140/190/140 
f 140/190/140 139/188/139 13/187/13 
f 2/189/2 1/191/1 74/192/74 
f 74/192/74 140/190/140 2/189/2 
f 121/184/121 137/183/137 141/193/141 
f 141/193/141 126/194/126 121/184/121 
f 137/183/137 138/186/138 142/195/142 
f 142/195/142 141/193/141 137/183/137 
f 138/186/138 139/188/139 143/196/143 
f 143/196/143 142/195/142 138/186/138 
f 139/188/139 140/190/140 144/197/144 
f 144/197/144 143/196/143 139/188/139 
f 140/190/140 74/192/74 80/198/80 
f 80/198/80 144/197/144 140/190/140 
f 126/194/126 141/193/141 145/199/145 
f 145/199/145 131/200/131 126/194/126 
f 141/193/141 142/195/142 146/201/146 
f 146/201/146 145/199/145 141/193/141 
f 142/195/142 143/196/143 147/202/147 
f 147/202/147 146/201/146 142/195/142 
f 143/196/143 144/197/144 148/203/148 
f 148/203/148 147/202/147 143/196/143 
f 144/197/144 80/198/80 86/204/86 
f 86/204/86 148/203/148 144/197/144 
f 131/200/131 145/199/145 149/205/149 
f 149/205/149 136/206/136 131/200/131 
f 145/199/145 146/201/146 150/207/150 
f 150/207/150 149/205/149 145/199/145 
f 146/201/146 147/202/147 151/208/151 
f 151/208/151 150/207/150 146/201/146 
f 147/202/147 148/203/148 152/209/152 
f 152/209/152 151/208/151 147/202/147 
f 148/203/148 86/204/86 92/210/92 
f 92/210/92 152/209/152 148/203/148 
f 136/206/136 149/205/149 62/211/62 
f 62/211/62 68/212/68 136/206/136 
f 149/205/149 150/207/150 56/213/56 
f 56/213/56 62/211/62 149/205/149 
f 150/207/150 151/208/151 50/214/50 
f 50/214/50 56/213/56 150/207/150 
f 151/208/151 152/209/152 40/215/40 
f 40/215/40 50/214/50 151/208/151 
f 152/209/152 92/210/92 37/216/37 
f 37/216/37 40/215/40 152/209/152 
# 300 faces

